%TF.GenerationSoftware,KiCad,Pcbnew,8.0.7*%
%TF.CreationDate,2025-04-03T15:21:43+05:30*%
%TF.ProjectId,Esdp,45736470-2e6b-4696-9361-645f70636258,rev?*%
%TF.SameCoordinates,Original*%
%TF.FileFunction,Copper,L1,Top*%
%TF.FilePolarity,Positive*%
%FSLAX46Y46*%
G04 Gerber Fmt 4.6, Leading zero omitted, Abs format (unit mm)*
G04 Created by KiCad (PCBNEW 8.0.7) date 2025-04-03 15:21:43*
%MOMM*%
%LPD*%
G01*
G04 APERTURE LIST*
G04 Aperture macros list*
%AMRoundRect*
0 Rectangle with rounded corners*
0 $1 Rounding radius*
0 $2 $3 $4 $5 $6 $7 $8 $9 X,Y pos of 4 corners*
0 Add a 4 corners polygon primitive as box body*
4,1,4,$2,$3,$4,$5,$6,$7,$8,$9,$2,$3,0*
0 Add four circle primitives for the rounded corners*
1,1,$1+$1,$2,$3*
1,1,$1+$1,$4,$5*
1,1,$1+$1,$6,$7*
1,1,$1+$1,$8,$9*
0 Add four rect primitives between the rounded corners*
20,1,$1+$1,$2,$3,$4,$5,0*
20,1,$1+$1,$4,$5,$6,$7,0*
20,1,$1+$1,$6,$7,$8,$9,0*
20,1,$1+$1,$8,$9,$2,$3,0*%
G04 Aperture macros list end*
%TA.AperFunction,ComponentPad*%
%ADD10R,1.000000X1.000000*%
%TD*%
%TA.AperFunction,ComponentPad*%
%ADD11O,1.000000X1.000000*%
%TD*%
%TA.AperFunction,SMDPad,CuDef*%
%ADD12RoundRect,0.250000X-0.262500X-0.450000X0.262500X-0.450000X0.262500X0.450000X-0.262500X0.450000X0*%
%TD*%
%TA.AperFunction,SMDPad,CuDef*%
%ADD13R,0.600000X2.200000*%
%TD*%
%TA.AperFunction,SMDPad,CuDef*%
%ADD14RoundRect,0.250000X0.325000X0.650000X-0.325000X0.650000X-0.325000X-0.650000X0.325000X-0.650000X0*%
%TD*%
%TA.AperFunction,SMDPad,CuDef*%
%ADD15RoundRect,0.250000X-0.325000X-0.650000X0.325000X-0.650000X0.325000X0.650000X-0.325000X0.650000X0*%
%TD*%
%TA.AperFunction,ComponentPad*%
%ADD16R,2.400000X1.600000*%
%TD*%
%TA.AperFunction,ComponentPad*%
%ADD17O,2.400000X1.600000*%
%TD*%
%TA.AperFunction,ComponentPad*%
%ADD18R,1.600000X1.600000*%
%TD*%
%TA.AperFunction,ComponentPad*%
%ADD19O,1.600000X1.600000*%
%TD*%
%TA.AperFunction,SMDPad,CuDef*%
%ADD20RoundRect,0.250000X-0.312500X-0.625000X0.312500X-0.625000X0.312500X0.625000X-0.312500X0.625000X0*%
%TD*%
%TA.AperFunction,SMDPad,CuDef*%
%ADD21RoundRect,0.250000X0.312500X0.625000X-0.312500X0.625000X-0.312500X-0.625000X0.312500X-0.625000X0*%
%TD*%
%TA.AperFunction,SMDPad,CuDef*%
%ADD22RoundRect,0.250000X-0.250000X-0.475000X0.250000X-0.475000X0.250000X0.475000X-0.250000X0.475000X0*%
%TD*%
%TA.AperFunction,SMDPad,CuDef*%
%ADD23RoundRect,0.200000X0.200000X0.275000X-0.200000X0.275000X-0.200000X-0.275000X0.200000X-0.275000X0*%
%TD*%
%TA.AperFunction,ComponentPad*%
%ADD24R,2.200000X2.200000*%
%TD*%
%TA.AperFunction,ComponentPad*%
%ADD25C,2.200000*%
%TD*%
%TA.AperFunction,SMDPad,CuDef*%
%ADD26RoundRect,0.250000X0.262500X0.450000X-0.262500X0.450000X-0.262500X-0.450000X0.262500X-0.450000X0*%
%TD*%
%TA.AperFunction,SMDPad,CuDef*%
%ADD27RoundRect,0.200000X-0.200000X-0.275000X0.200000X-0.275000X0.200000X0.275000X-0.200000X0.275000X0*%
%TD*%
%TA.AperFunction,ViaPad*%
%ADD28C,0.600000*%
%TD*%
%TA.AperFunction,Conductor*%
%ADD29C,0.500000*%
%TD*%
%TA.AperFunction,Conductor*%
%ADD30C,0.200000*%
%TD*%
%TA.AperFunction,Conductor*%
%ADD31C,0.300000*%
%TD*%
G04 APERTURE END LIST*
D10*
%TO.P,J3,1,Pin_1*%
%TO.N,VDD*%
X133750000Y-81440000D03*
D11*
%TO.P,J3,2,Pin_2*%
%TO.N,GND*%
X133750000Y-82710000D03*
%TO.P,J3,3,Pin_3*%
%TO.N,Net-(J3-Pin_3)*%
X133750000Y-83980000D03*
%TO.P,J3,4,Pin_4*%
%TO.N,Net-(J3-Pin_4)*%
X133750000Y-85250000D03*
%TO.P,J3,5,Pin_5*%
%TO.N,Net-(J3-Pin_5)*%
X133750000Y-86520000D03*
%TO.P,J3,6,Pin_6*%
%TO.N,Net-(J3-Pin_6)*%
X133750000Y-87790000D03*
%TO.P,J3,7,Pin_7*%
%TO.N,MISO*%
X133750000Y-89060000D03*
%TO.P,J3,8,Pin_8*%
%TO.N,Net-(J3-Pin_8)*%
X133750000Y-90330000D03*
%TO.P,J3,9,Pin_9*%
%TO.N,VDD*%
X133750000Y-91600000D03*
%TD*%
D12*
%TO.P,R13,1*%
%TO.N,CLK*%
X126175000Y-95690000D03*
%TO.P,R13,2*%
%TO.N,Net-(J3-Pin_8)*%
X128000000Y-95690000D03*
%TD*%
D13*
%TO.P,IC1,1,CS*%
%TO.N,Net-(IC1-CS)*%
X117345000Y-90250000D03*
%TO.P,IC1,2,IO1*%
%TO.N,MISO*%
X118615000Y-90250000D03*
%TO.P,IC1,3,IO2*%
%TO.N,Net-(IC1-IO2)*%
X119885000Y-90250000D03*
%TO.P,IC1,4,GND*%
%TO.N,GND*%
X121155000Y-90250000D03*
%TO.P,IC1,5,IO0*%
%TO.N,Net-(IC1-IO0)*%
X121155000Y-83250000D03*
%TO.P,IC1,6,CLK*%
%TO.N,Net-(IC1-CLK)*%
X119885000Y-83250000D03*
%TO.P,IC1,7,IO3*%
%TO.N,Net-(IC1-IO2)*%
X118615000Y-83250000D03*
%TO.P,IC1,8,VCC*%
%TO.N,Net-(IC1-VCC)*%
X117345000Y-83250000D03*
%TD*%
D14*
%TO.P,C6,1*%
%TO.N,GND*%
X96837500Y-79500000D03*
%TO.P,C6,2*%
%TO.N,Net-(IC1-VCC)*%
X93887500Y-79500000D03*
%TD*%
D15*
%TO.P,C3,1*%
%TO.N,VDD*%
X125800000Y-104000000D03*
%TO.P,C3,2*%
X128750000Y-104000000D03*
%TD*%
D16*
%TO.P,U2,1*%
%TO.N,/op1*%
X101425000Y-102950000D03*
D17*
%TO.P,U2,2,-*%
%TO.N,/op2*%
X101425000Y-105490000D03*
%TO.P,U2,3,+*%
%TO.N,/divider*%
X101425000Y-108030000D03*
%TO.P,U2,4,V-*%
%TO.N,GND*%
X101425000Y-110570000D03*
%TO.P,U2,5,+*%
%TO.N,unconnected-(U2B-+-Pad5)*%
X109045000Y-110570000D03*
%TO.P,U2,6,-*%
%TO.N,unconnected-(U2B---Pad6)*%
X109045000Y-108030000D03*
%TO.P,U2,7*%
%TO.N,unconnected-(U2-Pad7)*%
X109045000Y-105490000D03*
%TO.P,U2,8,V+*%
%TO.N,VDD*%
X109045000Y-102950000D03*
%TD*%
D12*
%TO.P,R19,1*%
%TO.N,SS*%
X84262500Y-79750000D03*
%TO.P,R19,2*%
%TO.N,Net-(IC1-CS)*%
X86087500Y-79750000D03*
%TD*%
D18*
%TO.P,U3,1,OUT*%
%TO.N,Net-(IC1-VCC)*%
X115200000Y-95950000D03*
D19*
%TO.P,U3,2,SENSE*%
X115200000Y-98490000D03*
%TO.P,U3,3,SHUTDOWN*%
%TO.N,unconnected-(U3-SHUTDOWN-Pad3)*%
X115200000Y-101030000D03*
%TO.P,U3,4,GND*%
%TO.N,GND*%
X115200000Y-103570000D03*
%TO.P,U3,5,~{ERROR}*%
%TO.N,unconnected-(U3-~{ERROR}-Pad5)*%
X122820000Y-103570000D03*
%TO.P,U3,6,VTAP*%
%TO.N,Net-(U3-FEEDBACK)*%
X122820000Y-101030000D03*
%TO.P,U3,7,FEEDBACK*%
X122820000Y-98490000D03*
%TO.P,U3,8,IN*%
%TO.N,VDD*%
X122820000Y-95950000D03*
%TD*%
D20*
%TO.P,R18,1*%
%TO.N,Net-(IC1-CS)*%
X88662500Y-79750000D03*
%TO.P,R18,2*%
%TO.N,GND*%
X91587500Y-79750000D03*
%TD*%
D21*
%TO.P,R1,1*%
%TO.N,/op2*%
X89250000Y-102500000D03*
%TO.P,R1,2*%
%TO.N,Net-(R1-Pad2)*%
X86325000Y-102500000D03*
%TD*%
D12*
%TO.P,R10,1*%
%TO.N,Net-(U1-PB0)*%
X126175000Y-88190000D03*
%TO.P,R10,2*%
%TO.N,Net-(J3-Pin_4)*%
X128000000Y-88190000D03*
%TD*%
%TO.P,R12,1*%
%TO.N,MOSI*%
X126087500Y-91940000D03*
%TO.P,R12,2*%
%TO.N,Net-(J3-Pin_6)*%
X127912500Y-91940000D03*
%TD*%
D18*
%TO.P,D2,1,K*%
%TO.N,/op1*%
X91380000Y-96750000D03*
D19*
%TO.P,D2,2,A*%
%TO.N,GND*%
X99000000Y-96750000D03*
%TD*%
D20*
%TO.P,R16,1*%
%TO.N,Net-(IC1-CLK)*%
X104462500Y-79750000D03*
%TO.P,R16,2*%
%TO.N,GND*%
X107387500Y-79750000D03*
%TD*%
D22*
%TO.P,C4,1*%
%TO.N,/op2*%
X91850000Y-102750000D03*
%TO.P,C4,2*%
%TO.N,/op1*%
X93750000Y-102750000D03*
%TD*%
D15*
%TO.P,C5,1*%
%TO.N,/divider*%
X122775000Y-110250000D03*
%TO.P,C5,2*%
%TO.N,MIC_POS*%
X125725000Y-110250000D03*
%TD*%
D21*
%TO.P,R14,1*%
%TO.N,Net-(IC1-IO0)*%
X113712500Y-79750000D03*
%TO.P,R14,2*%
%TO.N,GND*%
X110787500Y-79750000D03*
%TD*%
D23*
%TO.P,R4,1*%
%TO.N,VDD*%
X116750000Y-110500000D03*
%TO.P,R4,2*%
%TO.N,/divider*%
X115100000Y-110500000D03*
%TD*%
D21*
%TO.P,R8,1*%
%TO.N,Net-(R1-Pad2)*%
X87962500Y-96750000D03*
%TO.P,R8,2*%
%TO.N,Net-(C2-Pad1)*%
X85037500Y-96750000D03*
%TD*%
D18*
%TO.P,D1,1,K*%
%TO.N,VDD*%
X103380000Y-96500000D03*
D19*
%TO.P,D1,2,A*%
%TO.N,/op1*%
X111000000Y-96500000D03*
%TD*%
D18*
%TO.P,U1,1,~{RESET}/PC6*%
%TO.N,unconnected-(U1-~{RESET}{slash}PC6-Pad1)*%
X80180000Y-91620000D03*
D19*
%TO.P,U1,2,PD0*%
%TO.N,unconnected-(U1-PD0-Pad2)*%
X82720000Y-91620000D03*
%TO.P,U1,3,PD1*%
%TO.N,unconnected-(U1-PD1-Pad3)*%
X85260000Y-91620000D03*
%TO.P,U1,4,PD2*%
%TO.N,SS*%
X87800000Y-91620000D03*
%TO.P,U1,5,PD3*%
%TO.N,unconnected-(U1-PD3-Pad5)*%
X90340000Y-91620000D03*
%TO.P,U1,6,PD4*%
%TO.N,unconnected-(U1-PD4-Pad6)*%
X92880000Y-91620000D03*
%TO.P,U1,7,VCC*%
%TO.N,VDD*%
X95420000Y-91620000D03*
%TO.P,U1,8,GND*%
%TO.N,GND*%
X97960000Y-91620000D03*
%TO.P,U1,9,XTAL1/PB6*%
%TO.N,unconnected-(U1-XTAL1{slash}PB6-Pad9)*%
X100500000Y-91620000D03*
%TO.P,U1,10,XTAL2/PB7*%
%TO.N,unconnected-(U1-XTAL2{slash}PB7-Pad10)*%
X103040000Y-91620000D03*
%TO.P,U1,11,PD5*%
%TO.N,unconnected-(U1-PD5-Pad11)*%
X105580000Y-91620000D03*
%TO.P,U1,12,PD6*%
%TO.N,unconnected-(U1-PD6-Pad12)*%
X108120000Y-91620000D03*
%TO.P,U1,13,PD7*%
%TO.N,unconnected-(U1-PD7-Pad13)*%
X110660000Y-91620000D03*
%TO.P,U1,14,PB0*%
%TO.N,Net-(U1-PB0)*%
X113200000Y-91620000D03*
%TO.P,U1,15,PB1*%
%TO.N,Net-(U1-PB1)*%
X113200000Y-84000000D03*
%TO.P,U1,16,PB2*%
%TO.N,Net-(U1-PB2)*%
X110660000Y-84000000D03*
%TO.P,U1,17,PB3*%
%TO.N,MOSI*%
X108120000Y-84000000D03*
%TO.P,U1,18,PB4*%
%TO.N,MISO*%
X105580000Y-84000000D03*
%TO.P,U1,19,PB5*%
%TO.N,CLK*%
X103040000Y-84000000D03*
%TO.P,U1,20,AVCC*%
%TO.N,unconnected-(U1-AVCC-Pad20)*%
X100500000Y-84000000D03*
%TO.P,U1,21,AREF*%
%TO.N,unconnected-(U1-AREF-Pad21)*%
X97960000Y-84000000D03*
%TO.P,U1,22,GND*%
%TO.N,GND*%
X95420000Y-84000000D03*
%TO.P,U1,23,PC0*%
%TO.N,/op1*%
X92880000Y-84000000D03*
%TO.P,U1,24,PC1*%
%TO.N,unconnected-(U1-PC1-Pad24)*%
X90340000Y-84000000D03*
%TO.P,U1,25,PC2*%
%TO.N,unconnected-(U1-PC2-Pad25)*%
X87800000Y-84000000D03*
%TO.P,U1,26,PC3*%
%TO.N,unconnected-(U1-PC3-Pad26)*%
X85260000Y-84000000D03*
%TO.P,U1,27,PC4*%
%TO.N,unconnected-(U1-PC4-Pad27)*%
X82720000Y-84000000D03*
%TO.P,U1,28,PC5*%
%TO.N,unconnected-(U1-PC5-Pad28)*%
X80180000Y-84000000D03*
%TD*%
D24*
%TO.P,J2,1,Pin_1*%
%TO.N,GND*%
X79960000Y-105750000D03*
D25*
%TO.P,J2,2,Pin_2*%
%TO.N,MIC_POS*%
X82500000Y-105750000D03*
%TD*%
D12*
%TO.P,R9,1*%
%TO.N,Net-(U1-PB1)*%
X126175000Y-81190000D03*
%TO.P,R9,2*%
%TO.N,Net-(J3-Pin_3)*%
X128000000Y-81190000D03*
%TD*%
D14*
%TO.P,C2,1*%
%TO.N,Net-(C2-Pad1)*%
X82000000Y-97000000D03*
%TO.P,C2,2*%
%TO.N,GND*%
X79050000Y-97000000D03*
%TD*%
D26*
%TO.P,R17,1*%
%TO.N,CLK*%
X100837500Y-79500000D03*
%TO.P,R17,2*%
%TO.N,Net-(IC1-CLK)*%
X99012500Y-79500000D03*
%TD*%
D12*
%TO.P,R11,1*%
%TO.N,Net-(U1-PB2)*%
X126337500Y-84690000D03*
%TO.P,R11,2*%
%TO.N,Net-(J3-Pin_5)*%
X128162500Y-84690000D03*
%TD*%
%TO.P,R7,1*%
%TO.N,VDD*%
X128675000Y-110500000D03*
%TO.P,R7,2*%
%TO.N,MIC_POS*%
X130500000Y-110500000D03*
%TD*%
D15*
%TO.P,C1,1*%
%TO.N,GND*%
X125750000Y-99500000D03*
%TO.P,C1,2*%
X128700000Y-99500000D03*
%TD*%
D27*
%TO.P,R5,1*%
%TO.N,/divider*%
X118675000Y-110500000D03*
%TO.P,R5,2*%
%TO.N,GND*%
X120325000Y-110500000D03*
%TD*%
D12*
%TO.P,R6,1*%
%TO.N,MIC_POS*%
X133425000Y-110500000D03*
%TO.P,R6,2*%
%TO.N,GND*%
X135250000Y-110500000D03*
%TD*%
D20*
%TO.P,R2,1*%
%TO.N,/op2*%
X86325000Y-107250000D03*
%TO.P,R2,2*%
%TO.N,/op1*%
X89250000Y-107250000D03*
%TD*%
D12*
%TO.P,R15,1*%
%TO.N,MOSI*%
X79925000Y-79750000D03*
%TO.P,R15,2*%
%TO.N,Net-(IC1-IO0)*%
X81750000Y-79750000D03*
%TD*%
D10*
%TO.P,J1,1,Pin_1*%
%TO.N,GND*%
X134000000Y-98750000D03*
D11*
%TO.P,J1,2,Pin_2*%
%TO.N,VDD*%
X134000000Y-100020000D03*
%TD*%
D28*
%TO.N,GND*%
X134000000Y-95000000D03*
X122500000Y-106250000D03*
X132500000Y-113000000D03*
X137500000Y-106500000D03*
X132500000Y-103750000D03*
X132500000Y-106750000D03*
X129000000Y-106750000D03*
X96500000Y-111000000D03*
X85250000Y-113000000D03*
X92000000Y-111000000D03*
X131000000Y-78500000D03*
X125250000Y-78500000D03*
X137500000Y-95000000D03*
X137500000Y-103750000D03*
%TO.N,VDD*%
X125500000Y-101750000D03*
%TO.N,Net-(IC1-VCC)*%
X112500000Y-81750000D03*
X109500000Y-78750000D03*
%TO.N,Net-(IC1-CS)*%
X92750000Y-88500000D03*
X87875000Y-81875000D03*
%TO.N,MISO*%
X118500000Y-92500000D03*
X117250000Y-93250000D03*
%TO.N,Net-(U1-PB1)*%
X116750000Y-78250000D03*
%TO.N,Net-(U1-PB0)*%
X124500000Y-88000000D03*
%TO.N,Net-(U1-PB2)*%
X122500000Y-86000000D03*
%TO.N,MOSI*%
X122500000Y-87250000D03*
X84750000Y-82000000D03*
%TO.N,CLK*%
X118750000Y-79000000D03*
X102500000Y-80500000D03*
%TD*%
D29*
%TO.N,GND*%
X97960000Y-95710000D02*
X99000000Y-96750000D01*
X79050000Y-97000000D02*
X83180000Y-92870000D01*
X134000000Y-95000000D02*
X134700000Y-94300000D01*
X125750000Y-99500000D02*
X128700000Y-99500000D01*
X134700000Y-82952894D02*
X134457106Y-82710000D01*
X121155000Y-94302767D02*
X115707767Y-99750000D01*
X120325000Y-108425000D02*
X122500000Y-106250000D01*
X123337767Y-102280000D02*
X125750000Y-99867767D01*
X95420000Y-83582500D02*
X95420000Y-84000000D01*
X121155000Y-90250000D02*
X121155000Y-94302767D01*
X91587500Y-79750000D02*
X92687500Y-80850000D01*
X83180000Y-92870000D02*
X90857767Y-92870000D01*
X135250000Y-99000000D02*
X135000000Y-98750000D01*
X125175000Y-98925000D02*
X125175000Y-94270000D01*
X134457106Y-82710000D02*
X133750000Y-82710000D01*
X105487500Y-77850000D02*
X107387500Y-79750000D01*
X125750000Y-99500000D02*
X125175000Y-98925000D01*
X116490000Y-102280000D02*
X123337767Y-102280000D01*
X125750000Y-99867767D02*
X125750000Y-99500000D01*
X91630000Y-92097767D02*
X91630000Y-87790000D01*
X125175000Y-94270000D02*
X121155000Y-90250000D01*
X96837500Y-79500000D02*
X98487500Y-77850000D01*
X135000000Y-98750000D02*
X134000000Y-98750000D01*
X97960000Y-91620000D02*
X97960000Y-94000000D01*
X115200000Y-103570000D02*
X116490000Y-102280000D01*
X135250000Y-110500000D02*
X135250000Y-99000000D01*
X98487500Y-77850000D02*
X105487500Y-77850000D01*
X107387500Y-79750000D02*
X110787500Y-79750000D01*
X79960000Y-105750000D02*
X79960000Y-97910000D01*
X90857767Y-92870000D02*
X91630000Y-92097767D01*
X91630000Y-87790000D02*
X95420000Y-84000000D01*
X92687500Y-80850000D02*
X95487500Y-80850000D01*
X109130000Y-99750000D02*
X103380000Y-94000000D01*
X95487500Y-80850000D02*
X96837500Y-79500000D01*
X115707767Y-99750000D02*
X109130000Y-99750000D01*
X120325000Y-110500000D02*
X120325000Y-108425000D01*
X79960000Y-97910000D02*
X79050000Y-97000000D01*
X96837500Y-82582500D02*
X95420000Y-84000000D01*
X97960000Y-94000000D02*
X97960000Y-95710000D01*
X134700000Y-94300000D02*
X134700000Y-82952894D01*
X96837500Y-79500000D02*
X96837500Y-82582500D01*
X91587500Y-79750000D02*
X95420000Y-83582500D01*
X103380000Y-94000000D02*
X97960000Y-94000000D01*
D30*
%TO.N,Net-(C2-Pad1)*%
X82000000Y-97000000D02*
X84787500Y-97000000D01*
X84787500Y-97000000D02*
X85037500Y-96750000D01*
D29*
%TO.N,VDD*%
X109045000Y-102950000D02*
X109200000Y-102950000D01*
X124980000Y-104820000D02*
X125800000Y-104000000D01*
X109200000Y-102950000D02*
X116750000Y-110500000D01*
X132730000Y-100020000D02*
X134000000Y-100020000D01*
X122430000Y-104820000D02*
X124980000Y-104820000D01*
X125800000Y-102050000D02*
X125500000Y-101750000D01*
X125800000Y-104000000D02*
X125800000Y-102050000D01*
X128750000Y-104000000D02*
X124700000Y-108050000D01*
X103380000Y-96500000D02*
X109045000Y-102165000D01*
X125103122Y-111600000D02*
X127575000Y-111600000D01*
X127575000Y-111600000D02*
X128675000Y-110500000D01*
X124700000Y-108050000D02*
X124700000Y-111196878D01*
X109045000Y-102165000D02*
X109045000Y-102950000D01*
X116750000Y-110500000D02*
X122430000Y-104820000D01*
X128750000Y-104000000D02*
X132730000Y-100020000D01*
X125800000Y-104000000D02*
X128750000Y-104000000D01*
X124700000Y-111196878D02*
X125103122Y-111600000D01*
%TO.N,MIC_POS*%
X126625000Y-109350000D02*
X129350000Y-109350000D01*
X129637500Y-111246878D02*
X127634378Y-113250000D01*
X129637500Y-109753122D02*
X129637500Y-111246878D01*
X129234378Y-109350000D02*
X129637500Y-109753122D01*
X125725000Y-110250000D02*
X126625000Y-109350000D01*
X90000000Y-113250000D02*
X82500000Y-105750000D01*
X133425000Y-110500000D02*
X130500000Y-110500000D01*
X127634378Y-113250000D02*
X90000000Y-113250000D01*
X126625000Y-109350000D02*
X129234378Y-109350000D01*
X129350000Y-109350000D02*
X130500000Y-110500000D01*
D31*
%TO.N,Net-(IC1-VCC)*%
X98238972Y-77250000D02*
X108000000Y-77250000D01*
X109250000Y-78500000D02*
X109500000Y-78750000D01*
X96137500Y-77250000D02*
X98238972Y-77250000D01*
X112750000Y-81750000D02*
X114250000Y-83250000D01*
X115200000Y-85395000D02*
X117345000Y-83250000D01*
X115200000Y-95950000D02*
X115200000Y-85395000D01*
X93887500Y-79500000D02*
X96137500Y-77250000D01*
X114250000Y-83250000D02*
X117345000Y-83250000D01*
X108000000Y-77250000D02*
X109250000Y-78500000D01*
X112500000Y-81750000D02*
X112750000Y-81750000D01*
%TO.N,Net-(IC1-IO2)*%
X118615000Y-83250000D02*
X118615000Y-84050000D01*
X119885000Y-85320000D02*
X119885000Y-90250000D01*
X118615000Y-84050000D02*
X119885000Y-85320000D01*
%TO.N,Net-(IC1-IO0)*%
X121155000Y-83250000D02*
X121155000Y-82420000D01*
X81750000Y-79750000D02*
X84750000Y-76750000D01*
X84750000Y-76750000D02*
X110712500Y-76750000D01*
X121155000Y-82420000D02*
X118485000Y-79750000D01*
X110712500Y-76750000D02*
X113712500Y-79750000D01*
X118485000Y-79750000D02*
X113712500Y-79750000D01*
%TO.N,Net-(IC1-CLK)*%
X104462500Y-79750000D02*
X103162500Y-78450000D01*
X105687500Y-80975000D02*
X104462500Y-79750000D01*
X118440000Y-80975000D02*
X105687500Y-80975000D01*
X119885000Y-82420000D02*
X118440000Y-80975000D01*
X119885000Y-83250000D02*
X119885000Y-82420000D01*
X103162500Y-78450000D02*
X100062500Y-78450000D01*
X100062500Y-78450000D02*
X99012500Y-79500000D01*
%TO.N,Net-(IC1-CS)*%
X116350000Y-97100000D02*
X114050000Y-97100000D01*
X114700000Y-90250000D02*
X112950000Y-88500000D01*
X87875000Y-81875000D02*
X87875000Y-80537500D01*
X112950000Y-88500000D02*
X92750000Y-88500000D01*
X114050000Y-94800000D02*
X114700000Y-94150000D01*
X116350000Y-91245000D02*
X116350000Y-97100000D01*
X114700000Y-94150000D02*
X114700000Y-90250000D01*
X117345000Y-90250000D02*
X116350000Y-91245000D01*
X87875000Y-80537500D02*
X88662500Y-79750000D01*
X88662500Y-79750000D02*
X86087500Y-79750000D01*
X114050000Y-97100000D02*
X114050000Y-94800000D01*
%TO.N,MISO*%
X117305000Y-92500000D02*
X117250000Y-92445000D01*
X117250000Y-92445000D02*
X117250000Y-93250000D01*
X118500000Y-92500000D02*
X117305000Y-92500000D01*
X105580000Y-84000000D02*
X106000000Y-84000000D01*
X118615000Y-91080000D02*
X117250000Y-92445000D01*
X118615000Y-90250000D02*
X118615000Y-91080000D01*
%TO.N,Net-(J3-Pin_8)*%
X128390000Y-95690000D02*
X133750000Y-90330000D01*
X128000000Y-95690000D02*
X128390000Y-95690000D01*
%TO.N,Net-(J3-Pin_3)*%
X130960000Y-81190000D02*
X133750000Y-83980000D01*
X128000000Y-81190000D02*
X130960000Y-81190000D01*
%TO.N,Net-(J3-Pin_5)*%
X128162500Y-84690000D02*
X131920000Y-84690000D01*
X131920000Y-84690000D02*
X133750000Y-86520000D01*
%TO.N,Net-(J3-Pin_6)*%
X127912500Y-91940000D02*
X129600000Y-91940000D01*
X129600000Y-91940000D02*
X133750000Y-87790000D01*
%TO.N,Net-(J3-Pin_4)*%
X127300000Y-83984544D02*
X127644544Y-83640000D01*
X132140000Y-83640000D02*
X133750000Y-85250000D01*
X127300000Y-87490000D02*
X127300000Y-83984544D01*
X127644544Y-83640000D02*
X132140000Y-83640000D01*
X128000000Y-88190000D02*
X127300000Y-87490000D01*
D30*
%TO.N,Net-(R1-Pad2)*%
X87962500Y-96750000D02*
X87962500Y-100862500D01*
X87962500Y-100862500D02*
X86325000Y-102500000D01*
D31*
%TO.N,Net-(U1-PB1)*%
X123235000Y-78250000D02*
X116750000Y-78250000D01*
X126175000Y-81190000D02*
X123235000Y-78250000D01*
D30*
%TO.N,Net-(U1-PB0)*%
X126175000Y-88190000D02*
X124690000Y-88190000D01*
X124690000Y-88190000D02*
X124500000Y-88000000D01*
D31*
%TO.N,Net-(U1-PB2)*%
X123810000Y-84690000D02*
X122500000Y-86000000D01*
X126337500Y-84690000D02*
X123810000Y-84690000D01*
%TO.N,MOSI*%
X79925000Y-79750000D02*
X82175000Y-82000000D01*
X126087500Y-90837500D02*
X122500000Y-87250000D01*
X126087500Y-91940000D02*
X126087500Y-90837500D01*
X82175000Y-82000000D02*
X84750000Y-82000000D01*
%TO.N,CLK*%
X126175000Y-94421472D02*
X121850000Y-90096472D01*
X126175000Y-95690000D02*
X126175000Y-94421472D01*
X119000000Y-79000000D02*
X118750000Y-79000000D01*
X121850000Y-90096472D02*
X121850000Y-81850000D01*
X100837500Y-79500000D02*
X101500000Y-79500000D01*
X121850000Y-81850000D02*
X119000000Y-79000000D01*
X100837500Y-81797500D02*
X103040000Y-84000000D01*
X100837500Y-79500000D02*
X100837500Y-81797500D01*
X101500000Y-79500000D02*
X102500000Y-80500000D01*
%TO.N,SS*%
X86650000Y-82137500D02*
X84262500Y-79750000D01*
X87800000Y-91620000D02*
X86650000Y-90470000D01*
X86650000Y-90470000D02*
X86650000Y-82137500D01*
%TO.N,/op1*%
X94800000Y-103800000D02*
X100575000Y-103800000D01*
X95850000Y-102750000D02*
X96175000Y-102750000D01*
X100575000Y-103800000D02*
X101425000Y-102950000D01*
D30*
X91380000Y-96750000D02*
X91380000Y-97955000D01*
D31*
X93750000Y-102750000D02*
X94800000Y-103800000D01*
D30*
X91380000Y-97955000D02*
X96175000Y-102750000D01*
D31*
X94800000Y-103800000D02*
X95850000Y-102750000D01*
X93750000Y-102750000D02*
X89250000Y-107250000D01*
%TO.N,/op2*%
X91600000Y-102500000D02*
X91850000Y-102750000D01*
X88337500Y-106262500D02*
X91850000Y-102750000D01*
X101425000Y-105490000D02*
X98440000Y-108475000D01*
X86325000Y-107250000D02*
X86325000Y-105425000D01*
X98440000Y-108475000D02*
X88682044Y-108475000D01*
X86325000Y-105425000D02*
X89250000Y-102500000D01*
X88682044Y-108475000D02*
X88337500Y-108130456D01*
X89250000Y-102500000D02*
X91600000Y-102500000D01*
X88337500Y-108130456D02*
X88337500Y-106262500D01*
%TO.N,/divider*%
X105645000Y-112250000D02*
X113350000Y-112250000D01*
X121700000Y-111325000D02*
X122775000Y-110250000D01*
X115925000Y-111325000D02*
X115100000Y-110500000D01*
X118675000Y-110500000D02*
X117850000Y-111325000D01*
X118675000Y-110500000D02*
X119500000Y-111325000D01*
X113350000Y-112250000D02*
X115100000Y-110500000D01*
X101425000Y-108030000D02*
X105645000Y-112250000D01*
X117850000Y-111325000D02*
X115925000Y-111325000D01*
X119500000Y-111325000D02*
X121700000Y-111325000D01*
%TD*%
%TA.AperFunction,Conductor*%
%TO.N,GND*%
G36*
X88887491Y-103875500D02*
G01*
X89505191Y-103875499D01*
X89572230Y-103895183D01*
X89617985Y-103947987D01*
X89627929Y-104017146D01*
X89598904Y-104080702D01*
X89592872Y-104087180D01*
X87832224Y-105847828D01*
X87794244Y-105904669D01*
X87794245Y-105904670D01*
X87761034Y-105954374D01*
X87711999Y-106072755D01*
X87711997Y-106072761D01*
X87687000Y-106198428D01*
X87687000Y-106198431D01*
X87687000Y-108194525D01*
X87690308Y-108211153D01*
X87690310Y-108211163D01*
X87690309Y-108211163D01*
X87711997Y-108320192D01*
X87711999Y-108320200D01*
X87761034Y-108438581D01*
X87832226Y-108545129D01*
X88267372Y-108980275D01*
X88267375Y-108980277D01*
X88343983Y-109031464D01*
X88373917Y-109051465D01*
X88492300Y-109100501D01*
X88492304Y-109100501D01*
X88492305Y-109100502D01*
X88617972Y-109125500D01*
X88617975Y-109125500D01*
X98504071Y-109125500D01*
X98588615Y-109108682D01*
X98629744Y-109100501D01*
X98748127Y-109051465D01*
X98778061Y-109031464D01*
X98854669Y-108980277D01*
X99550633Y-108284312D01*
X99611954Y-108250829D01*
X99681645Y-108255813D01*
X99737579Y-108297684D01*
X99756243Y-108333676D01*
X99819781Y-108529223D01*
X99863487Y-108614999D01*
X99910323Y-108706920D01*
X99912715Y-108711613D01*
X100033028Y-108877213D01*
X100177786Y-109021971D01*
X100285877Y-109100502D01*
X100343390Y-109142287D01*
X100408617Y-109175522D01*
X100436629Y-109189795D01*
X100487425Y-109237770D01*
X100504220Y-109305591D01*
X100481682Y-109371726D01*
X100436629Y-109410765D01*
X100343650Y-109458140D01*
X100178105Y-109578417D01*
X100178104Y-109578417D01*
X100033417Y-109723104D01*
X100033417Y-109723105D01*
X99913140Y-109888650D01*
X99820244Y-110070970D01*
X99757009Y-110265586D01*
X99748391Y-110320000D01*
X101109314Y-110320000D01*
X101104920Y-110324394D01*
X101052259Y-110415606D01*
X101025000Y-110517339D01*
X101025000Y-110622661D01*
X101052259Y-110724394D01*
X101104920Y-110815606D01*
X101109314Y-110820000D01*
X99748391Y-110820000D01*
X99757009Y-110874413D01*
X99820244Y-111069029D01*
X99913140Y-111251349D01*
X100033417Y-111416894D01*
X100033417Y-111416895D01*
X100178104Y-111561582D01*
X100343650Y-111681859D01*
X100525968Y-111774755D01*
X100720582Y-111837990D01*
X100922683Y-111870000D01*
X101175000Y-111870000D01*
X101175000Y-110885686D01*
X101179394Y-110890080D01*
X101270606Y-110942741D01*
X101372339Y-110970000D01*
X101477661Y-110970000D01*
X101579394Y-110942741D01*
X101670606Y-110890080D01*
X101675000Y-110885686D01*
X101675000Y-111870000D01*
X101927317Y-111870000D01*
X102129417Y-111837990D01*
X102324031Y-111774755D01*
X102506349Y-111681859D01*
X102671894Y-111561582D01*
X102671895Y-111561582D01*
X102816582Y-111416895D01*
X102816582Y-111416894D01*
X102936859Y-111251349D01*
X103029755Y-111069029D01*
X103093359Y-110873280D01*
X103132797Y-110815604D01*
X103197155Y-110788406D01*
X103266002Y-110800321D01*
X103298971Y-110823917D01*
X104762873Y-112287819D01*
X104796358Y-112349142D01*
X104791374Y-112418834D01*
X104749502Y-112474767D01*
X104684038Y-112499184D01*
X104675192Y-112499500D01*
X90362230Y-112499500D01*
X90295191Y-112479815D01*
X90274549Y-112463181D01*
X86644617Y-108833249D01*
X86611132Y-108771926D01*
X86616116Y-108702234D01*
X86657988Y-108646301D01*
X86719695Y-108622211D01*
X86790297Y-108614999D01*
X86956834Y-108559814D01*
X87106156Y-108467712D01*
X87230212Y-108343656D01*
X87322314Y-108194334D01*
X87377499Y-108027797D01*
X87388000Y-107925009D01*
X87387999Y-106574992D01*
X87377499Y-106472203D01*
X87322314Y-106305666D01*
X87230212Y-106156344D01*
X87106156Y-106032288D01*
X87106155Y-106032287D01*
X87034402Y-105988029D01*
X86987678Y-105936081D01*
X86975500Y-105882491D01*
X86975500Y-105745807D01*
X86995185Y-105678768D01*
X87011814Y-105658131D01*
X88761406Y-103908538D01*
X88822727Y-103875055D01*
X88861690Y-103872864D01*
X88887491Y-103875500D01*
G37*
%TD.AperFunction*%
%TA.AperFunction,Conductor*%
G36*
X126055809Y-105420184D02*
G01*
X126101564Y-105472988D01*
X126111508Y-105542146D01*
X126082483Y-105605702D01*
X126076451Y-105612180D01*
X124117045Y-107571586D01*
X124104608Y-107590202D01*
X124087818Y-107615331D01*
X124065944Y-107648068D01*
X124034914Y-107694507D01*
X123978343Y-107831082D01*
X123978340Y-107831092D01*
X123949500Y-107976079D01*
X123949500Y-109110425D01*
X123929815Y-109177464D01*
X123877011Y-109223219D01*
X123807853Y-109233163D01*
X123744297Y-109204138D01*
X123719962Y-109175522D01*
X123692714Y-109131347D01*
X123692711Y-109131343D01*
X123568657Y-109007289D01*
X123568656Y-109007288D01*
X123419334Y-108915186D01*
X123252797Y-108860001D01*
X123252795Y-108860000D01*
X123150010Y-108849500D01*
X122399998Y-108849500D01*
X122399980Y-108849501D01*
X122297203Y-108860000D01*
X122297200Y-108860001D01*
X122130668Y-108915185D01*
X122130663Y-108915187D01*
X121981342Y-109007289D01*
X121857289Y-109131342D01*
X121765187Y-109280663D01*
X121765185Y-109280668D01*
X121747781Y-109333190D01*
X121710001Y-109447203D01*
X121710001Y-109447204D01*
X121710000Y-109447204D01*
X121699500Y-109549983D01*
X121699500Y-110354191D01*
X121679815Y-110421230D01*
X121663181Y-110441872D01*
X121466873Y-110638181D01*
X121405550Y-110671666D01*
X121379192Y-110674500D01*
X120449000Y-110674500D01*
X120381961Y-110654815D01*
X120336206Y-110602011D01*
X120325000Y-110550500D01*
X120325000Y-110500000D01*
X120199000Y-110500000D01*
X120131961Y-110480315D01*
X120086206Y-110427511D01*
X120075000Y-110376000D01*
X120075000Y-110250000D01*
X120575000Y-110250000D01*
X121224999Y-110250000D01*
X121224999Y-110168417D01*
X121218591Y-110097897D01*
X121218590Y-110097892D01*
X121168018Y-109935603D01*
X121080072Y-109790122D01*
X120959877Y-109669927D01*
X120814395Y-109581980D01*
X120814396Y-109581980D01*
X120652105Y-109531409D01*
X120652106Y-109531409D01*
X120581572Y-109525000D01*
X120575000Y-109525000D01*
X120575000Y-110250000D01*
X120075000Y-110250000D01*
X120075000Y-109525000D01*
X120074999Y-109524999D01*
X120068436Y-109525000D01*
X120068417Y-109525001D01*
X119997897Y-109531408D01*
X119997892Y-109531409D01*
X119835603Y-109581981D01*
X119690122Y-109669927D01*
X119690121Y-109669928D01*
X119588035Y-109772015D01*
X119526712Y-109805500D01*
X119457020Y-109800516D01*
X119412673Y-109772015D01*
X119310188Y-109669530D01*
X119164606Y-109581522D01*
X119159096Y-109579805D01*
X119028966Y-109539255D01*
X118970820Y-109500519D01*
X118942846Y-109436494D01*
X118953927Y-109367509D01*
X118978174Y-109333193D01*
X122704549Y-105606819D01*
X122765872Y-105573334D01*
X122792230Y-105570500D01*
X125053920Y-105570500D01*
X125151462Y-105551096D01*
X125198913Y-105541658D01*
X125335495Y-105485084D01*
X125384729Y-105452186D01*
X125430811Y-105421395D01*
X125497489Y-105400519D01*
X125499701Y-105400499D01*
X125988770Y-105400499D01*
X126055809Y-105420184D01*
G37*
%TD.AperFunction*%
%TA.AperFunction,Conductor*%
G36*
X77278051Y-76020185D02*
G01*
X77323806Y-76072989D01*
X77333750Y-76142147D01*
X77304725Y-76205703D01*
X77282135Y-76226075D01*
X77193121Y-76288402D01*
X77038402Y-76443121D01*
X76912900Y-76622357D01*
X76912898Y-76622361D01*
X76820426Y-76820668D01*
X76820422Y-76820677D01*
X76763793Y-77032020D01*
X76763793Y-77032024D01*
X76748028Y-77212221D01*
X76733800Y-77248593D01*
X76743477Y-77263650D01*
X76748028Y-77287778D01*
X76750905Y-77320668D01*
X76763500Y-77464633D01*
X76763793Y-77467975D01*
X76763793Y-77467979D01*
X76820422Y-77679322D01*
X76820424Y-77679326D01*
X76820425Y-77679330D01*
X76850918Y-77744723D01*
X76912897Y-77877638D01*
X76912898Y-77877639D01*
X77038402Y-78056877D01*
X77193123Y-78211598D01*
X77372361Y-78337102D01*
X77570670Y-78429575D01*
X77782023Y-78486207D01*
X77964926Y-78502208D01*
X77999998Y-78505277D01*
X78000000Y-78505277D01*
X78000002Y-78505277D01*
X78028254Y-78502805D01*
X78217977Y-78486207D01*
X78429330Y-78429575D01*
X78627639Y-78337102D01*
X78806877Y-78211598D01*
X78961598Y-78056877D01*
X79087102Y-77877639D01*
X79179575Y-77679330D01*
X79236207Y-77467977D01*
X79255277Y-77250000D01*
X79236207Y-77032023D01*
X79179575Y-76820670D01*
X79087102Y-76622362D01*
X79087100Y-76622359D01*
X79087099Y-76622357D01*
X78961599Y-76443124D01*
X78961596Y-76443121D01*
X78806877Y-76288402D01*
X78744503Y-76244727D01*
X78717864Y-76226074D01*
X78674239Y-76171497D01*
X78667047Y-76101999D01*
X78698569Y-76039644D01*
X78758799Y-76004231D01*
X78788988Y-76000500D01*
X84292064Y-76000500D01*
X84359103Y-76020185D01*
X84404858Y-76072989D01*
X84414802Y-76142147D01*
X84385777Y-76205703D01*
X84360955Y-76227602D01*
X84335328Y-76244724D01*
X82066871Y-78513181D01*
X82005548Y-78546666D01*
X81979190Y-78549500D01*
X81437498Y-78549500D01*
X81437480Y-78549501D01*
X81334703Y-78560000D01*
X81334700Y-78560001D01*
X81168168Y-78615185D01*
X81168163Y-78615187D01*
X81018842Y-78707289D01*
X80925181Y-78800951D01*
X80863858Y-78834436D01*
X80794166Y-78829452D01*
X80749819Y-78800951D01*
X80656157Y-78707289D01*
X80656156Y-78707288D01*
X80506834Y-78615186D01*
X80340297Y-78560001D01*
X80340295Y-78560000D01*
X80237510Y-78549500D01*
X79612498Y-78549500D01*
X79612480Y-78549501D01*
X79509703Y-78560000D01*
X79509700Y-78560001D01*
X79343168Y-78615185D01*
X79343163Y-78615187D01*
X79193842Y-78707289D01*
X79069789Y-78831342D01*
X78977687Y-78980663D01*
X78977685Y-78980668D01*
X78954427Y-79050858D01*
X78922501Y-79147203D01*
X78922501Y-79147204D01*
X78922500Y-79147204D01*
X78912000Y-79249983D01*
X78912000Y-80250001D01*
X78912001Y-80250019D01*
X78922500Y-80352796D01*
X78922501Y-80352799D01*
X78977685Y-80519331D01*
X78977687Y-80519336D01*
X78998970Y-80553841D01*
X79069788Y-80668656D01*
X79193844Y-80792712D01*
X79343166Y-80884814D01*
X79509703Y-80939999D01*
X79612491Y-80950500D01*
X80154191Y-80950499D01*
X80221230Y-80970183D01*
X80241872Y-80986818D01*
X81760325Y-82505272D01*
X81760332Y-82505278D01*
X81866863Y-82576459D01*
X81866867Y-82576461D01*
X81866874Y-82576466D01*
X81925596Y-82600789D01*
X81925597Y-82600789D01*
X81925598Y-82600790D01*
X81963038Y-82616298D01*
X81985256Y-82625501D01*
X82022407Y-82632891D01*
X82037895Y-82635972D01*
X82099806Y-82668357D01*
X82134380Y-82729072D01*
X82130641Y-82798842D01*
X82089774Y-82855514D01*
X82071819Y-82866485D01*
X82071957Y-82866724D01*
X82067265Y-82869432D01*
X81880858Y-82999954D01*
X81719954Y-83160858D01*
X81589432Y-83347265D01*
X81589431Y-83347267D01*
X81562382Y-83405275D01*
X81516209Y-83457714D01*
X81449016Y-83476866D01*
X81382135Y-83456650D01*
X81337618Y-83405275D01*
X81310686Y-83347520D01*
X81310568Y-83347266D01*
X81180047Y-83160861D01*
X81180045Y-83160858D01*
X81019141Y-82999954D01*
X80832734Y-82869432D01*
X80832732Y-82869431D01*
X80626497Y-82773261D01*
X80626488Y-82773258D01*
X80406697Y-82714366D01*
X80406693Y-82714365D01*
X80406692Y-82714365D01*
X80406691Y-82714364D01*
X80406686Y-82714364D01*
X80180002Y-82694532D01*
X80179998Y-82694532D01*
X79953313Y-82714364D01*
X79953302Y-82714366D01*
X79733511Y-82773258D01*
X79733502Y-82773261D01*
X79527267Y-82869431D01*
X79527265Y-82869432D01*
X79340858Y-82999954D01*
X79179954Y-83160858D01*
X79049432Y-83347265D01*
X79049431Y-83347267D01*
X78953261Y-83553502D01*
X78953258Y-83553511D01*
X78894366Y-83773302D01*
X78894364Y-83773313D01*
X78874532Y-83999998D01*
X78874532Y-84000001D01*
X78894364Y-84226686D01*
X78894366Y-84226697D01*
X78953258Y-84446488D01*
X78953261Y-84446497D01*
X79049431Y-84652732D01*
X79049432Y-84652734D01*
X79179954Y-84839141D01*
X79340858Y-85000045D01*
X79340861Y-85000047D01*
X79527266Y-85130568D01*
X79733504Y-85226739D01*
X79953308Y-85285635D01*
X80115230Y-85299801D01*
X80179998Y-85305468D01*
X80180000Y-85305468D01*
X80180002Y-85305468D01*
X80236673Y-85300509D01*
X80406692Y-85285635D01*
X80626496Y-85226739D01*
X80832734Y-85130568D01*
X81019139Y-85000047D01*
X81180047Y-84839139D01*
X81310568Y-84652734D01*
X81337618Y-84594724D01*
X81383790Y-84542285D01*
X81450983Y-84523133D01*
X81517865Y-84543348D01*
X81562382Y-84594725D01*
X81589429Y-84652728D01*
X81589432Y-84652734D01*
X81719954Y-84839141D01*
X81880858Y-85000045D01*
X81880861Y-85000047D01*
X82067266Y-85130568D01*
X82273504Y-85226739D01*
X82493308Y-85285635D01*
X82655230Y-85299801D01*
X82719998Y-85305468D01*
X82720000Y-85305468D01*
X82720002Y-85305468D01*
X82776673Y-85300509D01*
X82946692Y-85285635D01*
X83166496Y-85226739D01*
X83372734Y-85130568D01*
X83559139Y-85000047D01*
X83720047Y-84839139D01*
X83850568Y-84652734D01*
X83877618Y-84594724D01*
X83923790Y-84542285D01*
X83990983Y-84523133D01*
X84057865Y-84543348D01*
X84102382Y-84594725D01*
X84129429Y-84652728D01*
X84129432Y-84652734D01*
X84259954Y-84839141D01*
X84420858Y-85000045D01*
X84420861Y-85000047D01*
X84607266Y-85130568D01*
X84813504Y-85226739D01*
X85033308Y-85285635D01*
X85195230Y-85299801D01*
X85259998Y-85305468D01*
X85260000Y-85305468D01*
X85260002Y-85305468D01*
X85316673Y-85300509D01*
X85486692Y-85285635D01*
X85706496Y-85226739D01*
X85823097Y-85172366D01*
X85892172Y-85161875D01*
X85955956Y-85190394D01*
X85994196Y-85248871D01*
X85999500Y-85284749D01*
X85999500Y-90335250D01*
X85979815Y-90402289D01*
X85927011Y-90448044D01*
X85857853Y-90457988D01*
X85823095Y-90447632D01*
X85759589Y-90418019D01*
X85706496Y-90393261D01*
X85706492Y-90393260D01*
X85706488Y-90393258D01*
X85486697Y-90334366D01*
X85486693Y-90334365D01*
X85486692Y-90334365D01*
X85486691Y-90334364D01*
X85486686Y-90334364D01*
X85260002Y-90314532D01*
X85259998Y-90314532D01*
X85033313Y-90334364D01*
X85033302Y-90334366D01*
X84813511Y-90393258D01*
X84813502Y-90393261D01*
X84607267Y-90489431D01*
X84607265Y-90489432D01*
X84420858Y-90619954D01*
X84259954Y-90780858D01*
X84129432Y-90967265D01*
X84129431Y-90967267D01*
X84102382Y-91025275D01*
X84056209Y-91077714D01*
X83989016Y-91096866D01*
X83922135Y-91076650D01*
X83877618Y-91025275D01*
X83870196Y-91009359D01*
X83850568Y-90967266D01*
X83720047Y-90780861D01*
X83720045Y-90780858D01*
X83559141Y-90619954D01*
X83372734Y-90489432D01*
X83372732Y-90489431D01*
X83166497Y-90393261D01*
X83166488Y-90393258D01*
X82946697Y-90334366D01*
X82946693Y-90334365D01*
X82946692Y-90334365D01*
X82946691Y-90334364D01*
X82946686Y-90334364D01*
X82720002Y-90314532D01*
X82719998Y-90314532D01*
X82493313Y-90334364D01*
X82493302Y-90334366D01*
X82273511Y-90393258D01*
X82273502Y-90393261D01*
X82067267Y-90489431D01*
X82067265Y-90489432D01*
X81880858Y-90619954D01*
X81719954Y-90780858D01*
X81702725Y-90805464D01*
X81648147Y-90849088D01*
X81578648Y-90856280D01*
X81516294Y-90824757D01*
X81480882Y-90764526D01*
X81477861Y-90747591D01*
X81476991Y-90739501D01*
X81474091Y-90712517D01*
X81449936Y-90647755D01*
X81423797Y-90577671D01*
X81423793Y-90577664D01*
X81337547Y-90462455D01*
X81337544Y-90462452D01*
X81222335Y-90376206D01*
X81222328Y-90376202D01*
X81087482Y-90325908D01*
X81087483Y-90325908D01*
X81027883Y-90319501D01*
X81027881Y-90319500D01*
X81027873Y-90319500D01*
X81027864Y-90319500D01*
X79332129Y-90319500D01*
X79332123Y-90319501D01*
X79272516Y-90325908D01*
X79137671Y-90376202D01*
X79137664Y-90376206D01*
X79022455Y-90462452D01*
X79022452Y-90462455D01*
X78936206Y-90577664D01*
X78936202Y-90577671D01*
X78885908Y-90712517D01*
X78879501Y-90772116D01*
X78879500Y-90772135D01*
X78879500Y-92467870D01*
X78879501Y-92467876D01*
X78885908Y-92527483D01*
X78936202Y-92662328D01*
X78936206Y-92662335D01*
X79022452Y-92777544D01*
X79022455Y-92777547D01*
X79137664Y-92863793D01*
X79137671Y-92863797D01*
X79272517Y-92914091D01*
X79272516Y-92914091D01*
X79279444Y-92914835D01*
X79332127Y-92920500D01*
X81027872Y-92920499D01*
X81087483Y-92914091D01*
X81222331Y-92863796D01*
X81337546Y-92777546D01*
X81423796Y-92662331D01*
X81474091Y-92527483D01*
X81477862Y-92492401D01*
X81504599Y-92427855D01*
X81561990Y-92388006D01*
X81631816Y-92385511D01*
X81691905Y-92421163D01*
X81702726Y-92434536D01*
X81719956Y-92459143D01*
X81880858Y-92620045D01*
X81880861Y-92620047D01*
X82067266Y-92750568D01*
X82273504Y-92846739D01*
X82273509Y-92846740D01*
X82273511Y-92846741D01*
X82317979Y-92858656D01*
X82493308Y-92905635D01*
X82655230Y-92919801D01*
X82719998Y-92925468D01*
X82720000Y-92925468D01*
X82720002Y-92925468D01*
X82776807Y-92920498D01*
X82946692Y-92905635D01*
X83166496Y-92846739D01*
X83372734Y-92750568D01*
X83559139Y-92620047D01*
X83720047Y-92459139D01*
X83850568Y-92272734D01*
X83877618Y-92214724D01*
X83923790Y-92162285D01*
X83990983Y-92143133D01*
X84057865Y-92163348D01*
X84102382Y-92214725D01*
X84129429Y-92272728D01*
X84129432Y-92272734D01*
X84259954Y-92459141D01*
X84420858Y-92620045D01*
X84420861Y-92620047D01*
X84607266Y-92750568D01*
X84813504Y-92846739D01*
X84813509Y-92846740D01*
X84813511Y-92846741D01*
X84857979Y-92858656D01*
X85033308Y-92905635D01*
X85195230Y-92919801D01*
X85259998Y-92925468D01*
X85260000Y-92925468D01*
X85260002Y-92925468D01*
X85316807Y-92920498D01*
X85486692Y-92905635D01*
X85706496Y-92846739D01*
X85912734Y-92750568D01*
X86099139Y-92620047D01*
X86260047Y-92459139D01*
X86390568Y-92272734D01*
X86417618Y-92214724D01*
X86463790Y-92162285D01*
X86530983Y-92143133D01*
X86597865Y-92163348D01*
X86642382Y-92214725D01*
X86669429Y-92272728D01*
X86669432Y-92272734D01*
X86799954Y-92459141D01*
X86960858Y-92620045D01*
X86960861Y-92620047D01*
X87147266Y-92750568D01*
X87353504Y-92846739D01*
X87353509Y-92846740D01*
X87353511Y-92846741D01*
X87397979Y-92858656D01*
X87573308Y-92905635D01*
X87735230Y-92919801D01*
X87799998Y-92925468D01*
X87800000Y-92925468D01*
X87800002Y-92925468D01*
X87856807Y-92920498D01*
X88026692Y-92905635D01*
X88246496Y-92846739D01*
X88452734Y-92750568D01*
X88639139Y-92620047D01*
X88800047Y-92459139D01*
X88930568Y-92272734D01*
X88957618Y-92214724D01*
X89003790Y-92162285D01*
X89070983Y-92143133D01*
X89137865Y-92163348D01*
X89182382Y-92214725D01*
X89209429Y-92272728D01*
X89209432Y-92272734D01*
X89339954Y-92459141D01*
X89500858Y-92620045D01*
X89500861Y-92620047D01*
X89687266Y-92750568D01*
X89893504Y-92846739D01*
X89893509Y-92846740D01*
X89893511Y-92846741D01*
X89937979Y-92858656D01*
X90113308Y-92905635D01*
X90275230Y-92919801D01*
X90339998Y-92925468D01*
X90340000Y-92925468D01*
X90340002Y-92925468D01*
X90396807Y-92920498D01*
X90566692Y-92905635D01*
X90786496Y-92846739D01*
X90992734Y-92750568D01*
X91179139Y-92620047D01*
X91340047Y-92459139D01*
X91470568Y-92272734D01*
X91497618Y-92214724D01*
X91543790Y-92162285D01*
X91610983Y-92143133D01*
X91677865Y-92163348D01*
X91722382Y-92214725D01*
X91749429Y-92272728D01*
X91749432Y-92272734D01*
X91879954Y-92459141D01*
X92040858Y-92620045D01*
X92040861Y-92620047D01*
X92227266Y-92750568D01*
X92433504Y-92846739D01*
X92433509Y-92846740D01*
X92433511Y-92846741D01*
X92477979Y-92858656D01*
X92653308Y-92905635D01*
X92815230Y-92919801D01*
X92879998Y-92925468D01*
X92880000Y-92925468D01*
X92880002Y-92925468D01*
X92936807Y-92920498D01*
X93106692Y-92905635D01*
X93326496Y-92846739D01*
X93532734Y-92750568D01*
X93719139Y-92620047D01*
X93880047Y-92459139D01*
X94010568Y-92272734D01*
X94037618Y-92214724D01*
X94083790Y-92162285D01*
X94150983Y-92143133D01*
X94217865Y-92163348D01*
X94262382Y-92214725D01*
X94289429Y-92272728D01*
X94289432Y-92272734D01*
X94419954Y-92459141D01*
X94580858Y-92620045D01*
X94580861Y-92620047D01*
X94767266Y-92750568D01*
X94973504Y-92846739D01*
X94973509Y-92846740D01*
X94973511Y-92846741D01*
X95017979Y-92858656D01*
X95193308Y-92905635D01*
X95355230Y-92919801D01*
X95419998Y-92925468D01*
X95420000Y-92925468D01*
X95420002Y-92925468D01*
X95476807Y-92920498D01*
X95646692Y-92905635D01*
X95866496Y-92846739D01*
X96072734Y-92750568D01*
X96259139Y-92620047D01*
X96420047Y-92459139D01*
X96550568Y-92272734D01*
X96577895Y-92214129D01*
X96624064Y-92161695D01*
X96691257Y-92142542D01*
X96758139Y-92162757D01*
X96802657Y-92214133D01*
X96829865Y-92272482D01*
X96960342Y-92458820D01*
X97121179Y-92619657D01*
X97307517Y-92750134D01*
X97513673Y-92846265D01*
X97513682Y-92846269D01*
X97709999Y-92898872D01*
X97710000Y-92898871D01*
X97710000Y-91935686D01*
X97714394Y-91940080D01*
X97805606Y-91992741D01*
X97907339Y-92020000D01*
X98012661Y-92020000D01*
X98114394Y-91992741D01*
X98205606Y-91940080D01*
X98210000Y-91935686D01*
X98210000Y-92898872D01*
X98406317Y-92846269D01*
X98406326Y-92846265D01*
X98612482Y-92750134D01*
X98798820Y-92619657D01*
X98959657Y-92458820D01*
X99090132Y-92272484D01*
X99117341Y-92214134D01*
X99163513Y-92161695D01*
X99230707Y-92142542D01*
X99297588Y-92162757D01*
X99342105Y-92214132D01*
X99342382Y-92214725D01*
X99369431Y-92272732D01*
X99369432Y-92272734D01*
X99499954Y-92459141D01*
X99660858Y-92620045D01*
X99660861Y-92620047D01*
X99847266Y-92750568D01*
X100053504Y-92846739D01*
X100053509Y-92846740D01*
X100053511Y-92846741D01*
X100097979Y-92858656D01*
X100273308Y-92905635D01*
X100435230Y-92919801D01*
X100499998Y-92925468D01*
X100500000Y-92925468D01*
X100500002Y-92925468D01*
X100556807Y-92920498D01*
X100726692Y-92905635D01*
X100946496Y-92846739D01*
X101152734Y-92750568D01*
X101339139Y-92620047D01*
X101500047Y-92459139D01*
X101630568Y-92272734D01*
X101657618Y-92214724D01*
X101703790Y-92162285D01*
X101770983Y-92143133D01*
X101837865Y-92163348D01*
X101882382Y-92214725D01*
X101909429Y-92272728D01*
X101909432Y-92272734D01*
X102039954Y-92459141D01*
X102200858Y-92620045D01*
X102200861Y-92620047D01*
X102387266Y-92750568D01*
X102593504Y-92846739D01*
X102593509Y-92846740D01*
X102593511Y-92846741D01*
X102637979Y-92858656D01*
X102813308Y-92905635D01*
X102975230Y-92919801D01*
X103039998Y-92925468D01*
X103040000Y-92925468D01*
X103040002Y-92925468D01*
X103096807Y-92920498D01*
X103266692Y-92905635D01*
X103486496Y-92846739D01*
X103692734Y-92750568D01*
X103879139Y-92620047D01*
X104040047Y-92459139D01*
X104170568Y-92272734D01*
X104197618Y-92214724D01*
X104243790Y-92162285D01*
X104310983Y-92143133D01*
X104377865Y-92163348D01*
X104422382Y-92214725D01*
X104449429Y-92272728D01*
X104449432Y-92272734D01*
X104579954Y-92459141D01*
X104740858Y-92620045D01*
X104740861Y-92620047D01*
X104927266Y-92750568D01*
X105133504Y-92846739D01*
X105133509Y-92846740D01*
X105133511Y-92846741D01*
X105177979Y-92858656D01*
X105353308Y-92905635D01*
X105515230Y-92919801D01*
X105579998Y-92925468D01*
X105580000Y-92925468D01*
X105580002Y-92925468D01*
X105636807Y-92920498D01*
X105806692Y-92905635D01*
X106026496Y-92846739D01*
X106232734Y-92750568D01*
X106419139Y-92620047D01*
X106580047Y-92459139D01*
X106710568Y-92272734D01*
X106737618Y-92214724D01*
X106783790Y-92162285D01*
X106850983Y-92143133D01*
X106917865Y-92163348D01*
X106962382Y-92214725D01*
X106989429Y-92272728D01*
X106989432Y-92272734D01*
X107119954Y-92459141D01*
X107280858Y-92620045D01*
X107280861Y-92620047D01*
X107467266Y-92750568D01*
X107673504Y-92846739D01*
X107673509Y-92846740D01*
X107673511Y-92846741D01*
X107717979Y-92858656D01*
X107893308Y-92905635D01*
X108055230Y-92919801D01*
X108119998Y-92925468D01*
X108120000Y-92925468D01*
X108120002Y-92925468D01*
X108176807Y-92920498D01*
X108346692Y-92905635D01*
X108566496Y-92846739D01*
X108772734Y-92750568D01*
X108959139Y-92620047D01*
X109120047Y-92459139D01*
X109250568Y-92272734D01*
X109277618Y-92214724D01*
X109323790Y-92162285D01*
X109390983Y-92143133D01*
X109457865Y-92163348D01*
X109502382Y-92214725D01*
X109529429Y-92272728D01*
X109529432Y-92272734D01*
X109659954Y-92459141D01*
X109820858Y-92620045D01*
X109820861Y-92620047D01*
X110007266Y-92750568D01*
X110213504Y-92846739D01*
X110213509Y-92846740D01*
X110213511Y-92846741D01*
X110257979Y-92858656D01*
X110433308Y-92905635D01*
X110595230Y-92919801D01*
X110659998Y-92925468D01*
X110660000Y-92925468D01*
X110660002Y-92925468D01*
X110716807Y-92920498D01*
X110886692Y-92905635D01*
X111106496Y-92846739D01*
X111312734Y-92750568D01*
X111499139Y-92620047D01*
X111660047Y-92459139D01*
X111790568Y-92272734D01*
X111817618Y-92214724D01*
X111863790Y-92162285D01*
X111930983Y-92143133D01*
X111997865Y-92163348D01*
X112042382Y-92214725D01*
X112069429Y-92272728D01*
X112069432Y-92272734D01*
X112199954Y-92459141D01*
X112360858Y-92620045D01*
X112360861Y-92620047D01*
X112547266Y-92750568D01*
X112753504Y-92846739D01*
X112753509Y-92846740D01*
X112753511Y-92846741D01*
X112797979Y-92858656D01*
X112973308Y-92905635D01*
X113135230Y-92919801D01*
X113199998Y-92925468D01*
X113200000Y-92925468D01*
X113200002Y-92925468D01*
X113256807Y-92920498D01*
X113426692Y-92905635D01*
X113646496Y-92846739D01*
X113852734Y-92750568D01*
X113854377Y-92749417D01*
X113855216Y-92749134D01*
X113857420Y-92747862D01*
X113857675Y-92748304D01*
X113920581Y-92727090D01*
X113988348Y-92744099D01*
X114036162Y-92795046D01*
X114049500Y-92850992D01*
X114049500Y-93829191D01*
X114029815Y-93896230D01*
X114013181Y-93916872D01*
X113544727Y-94385325D01*
X113544724Y-94385328D01*
X113496082Y-94458128D01*
X113473535Y-94491872D01*
X113424499Y-94610255D01*
X113424497Y-94610261D01*
X113399500Y-94735928D01*
X113399500Y-94735931D01*
X113399500Y-97164069D01*
X113399500Y-97164071D01*
X113399499Y-97164071D01*
X113424497Y-97289738D01*
X113424499Y-97289744D01*
X113473533Y-97408124D01*
X113473538Y-97408133D01*
X113544723Y-97514668D01*
X113544726Y-97514672D01*
X113635327Y-97605273D01*
X113635331Y-97605276D01*
X113741866Y-97676461D01*
X113741872Y-97676464D01*
X113741873Y-97676465D01*
X113860256Y-97725501D01*
X113860260Y-97725501D01*
X113860261Y-97725502D01*
X113944405Y-97742240D01*
X114006316Y-97774625D01*
X114040890Y-97835341D01*
X114037150Y-97905110D01*
X114032595Y-97916262D01*
X114004615Y-97976265D01*
X113976895Y-98035712D01*
X113973262Y-98043502D01*
X113973258Y-98043511D01*
X113914366Y-98263302D01*
X113914364Y-98263313D01*
X113894532Y-98489998D01*
X113894532Y-98490001D01*
X113914364Y-98716686D01*
X113914366Y-98716697D01*
X113973258Y-98936488D01*
X113973261Y-98936497D01*
X114069431Y-99142732D01*
X114069432Y-99142734D01*
X114199954Y-99329141D01*
X114360858Y-99490045D01*
X114360861Y-99490047D01*
X114547266Y-99620568D01*
X114578801Y-99635273D01*
X114605275Y-99647618D01*
X114657714Y-99693791D01*
X114676866Y-99760984D01*
X114656650Y-99827865D01*
X114605275Y-99872382D01*
X114547267Y-99899431D01*
X114547265Y-99899432D01*
X114360858Y-100029954D01*
X114199954Y-100190858D01*
X114069432Y-100377265D01*
X114069431Y-100377267D01*
X113973261Y-100583502D01*
X113973258Y-100583511D01*
X113914366Y-100803302D01*
X113914364Y-100803313D01*
X113894532Y-101029998D01*
X113894532Y-101030001D01*
X113914364Y-101256686D01*
X113914366Y-101256697D01*
X113973258Y-101476488D01*
X113973261Y-101476497D01*
X114069431Y-101682732D01*
X114069432Y-101682734D01*
X114199954Y-101869141D01*
X114360858Y-102030045D01*
X114360861Y-102030047D01*
X114547266Y-102160568D01*
X114605865Y-102187893D01*
X114658305Y-102234065D01*
X114677457Y-102301258D01*
X114657242Y-102368139D01*
X114605867Y-102412657D01*
X114547515Y-102439867D01*
X114361179Y-102570342D01*
X114200342Y-102731179D01*
X114069865Y-102917517D01*
X113973734Y-103123673D01*
X113973730Y-103123682D01*
X113921127Y-103319999D01*
X113921128Y-103320000D01*
X114884314Y-103320000D01*
X114879920Y-103324394D01*
X114827259Y-103415606D01*
X114800000Y-103517339D01*
X114800000Y-103622661D01*
X114827259Y-103724394D01*
X114879920Y-103815606D01*
X114884314Y-103820000D01*
X113921128Y-103820000D01*
X113973730Y-104016317D01*
X113973734Y-104016326D01*
X114069865Y-104222482D01*
X114200342Y-104408820D01*
X114361179Y-104569657D01*
X114547517Y-104700134D01*
X114753673Y-104796265D01*
X114753682Y-104796269D01*
X114949999Y-104848872D01*
X114950000Y-104848871D01*
X114950000Y-103885686D01*
X114954394Y-103890080D01*
X115045606Y-103942741D01*
X115147339Y-103970000D01*
X115252661Y-103970000D01*
X115354394Y-103942741D01*
X115445606Y-103890080D01*
X115450000Y-103885686D01*
X115450000Y-104848872D01*
X115646317Y-104796269D01*
X115646326Y-104796265D01*
X115852482Y-104700134D01*
X116038820Y-104569657D01*
X116199657Y-104408820D01*
X116330134Y-104222482D01*
X116426265Y-104016326D01*
X116426269Y-104016317D01*
X116478872Y-103820000D01*
X115515686Y-103820000D01*
X115520080Y-103815606D01*
X115572741Y-103724394D01*
X115600000Y-103622661D01*
X115600000Y-103517339D01*
X115572741Y-103415606D01*
X115520080Y-103324394D01*
X115515686Y-103320000D01*
X116478872Y-103320000D01*
X116478872Y-103319999D01*
X116426269Y-103123682D01*
X116426265Y-103123673D01*
X116330134Y-102917517D01*
X116199657Y-102731179D01*
X116038820Y-102570342D01*
X115852482Y-102439865D01*
X115794133Y-102412657D01*
X115741694Y-102366484D01*
X115722542Y-102299291D01*
X115742758Y-102232410D01*
X115794129Y-102187895D01*
X115852734Y-102160568D01*
X116039139Y-102030047D01*
X116200047Y-101869139D01*
X116330568Y-101682734D01*
X116426739Y-101476496D01*
X116485635Y-101256692D01*
X116505468Y-101030000D01*
X116505060Y-101025341D01*
X116488646Y-100837723D01*
X116485635Y-100803308D01*
X116426739Y-100583504D01*
X116330568Y-100377266D01*
X116200047Y-100190861D01*
X116200045Y-100190858D01*
X116039141Y-100029954D01*
X115852734Y-99899432D01*
X115852728Y-99899429D01*
X115794725Y-99872382D01*
X115742285Y-99826210D01*
X115723133Y-99759017D01*
X115743348Y-99692135D01*
X115794725Y-99647618D01*
X115852734Y-99620568D01*
X116039139Y-99490047D01*
X116200047Y-99329139D01*
X116330568Y-99142734D01*
X116426739Y-98936496D01*
X116485635Y-98716692D01*
X116505468Y-98490000D01*
X116485635Y-98263308D01*
X116440472Y-98094755D01*
X116426741Y-98043511D01*
X116426738Y-98043502D01*
X116426414Y-98042808D01*
X116367403Y-97916259D01*
X116356912Y-97847185D01*
X116385431Y-97783401D01*
X116443908Y-97745161D01*
X116455595Y-97742240D01*
X116481454Y-97737095D01*
X116539744Y-97725501D01*
X116658127Y-97676465D01*
X116764669Y-97605276D01*
X116855276Y-97514669D01*
X116926465Y-97408127D01*
X116975501Y-97289744D01*
X116994084Y-97196326D01*
X117000500Y-97164071D01*
X117000500Y-94166209D01*
X117020185Y-94099170D01*
X117072989Y-94053415D01*
X117138384Y-94042989D01*
X117249997Y-94055565D01*
X117250000Y-94055565D01*
X117250004Y-94055565D01*
X117429249Y-94035369D01*
X117429252Y-94035368D01*
X117429255Y-94035368D01*
X117599522Y-93975789D01*
X117752262Y-93879816D01*
X117879816Y-93752262D01*
X117975789Y-93599522D01*
X118035368Y-93429255D01*
X118044380Y-93349271D01*
X118071446Y-93284856D01*
X118129040Y-93245301D01*
X118198877Y-93243162D01*
X118208555Y-93246111D01*
X118320745Y-93285368D01*
X118320750Y-93285369D01*
X118499996Y-93305565D01*
X118500000Y-93305565D01*
X118500004Y-93305565D01*
X118679249Y-93285369D01*
X118679252Y-93285368D01*
X118679255Y-93285368D01*
X118849522Y-93225789D01*
X119002262Y-93129816D01*
X119129816Y-93002262D01*
X119225789Y-92849522D01*
X119285368Y-92679255D01*
X119285792Y-92675494D01*
X119305565Y-92500003D01*
X119305565Y-92499996D01*
X119285369Y-92320750D01*
X119285368Y-92320745D01*
X119268568Y-92272734D01*
X119225789Y-92150478D01*
X119220802Y-92142542D01*
X119186582Y-92088080D01*
X119129816Y-91997738D01*
X119124750Y-91992672D01*
X119091265Y-91931349D01*
X119096249Y-91861657D01*
X119138121Y-91805724D01*
X119153002Y-91796160D01*
X119157327Y-91793797D01*
X119157331Y-91793796D01*
X119175688Y-91780053D01*
X119241150Y-91755635D01*
X119309424Y-91770485D01*
X119324308Y-91780050D01*
X119342073Y-91793350D01*
X119342669Y-91793796D01*
X119342670Y-91793797D01*
X119417155Y-91821577D01*
X119477517Y-91844091D01*
X119537127Y-91850500D01*
X120232872Y-91850499D01*
X120292483Y-91844091D01*
X120427331Y-91793796D01*
X120446105Y-91779741D01*
X120511565Y-91755323D01*
X120579838Y-91770172D01*
X120594728Y-91779741D01*
X120612908Y-91793351D01*
X120747623Y-91843597D01*
X120747627Y-91843598D01*
X120807155Y-91849999D01*
X120807172Y-91850000D01*
X120905000Y-91850000D01*
X120905000Y-88650000D01*
X120807155Y-88650000D01*
X120747627Y-88656401D01*
X120747616Y-88656404D01*
X120702832Y-88673107D01*
X120633140Y-88678091D01*
X120571817Y-88644605D01*
X120538333Y-88583281D01*
X120535500Y-88556925D01*
X120535500Y-85255928D01*
X120510502Y-85130261D01*
X120510501Y-85130260D01*
X120510501Y-85130256D01*
X120461465Y-85011873D01*
X120461463Y-85011870D01*
X120461458Y-85011861D01*
X120420959Y-84951249D01*
X120400081Y-84884572D01*
X120418566Y-84817192D01*
X120470545Y-84770502D01*
X120539515Y-84759326D01*
X120598371Y-84783092D01*
X120612669Y-84793796D01*
X120747517Y-84844091D01*
X120807127Y-84850500D01*
X121075501Y-84850499D01*
X121142539Y-84870183D01*
X121188294Y-84922987D01*
X121199500Y-84974499D01*
X121199500Y-90160541D01*
X121207459Y-90200554D01*
X121216544Y-90246221D01*
X121216545Y-90246233D01*
X121216546Y-90246233D01*
X121217294Y-90249996D01*
X121224497Y-90286208D01*
X121224499Y-90286216D01*
X121269034Y-90393734D01*
X121273535Y-90404599D01*
X121344723Y-90511141D01*
X121368681Y-90535099D01*
X121402166Y-90596420D01*
X121405000Y-90622780D01*
X121405000Y-91850000D01*
X121502828Y-91850000D01*
X121502844Y-91849999D01*
X121562372Y-91843598D01*
X121562379Y-91843596D01*
X121697086Y-91793354D01*
X121697093Y-91793350D01*
X121812187Y-91707190D01*
X121812190Y-91707187D01*
X121898350Y-91592093D01*
X121898354Y-91592086D01*
X121948596Y-91457379D01*
X121948598Y-91457372D01*
X121954128Y-91405942D01*
X121980866Y-91341391D01*
X122038258Y-91301542D01*
X122108083Y-91299049D01*
X122165098Y-91331516D01*
X125374676Y-94541094D01*
X125408161Y-94602417D01*
X125403177Y-94672109D01*
X125374676Y-94716456D01*
X125319789Y-94771342D01*
X125227687Y-94920663D01*
X125227686Y-94920666D01*
X125172501Y-95087203D01*
X125172501Y-95087204D01*
X125172500Y-95087204D01*
X125162000Y-95189983D01*
X125162000Y-96190001D01*
X125162001Y-96190019D01*
X125172500Y-96292796D01*
X125172501Y-96292799D01*
X125206864Y-96396497D01*
X125227686Y-96459334D01*
X125319788Y-96608656D01*
X125443844Y-96732712D01*
X125593166Y-96824814D01*
X125759703Y-96879999D01*
X125862491Y-96890500D01*
X126487508Y-96890499D01*
X126487516Y-96890498D01*
X126487519Y-96890498D01*
X126543802Y-96884748D01*
X126590297Y-96879999D01*
X126756834Y-96824814D01*
X126906156Y-96732712D01*
X126999819Y-96639049D01*
X127061142Y-96605564D01*
X127130834Y-96610548D01*
X127175181Y-96639049D01*
X127268844Y-96732712D01*
X127418166Y-96824814D01*
X127584703Y-96879999D01*
X127687491Y-96890500D01*
X128312508Y-96890499D01*
X128312516Y-96890498D01*
X128312519Y-96890498D01*
X128368802Y-96884748D01*
X128415297Y-96879999D01*
X128581834Y-96824814D01*
X128731156Y-96732712D01*
X128855212Y-96608656D01*
X128947314Y-96459334D01*
X129002499Y-96292797D01*
X129013000Y-96190009D01*
X129012999Y-96038307D01*
X129032683Y-95971268D01*
X129049313Y-95950631D01*
X132784588Y-92215356D01*
X132845909Y-92181873D01*
X132915601Y-92186857D01*
X132968120Y-92224374D01*
X133039116Y-92310883D01*
X133191460Y-92435909D01*
X133191467Y-92435913D01*
X133365266Y-92528811D01*
X133365269Y-92528811D01*
X133365273Y-92528814D01*
X133553868Y-92586024D01*
X133750000Y-92605341D01*
X133946132Y-92586024D01*
X134134727Y-92528814D01*
X134157831Y-92516465D01*
X134265076Y-92459141D01*
X134308538Y-92435910D01*
X134460883Y-92310883D01*
X134585910Y-92158538D01*
X134660564Y-92018870D01*
X134678811Y-91984733D01*
X134678811Y-91984732D01*
X134678814Y-91984727D01*
X134736024Y-91796132D01*
X134755341Y-91600000D01*
X134736024Y-91403868D01*
X134678814Y-91215273D01*
X134585910Y-91041462D01*
X134585907Y-91041458D01*
X134582523Y-91036393D01*
X134584164Y-91035296D01*
X134560405Y-90979361D01*
X134572194Y-90910493D01*
X134582888Y-90893851D01*
X134582523Y-90893607D01*
X134585904Y-90888544D01*
X134585910Y-90888538D01*
X134678814Y-90714727D01*
X134736024Y-90526132D01*
X134755341Y-90330000D01*
X134736024Y-90133868D01*
X134678814Y-89945273D01*
X134585910Y-89771462D01*
X134585907Y-89771458D01*
X134582523Y-89766393D01*
X134584164Y-89765296D01*
X134560405Y-89709361D01*
X134572194Y-89640493D01*
X134582888Y-89623851D01*
X134582523Y-89623607D01*
X134585904Y-89618544D01*
X134585910Y-89618538D01*
X134678814Y-89444727D01*
X134736024Y-89256132D01*
X134755341Y-89060000D01*
X134736024Y-88863868D01*
X134678814Y-88675273D01*
X134675560Y-88669186D01*
X134629643Y-88583281D01*
X134585910Y-88501462D01*
X134585907Y-88501458D01*
X134582523Y-88496393D01*
X134584164Y-88495296D01*
X134560405Y-88439361D01*
X134572194Y-88370493D01*
X134582888Y-88353851D01*
X134582523Y-88353607D01*
X134585904Y-88348544D01*
X134585910Y-88348538D01*
X134678814Y-88174727D01*
X134736024Y-87986132D01*
X134755341Y-87790000D01*
X134736024Y-87593868D01*
X134678814Y-87405273D01*
X134673532Y-87395392D01*
X134665986Y-87381275D01*
X134585910Y-87231462D01*
X134585907Y-87231458D01*
X134582523Y-87226393D01*
X134584164Y-87225296D01*
X134560405Y-87169361D01*
X134572194Y-87100493D01*
X134582888Y-87083851D01*
X134582523Y-87083607D01*
X134585904Y-87078544D01*
X134585910Y-87078538D01*
X134678814Y-86904727D01*
X134736024Y-86716132D01*
X134755341Y-86520000D01*
X134736024Y-86323868D01*
X134678814Y-86135273D01*
X134585910Y-85961462D01*
X134585907Y-85961458D01*
X134582523Y-85956393D01*
X134584164Y-85955296D01*
X134560405Y-85899361D01*
X134572194Y-85830493D01*
X134582888Y-85813851D01*
X134582523Y-85813607D01*
X134585904Y-85808544D01*
X134585910Y-85808538D01*
X134678814Y-85634727D01*
X134736024Y-85446132D01*
X134755341Y-85250000D01*
X134736024Y-85053868D01*
X134678814Y-84865273D01*
X134585910Y-84691462D01*
X134585907Y-84691458D01*
X134582523Y-84686393D01*
X134584164Y-84685296D01*
X134560405Y-84629361D01*
X134572194Y-84560493D01*
X134582888Y-84543851D01*
X134582523Y-84543607D01*
X134585904Y-84538544D01*
X134585910Y-84538538D01*
X134678814Y-84364727D01*
X134736024Y-84176132D01*
X134755341Y-83980000D01*
X134736024Y-83783868D01*
X134678814Y-83595273D01*
X134585910Y-83421462D01*
X134585906Y-83421457D01*
X134582526Y-83416399D01*
X134584044Y-83415384D01*
X134560081Y-83358962D01*
X134571872Y-83290094D01*
X134582492Y-83273574D01*
X134582111Y-83273320D01*
X134585497Y-83268252D01*
X134678347Y-83094541D01*
X134719160Y-82960000D01*
X133994975Y-82960000D01*
X134030070Y-82924905D01*
X134076148Y-82845095D01*
X134100000Y-82756078D01*
X134100000Y-82663922D01*
X134076148Y-82574905D01*
X134030070Y-82495095D01*
X133994975Y-82460000D01*
X134719160Y-82460000D01*
X134719160Y-82459999D01*
X134678348Y-82325462D01*
X134677345Y-82323585D01*
X134677115Y-82322483D01*
X134676018Y-82319833D01*
X134676520Y-82319624D01*
X134663105Y-82255182D01*
X134687440Y-82190821D01*
X134693796Y-82182331D01*
X134694944Y-82179255D01*
X134724682Y-82099522D01*
X134744091Y-82047483D01*
X134750500Y-81987873D01*
X134750499Y-80892128D01*
X134744091Y-80832517D01*
X134712760Y-80748515D01*
X134693797Y-80697671D01*
X134693793Y-80697664D01*
X134607547Y-80582455D01*
X134607544Y-80582452D01*
X134492335Y-80496206D01*
X134492328Y-80496202D01*
X134357482Y-80445908D01*
X134357483Y-80445908D01*
X134297883Y-80439501D01*
X134297881Y-80439500D01*
X134297873Y-80439500D01*
X134297864Y-80439500D01*
X133202129Y-80439500D01*
X133202123Y-80439501D01*
X133142516Y-80445908D01*
X133007671Y-80496202D01*
X133007664Y-80496206D01*
X132892455Y-80582452D01*
X132892452Y-80582455D01*
X132806206Y-80697664D01*
X132806202Y-80697671D01*
X132755908Y-80832517D01*
X132749501Y-80892116D01*
X132749500Y-80892128D01*
X132749500Y-81760192D01*
X132729815Y-81827231D01*
X132677011Y-81872986D01*
X132607853Y-81882930D01*
X132544297Y-81853905D01*
X132537819Y-81847873D01*
X131374674Y-80684727D01*
X131374673Y-80684726D01*
X131366772Y-80679447D01*
X131275793Y-80618657D01*
X131268123Y-80613532D01*
X131149749Y-80564501D01*
X131149748Y-80564500D01*
X131149744Y-80564499D01*
X131149737Y-80564497D01*
X131149735Y-80564497D01*
X131147573Y-80564067D01*
X131024071Y-80539500D01*
X131024069Y-80539500D01*
X129076233Y-80539500D01*
X129009194Y-80519815D01*
X128963439Y-80467011D01*
X128958528Y-80454506D01*
X128948753Y-80425009D01*
X128947314Y-80420666D01*
X128855212Y-80271344D01*
X128731156Y-80147288D01*
X128638388Y-80090069D01*
X128581836Y-80055187D01*
X128581831Y-80055185D01*
X128580362Y-80054698D01*
X128415297Y-80000001D01*
X128415295Y-80000000D01*
X128312510Y-79989500D01*
X127687498Y-79989500D01*
X127687480Y-79989501D01*
X127584703Y-80000000D01*
X127584700Y-80000001D01*
X127418168Y-80055185D01*
X127418163Y-80055187D01*
X127268842Y-80147289D01*
X127175181Y-80240951D01*
X127113858Y-80274436D01*
X127044166Y-80269452D01*
X126999819Y-80240951D01*
X126906157Y-80147289D01*
X126906156Y-80147288D01*
X126813388Y-80090069D01*
X126756836Y-80055187D01*
X126756831Y-80055185D01*
X126755362Y-80054698D01*
X126590297Y-80000001D01*
X126590295Y-80000000D01*
X126487516Y-79989500D01*
X126487509Y-79989500D01*
X125945808Y-79989500D01*
X125878769Y-79969815D01*
X125858127Y-79953181D01*
X123654947Y-77750000D01*
X135744723Y-77750000D01*
X135763500Y-77964632D01*
X135763793Y-77967975D01*
X135763793Y-77967979D01*
X135820422Y-78179322D01*
X135820424Y-78179326D01*
X135820425Y-78179330D01*
X135856778Y-78257289D01*
X135912897Y-78377638D01*
X135919390Y-78386911D01*
X136038402Y-78556877D01*
X136193123Y-78711598D01*
X136372361Y-78837102D01*
X136570670Y-78929575D01*
X136782023Y-78986207D01*
X136964926Y-79002208D01*
X136999998Y-79005277D01*
X137000000Y-79005277D01*
X137000002Y-79005277D01*
X137028254Y-79002805D01*
X137217977Y-78986207D01*
X137429330Y-78929575D01*
X137627639Y-78837102D01*
X137806877Y-78711598D01*
X137961598Y-78556877D01*
X138087102Y-78377639D01*
X138179575Y-78179330D01*
X138236207Y-77967977D01*
X138255277Y-77750000D01*
X138254815Y-77744723D01*
X138249094Y-77679330D01*
X138236207Y-77532023D01*
X138179575Y-77320670D01*
X138087102Y-77122362D01*
X138087100Y-77122359D01*
X138087099Y-77122357D01*
X137961599Y-76943124D01*
X137943279Y-76924804D01*
X137806877Y-76788402D01*
X137668978Y-76691844D01*
X137627638Y-76662897D01*
X137528484Y-76616661D01*
X137429330Y-76570425D01*
X137429326Y-76570424D01*
X137429322Y-76570422D01*
X137217977Y-76513793D01*
X137000002Y-76494723D01*
X136999998Y-76494723D01*
X136854682Y-76507436D01*
X136782023Y-76513793D01*
X136782020Y-76513793D01*
X136570677Y-76570422D01*
X136570668Y-76570426D01*
X136372361Y-76662898D01*
X136372357Y-76662900D01*
X136193121Y-76788402D01*
X136038402Y-76943121D01*
X135912900Y-77122357D01*
X135912898Y-77122361D01*
X135820426Y-77320668D01*
X135820422Y-77320677D01*
X135763793Y-77532020D01*
X135763793Y-77532024D01*
X135745185Y-77744723D01*
X135744723Y-77750000D01*
X123654947Y-77750000D01*
X123649674Y-77744727D01*
X123649673Y-77744726D01*
X123649669Y-77744723D01*
X123543127Y-77673535D01*
X123424744Y-77624499D01*
X123424738Y-77624497D01*
X123299071Y-77599500D01*
X123299069Y-77599500D01*
X117255068Y-77599500D01*
X117189096Y-77580494D01*
X117099522Y-77524210D01*
X117099518Y-77524209D01*
X116929262Y-77464633D01*
X116929249Y-77464630D01*
X116750004Y-77444435D01*
X116749996Y-77444435D01*
X116570750Y-77464630D01*
X116570745Y-77464631D01*
X116400476Y-77524211D01*
X116247737Y-77620184D01*
X116120184Y-77747737D01*
X116024211Y-77900476D01*
X115964631Y-78070745D01*
X115964630Y-78070750D01*
X115944435Y-78249996D01*
X115944435Y-78250003D01*
X115964630Y-78429249D01*
X115964631Y-78429254D01*
X116024211Y-78599523D01*
X116120184Y-78752262D01*
X116252662Y-78884740D01*
X116251390Y-78886011D01*
X116286295Y-78935740D01*
X116289145Y-79005552D01*
X116253800Y-79065822D01*
X116191482Y-79097416D01*
X116168842Y-79099500D01*
X114889981Y-79099500D01*
X114822942Y-79079815D01*
X114777187Y-79027011D01*
X114766623Y-78988101D01*
X114764999Y-78972203D01*
X114764998Y-78972200D01*
X114750764Y-78929246D01*
X114709814Y-78805666D01*
X114617712Y-78656344D01*
X114493656Y-78532288D01*
X114344334Y-78440186D01*
X114177797Y-78385001D01*
X114177795Y-78385000D01*
X114075010Y-78374500D01*
X113349999Y-78374500D01*
X113349973Y-78374502D01*
X113324184Y-78377136D01*
X113255491Y-78364364D01*
X113223905Y-78341459D01*
X111127174Y-76244727D01*
X111127171Y-76244724D01*
X111101545Y-76227602D01*
X111056740Y-76173990D01*
X111048033Y-76104665D01*
X111078187Y-76041638D01*
X111137630Y-76004918D01*
X111170436Y-76000500D01*
X138875500Y-76000500D01*
X138942539Y-76020185D01*
X138988294Y-76072989D01*
X138999500Y-76124500D01*
X138999500Y-114375500D01*
X138979815Y-114442539D01*
X138927011Y-114488294D01*
X138875500Y-114499500D01*
X78048586Y-114499500D01*
X77998949Y-114484925D01*
X77975846Y-114497069D01*
X77951414Y-114499500D01*
X76624500Y-114499500D01*
X76557461Y-114479815D01*
X76511706Y-114427011D01*
X76500500Y-114375500D01*
X76500500Y-113048585D01*
X76515074Y-112998949D01*
X76514887Y-112998593D01*
X76733800Y-112998593D01*
X76743477Y-113013650D01*
X76748028Y-113037778D01*
X76763793Y-113217975D01*
X76763793Y-113217979D01*
X76820422Y-113429322D01*
X76820424Y-113429326D01*
X76820425Y-113429330D01*
X76844383Y-113480708D01*
X76912897Y-113627638D01*
X76912898Y-113627639D01*
X77038402Y-113806877D01*
X77193123Y-113961598D01*
X77372361Y-114087102D01*
X77570670Y-114179575D01*
X77782023Y-114236207D01*
X77937554Y-114249813D01*
X77962221Y-114251972D01*
X77998594Y-114266199D01*
X78013651Y-114256523D01*
X78037779Y-114251972D01*
X78057539Y-114250243D01*
X78217977Y-114236207D01*
X78429330Y-114179575D01*
X78627639Y-114087102D01*
X78806877Y-113961598D01*
X78961598Y-113806877D01*
X79087102Y-113627639D01*
X79179575Y-113429330D01*
X79236207Y-113217977D01*
X79255277Y-113000000D01*
X79236207Y-112782023D01*
X79179575Y-112570670D01*
X79087102Y-112372362D01*
X79087100Y-112372359D01*
X79087099Y-112372357D01*
X78961599Y-112193124D01*
X78890832Y-112122357D01*
X78806877Y-112038402D01*
X78627639Y-111912898D01*
X78627640Y-111912898D01*
X78627638Y-111912897D01*
X78466998Y-111837990D01*
X78429330Y-111820425D01*
X78429326Y-111820424D01*
X78429322Y-111820422D01*
X78217977Y-111763793D01*
X78000002Y-111744723D01*
X77999998Y-111744723D01*
X77854682Y-111757436D01*
X77782023Y-111763793D01*
X77782020Y-111763793D01*
X77570677Y-111820422D01*
X77570668Y-111820426D01*
X77372361Y-111912898D01*
X77372357Y-111912900D01*
X77193121Y-112038402D01*
X77038402Y-112193121D01*
X76912900Y-112372357D01*
X76912898Y-112372361D01*
X76820426Y-112570668D01*
X76820422Y-112570677D01*
X76763793Y-112782020D01*
X76763793Y-112782024D01*
X76748028Y-112962221D01*
X76733800Y-112998593D01*
X76514887Y-112998593D01*
X76502931Y-112975846D01*
X76500500Y-112951414D01*
X76500500Y-104602155D01*
X78360000Y-104602155D01*
X78360000Y-105500000D01*
X79469252Y-105500000D01*
X79447482Y-105537708D01*
X79410000Y-105677591D01*
X79410000Y-105822409D01*
X79447482Y-105962292D01*
X79469252Y-106000000D01*
X78360000Y-106000000D01*
X78360000Y-106897844D01*
X78366401Y-106957372D01*
X78366403Y-106957379D01*
X78416645Y-107092086D01*
X78416649Y-107092093D01*
X78502809Y-107207187D01*
X78502812Y-107207190D01*
X78617906Y-107293350D01*
X78617913Y-107293354D01*
X78752620Y-107343596D01*
X78752627Y-107343598D01*
X78812155Y-107349999D01*
X78812172Y-107350000D01*
X79517218Y-107350000D01*
X79584257Y-107369685D01*
X79630012Y-107422489D01*
X79639956Y-107491647D01*
X79610931Y-107555203D01*
X79584999Y-107575894D01*
X79585886Y-107577221D01*
X79449711Y-107668210D01*
X79449707Y-107668213D01*
X79338213Y-107779707D01*
X79338210Y-107779711D01*
X79250609Y-107910814D01*
X79250602Y-107910827D01*
X79190264Y-108056498D01*
X79190261Y-108056510D01*
X79159500Y-108211153D01*
X79159500Y-108368846D01*
X79190261Y-108523489D01*
X79190264Y-108523501D01*
X79250602Y-108669172D01*
X79250609Y-108669185D01*
X79338210Y-108800288D01*
X79338213Y-108800292D01*
X79449707Y-108911786D01*
X79449711Y-108911789D01*
X79580814Y-108999390D01*
X79580827Y-108999397D01*
X79658245Y-109031464D01*
X79726503Y-109059737D01*
X79881153Y-109090499D01*
X79881156Y-109090500D01*
X79881158Y-109090500D01*
X80038844Y-109090500D01*
X80038845Y-109090499D01*
X80193497Y-109059737D01*
X80339179Y-108999394D01*
X80470289Y-108911789D01*
X80581789Y-108800289D01*
X80669394Y-108669179D01*
X80729737Y-108523497D01*
X80760500Y-108368842D01*
X80760500Y-108211158D01*
X80760500Y-108211155D01*
X80760499Y-108211153D01*
X80729738Y-108056510D01*
X80729737Y-108056503D01*
X80675271Y-107925009D01*
X80669397Y-107910827D01*
X80669390Y-107910814D01*
X80581789Y-107779711D01*
X80581786Y-107779707D01*
X80470292Y-107668213D01*
X80470288Y-107668210D01*
X80334114Y-107577221D01*
X80335695Y-107574854D01*
X80294526Y-107534470D01*
X80279019Y-107466343D01*
X80302805Y-107400647D01*
X80358334Y-107358240D01*
X80402782Y-107350000D01*
X81107828Y-107350000D01*
X81107844Y-107349999D01*
X81167372Y-107343598D01*
X81167379Y-107343596D01*
X81302086Y-107293354D01*
X81302093Y-107293350D01*
X81417186Y-107207190D01*
X81474498Y-107130633D01*
X81530432Y-107088762D01*
X81600124Y-107083778D01*
X81638555Y-107099217D01*
X81771140Y-107180466D01*
X81862502Y-107218309D01*
X82003889Y-107276873D01*
X82171043Y-107317003D01*
X82231634Y-107351792D01*
X82263799Y-107413818D01*
X82257323Y-107483387D01*
X82214264Y-107538411D01*
X82189550Y-107552137D01*
X82120820Y-107580606D01*
X82120814Y-107580609D01*
X81989711Y-107668210D01*
X81989707Y-107668213D01*
X81878213Y-107779707D01*
X81878210Y-107779711D01*
X81790609Y-107910814D01*
X81790602Y-107910827D01*
X81730264Y-108056498D01*
X81730261Y-108056510D01*
X81699500Y-108211153D01*
X81699500Y-108368846D01*
X81730261Y-108523489D01*
X81730264Y-108523501D01*
X81790602Y-108669172D01*
X81790609Y-108669185D01*
X81878210Y-108800288D01*
X81878213Y-108800292D01*
X81989707Y-108911786D01*
X81989711Y-108911789D01*
X82120814Y-108999390D01*
X82120827Y-108999397D01*
X82198245Y-109031464D01*
X82266503Y-109059737D01*
X82421153Y-109090499D01*
X82421156Y-109090500D01*
X82421158Y-109090500D01*
X82578844Y-109090500D01*
X82578845Y-109090499D01*
X82733497Y-109059737D01*
X82879179Y-108999394D01*
X83010289Y-108911789D01*
X83121789Y-108800289D01*
X83209394Y-108669179D01*
X83269737Y-108523497D01*
X83300500Y-108368842D01*
X83300500Y-108211158D01*
X83300500Y-108211155D01*
X83300499Y-108211153D01*
X83269738Y-108056510D01*
X83269737Y-108056503D01*
X83215271Y-107925009D01*
X83209397Y-107910827D01*
X83209390Y-107910814D01*
X83123403Y-107782126D01*
X83102525Y-107715449D01*
X83121009Y-107648068D01*
X83172988Y-107601378D01*
X83241958Y-107590202D01*
X83306022Y-107618087D01*
X83314186Y-107625554D01*
X89521586Y-113832954D01*
X89551058Y-113852645D01*
X89595268Y-113882184D01*
X89595270Y-113882187D01*
X89595271Y-113882187D01*
X89644496Y-113915079D01*
X89644511Y-113915087D01*
X89701079Y-113938518D01*
X89701080Y-113938518D01*
X89781088Y-113971659D01*
X89897241Y-113994763D01*
X89916468Y-113998587D01*
X89926081Y-114000500D01*
X89926082Y-114000500D01*
X127708298Y-114000500D01*
X127805840Y-113981096D01*
X127853291Y-113971658D01*
X127989873Y-113915084D01*
X128039107Y-113882186D01*
X128039112Y-113882183D01*
X128063449Y-113865921D01*
X128112794Y-113832952D01*
X129163734Y-112782011D01*
X129195748Y-112749997D01*
X135744723Y-112749997D01*
X135744723Y-112750002D01*
X135747525Y-112782024D01*
X135763289Y-112962221D01*
X135763793Y-112967975D01*
X135763793Y-112967979D01*
X135820422Y-113179322D01*
X135820424Y-113179326D01*
X135820425Y-113179330D01*
X135866661Y-113278484D01*
X135912897Y-113377638D01*
X135912898Y-113377639D01*
X136038402Y-113556877D01*
X136193123Y-113711598D01*
X136372361Y-113837102D01*
X136570670Y-113929575D01*
X136782023Y-113986207D01*
X136964926Y-114002208D01*
X136999998Y-114005277D01*
X137000000Y-114005277D01*
X137000002Y-114005277D01*
X137028254Y-114002805D01*
X137217977Y-113986207D01*
X137429330Y-113929575D01*
X137627639Y-113837102D01*
X137806877Y-113711598D01*
X137961598Y-113556877D01*
X138087102Y-113377639D01*
X138179575Y-113179330D01*
X138236207Y-112967977D01*
X138255277Y-112750000D01*
X138236207Y-112532023D01*
X138179575Y-112320670D01*
X138087102Y-112122362D01*
X138087100Y-112122359D01*
X138087099Y-112122357D01*
X137961599Y-111943124D01*
X137888475Y-111870000D01*
X137806877Y-111788402D01*
X137654718Y-111681859D01*
X137627638Y-111662897D01*
X137528484Y-111616661D01*
X137429330Y-111570425D01*
X137429326Y-111570424D01*
X137429322Y-111570422D01*
X137217977Y-111513793D01*
X137000002Y-111494723D01*
X136999998Y-111494723D01*
X136854682Y-111507436D01*
X136782023Y-111513793D01*
X136782020Y-111513793D01*
X136570677Y-111570422D01*
X136570668Y-111570426D01*
X136372361Y-111662898D01*
X136372357Y-111662900D01*
X136193121Y-111788402D01*
X136038402Y-111943121D01*
X135912900Y-112122357D01*
X135912898Y-112122361D01*
X135820426Y-112320668D01*
X135820422Y-112320677D01*
X135763793Y-112532020D01*
X135763793Y-112532024D01*
X135744723Y-112749997D01*
X129195748Y-112749997D01*
X130208928Y-111736818D01*
X130270251Y-111703333D01*
X130296609Y-111700499D01*
X130812502Y-111700499D01*
X130812508Y-111700499D01*
X130915297Y-111689999D01*
X131081834Y-111634814D01*
X131231156Y-111542712D01*
X131355212Y-111418656D01*
X131422599Y-111309402D01*
X131474547Y-111262679D01*
X131528138Y-111250500D01*
X132396862Y-111250500D01*
X132463901Y-111270185D01*
X132502399Y-111309401D01*
X132569788Y-111418656D01*
X132693844Y-111542712D01*
X132843166Y-111634814D01*
X133009703Y-111689999D01*
X133112491Y-111700500D01*
X133737508Y-111700499D01*
X133737516Y-111700498D01*
X133737519Y-111700498D01*
X133793802Y-111694748D01*
X133840297Y-111689999D01*
X134006834Y-111634814D01*
X134156156Y-111542712D01*
X134250175Y-111448692D01*
X134311494Y-111415210D01*
X134381186Y-111420194D01*
X134425534Y-111448695D01*
X134519154Y-111542315D01*
X134668375Y-111634356D01*
X134668380Y-111634358D01*
X134834802Y-111689505D01*
X134834809Y-111689506D01*
X134937519Y-111699999D01*
X135500000Y-111699999D01*
X135562472Y-111699999D01*
X135562486Y-111699998D01*
X135665197Y-111689505D01*
X135831619Y-111634358D01*
X135831624Y-111634356D01*
X135980845Y-111542315D01*
X136104815Y-111418345D01*
X136196856Y-111269124D01*
X136196858Y-111269119D01*
X136252005Y-111102697D01*
X136252006Y-111102690D01*
X136262499Y-110999986D01*
X136262500Y-110999973D01*
X136262500Y-110750000D01*
X135500000Y-110750000D01*
X135500000Y-111699999D01*
X134937519Y-111699999D01*
X134999999Y-111699998D01*
X135000000Y-111699998D01*
X135000000Y-110250000D01*
X135500000Y-110250000D01*
X136262499Y-110250000D01*
X136262499Y-110000028D01*
X136262498Y-110000013D01*
X136252005Y-109897302D01*
X136196858Y-109730880D01*
X136196856Y-109730875D01*
X136104815Y-109581654D01*
X135980845Y-109457684D01*
X135831624Y-109365643D01*
X135831619Y-109365641D01*
X135665197Y-109310494D01*
X135665190Y-109310493D01*
X135562486Y-109300000D01*
X135500000Y-109300000D01*
X135500000Y-110250000D01*
X135000000Y-110250000D01*
X135000000Y-109300000D01*
X134999999Y-109299999D01*
X134937528Y-109300000D01*
X134937511Y-109300001D01*
X134834802Y-109310494D01*
X134668380Y-109365641D01*
X134668375Y-109365643D01*
X134519157Y-109457682D01*
X134425534Y-109551305D01*
X134364210Y-109584789D01*
X134294519Y-109579805D01*
X134250172Y-109551304D01*
X134156157Y-109457289D01*
X134156156Y-109457288D01*
X134038042Y-109384435D01*
X134006836Y-109365187D01*
X134006831Y-109365185D01*
X133998761Y-109362511D01*
X133840297Y-109310001D01*
X133840295Y-109310000D01*
X133737510Y-109299500D01*
X133112498Y-109299500D01*
X133112480Y-109299501D01*
X133009703Y-109310000D01*
X133009700Y-109310001D01*
X132843168Y-109365185D01*
X132843163Y-109365187D01*
X132693842Y-109457289D01*
X132569789Y-109581342D01*
X132569395Y-109581981D01*
X132515150Y-109669928D01*
X132502401Y-109690597D01*
X132450453Y-109737321D01*
X132396862Y-109749500D01*
X131528138Y-109749500D01*
X131461099Y-109729815D01*
X131422599Y-109690597D01*
X131355212Y-109581344D01*
X131231156Y-109457288D01*
X131113042Y-109384435D01*
X131081836Y-109365187D01*
X131081831Y-109365185D01*
X131073761Y-109362511D01*
X130915297Y-109310001D01*
X130915295Y-109310000D01*
X130812516Y-109299500D01*
X130812509Y-109299500D01*
X130412230Y-109299500D01*
X130345191Y-109279815D01*
X130324549Y-109263181D01*
X129828421Y-108767052D01*
X129828414Y-108767046D01*
X129738527Y-108706986D01*
X129738428Y-108706921D01*
X129705495Y-108684916D01*
X129705494Y-108684915D01*
X129705492Y-108684914D01*
X129568917Y-108628343D01*
X129568907Y-108628340D01*
X129423920Y-108599500D01*
X129423918Y-108599500D01*
X129308296Y-108599500D01*
X126698917Y-108599500D01*
X126551082Y-108599500D01*
X126551080Y-108599500D01*
X126406092Y-108628340D01*
X126406082Y-108628343D01*
X126269511Y-108684912D01*
X126269498Y-108684919D01*
X126146587Y-108767046D01*
X126146582Y-108767050D01*
X126100450Y-108813182D01*
X126039127Y-108846666D01*
X126012770Y-108849500D01*
X125574500Y-108849500D01*
X125507461Y-108829815D01*
X125461706Y-108777011D01*
X125450500Y-108725500D01*
X125450500Y-108412229D01*
X125470185Y-108345190D01*
X125486814Y-108324553D01*
X128374549Y-105436817D01*
X128435872Y-105403333D01*
X128462230Y-105400499D01*
X129125002Y-105400499D01*
X129125008Y-105400499D01*
X129227797Y-105389999D01*
X129394334Y-105334814D01*
X129543656Y-105242712D01*
X129667712Y-105118656D01*
X129759814Y-104969334D01*
X129814999Y-104802797D01*
X129825500Y-104700009D01*
X129825499Y-104037228D01*
X129845183Y-103970190D01*
X129861813Y-103949553D01*
X133004549Y-100806819D01*
X133065872Y-100773334D01*
X133092230Y-100770500D01*
X133293022Y-100770500D01*
X133360061Y-100790185D01*
X133371687Y-100798647D01*
X133441460Y-100855909D01*
X133441467Y-100855913D01*
X133615266Y-100948811D01*
X133615269Y-100948811D01*
X133615273Y-100948814D01*
X133803868Y-101006024D01*
X134000000Y-101025341D01*
X134196132Y-101006024D01*
X134384727Y-100948814D01*
X134558538Y-100855910D01*
X134710883Y-100730883D01*
X134835910Y-100578538D01*
X134928814Y-100404727D01*
X134986024Y-100216132D01*
X135005341Y-100020000D01*
X134986024Y-99823868D01*
X134928814Y-99635273D01*
X134927419Y-99632663D01*
X134927100Y-99631135D01*
X134926482Y-99629641D01*
X134926765Y-99629523D01*
X134913174Y-99564261D01*
X134937512Y-99499890D01*
X134943351Y-99492089D01*
X134993597Y-99357376D01*
X134993598Y-99357372D01*
X134999999Y-99297844D01*
X135000000Y-99297827D01*
X135000000Y-99000000D01*
X134244975Y-99000000D01*
X134280070Y-98964905D01*
X134326148Y-98885095D01*
X134350000Y-98796078D01*
X134350000Y-98703922D01*
X134326148Y-98614905D01*
X134280070Y-98535095D01*
X134244975Y-98500000D01*
X134250000Y-98500000D01*
X135000000Y-98500000D01*
X135000000Y-98202172D01*
X134999999Y-98202155D01*
X134993598Y-98142627D01*
X134993596Y-98142620D01*
X134943354Y-98007913D01*
X134943350Y-98007906D01*
X134857190Y-97892812D01*
X134857187Y-97892809D01*
X134742093Y-97806649D01*
X134742086Y-97806645D01*
X134607379Y-97756403D01*
X134607372Y-97756401D01*
X134547844Y-97750000D01*
X134250000Y-97750000D01*
X134250000Y-98500000D01*
X134244975Y-98500000D01*
X134214905Y-98469930D01*
X134135095Y-98423852D01*
X134046078Y-98400000D01*
X133953922Y-98400000D01*
X133864905Y-98423852D01*
X133785095Y-98469930D01*
X133719930Y-98535095D01*
X133673852Y-98614905D01*
X133650000Y-98703922D01*
X133650000Y-98796078D01*
X133673852Y-98885095D01*
X133719930Y-98964905D01*
X133755025Y-99000000D01*
X133000000Y-99000000D01*
X133000000Y-99145500D01*
X132980315Y-99212539D01*
X132927511Y-99258294D01*
X132876000Y-99269500D01*
X132656080Y-99269500D01*
X132511092Y-99298340D01*
X132511086Y-99298342D01*
X132374508Y-99354914D01*
X132374496Y-99354921D01*
X132325269Y-99387813D01*
X132251588Y-99437044D01*
X132251580Y-99437050D01*
X129125449Y-102563181D01*
X129064126Y-102596666D01*
X129037768Y-102599500D01*
X128374998Y-102599500D01*
X128374980Y-102599501D01*
X128272203Y-102610000D01*
X128272200Y-102610001D01*
X128105668Y-102665185D01*
X128105663Y-102665187D01*
X127956342Y-102757289D01*
X127832289Y-102881342D01*
X127740187Y-103030663D01*
X127740186Y-103030666D01*
X127695835Y-103164505D01*
X127656064Y-103221949D01*
X127591549Y-103248772D01*
X127578131Y-103249500D01*
X126971870Y-103249500D01*
X126904831Y-103229815D01*
X126859076Y-103177011D01*
X126854164Y-103164505D01*
X126842669Y-103129815D01*
X126809814Y-103030666D01*
X126717712Y-102881344D01*
X126593656Y-102757288D01*
X126588549Y-102752181D01*
X126590435Y-102750294D01*
X126557212Y-102703375D01*
X126550500Y-102663132D01*
X126550500Y-101976079D01*
X126521659Y-101831092D01*
X126521658Y-101831091D01*
X126521658Y-101831087D01*
X126519127Y-101824976D01*
X126465086Y-101694509D01*
X126465085Y-101694507D01*
X126456409Y-101681523D01*
X126432186Y-101645270D01*
X126395382Y-101590187D01*
X126382956Y-101571589D01*
X126382952Y-101571584D01*
X126253307Y-101441939D01*
X126230653Y-101405869D01*
X126228813Y-101406756D01*
X126225792Y-101400484D01*
X126225789Y-101400480D01*
X126225789Y-101400478D01*
X126129816Y-101247738D01*
X126002262Y-101120184D01*
X125997338Y-101115260D01*
X125998446Y-101114151D01*
X125963076Y-101063755D01*
X125960228Y-100993944D01*
X125995574Y-100933675D01*
X126057894Y-100902083D01*
X126080530Y-100899999D01*
X126124971Y-100899999D01*
X126124987Y-100899998D01*
X126227697Y-100889505D01*
X126394119Y-100834358D01*
X126394124Y-100834356D01*
X126543345Y-100742315D01*
X126667315Y-100618345D01*
X126759356Y-100469124D01*
X126759358Y-100469119D01*
X126814505Y-100302697D01*
X126814506Y-100302690D01*
X126824999Y-100199986D01*
X127625001Y-100199986D01*
X127635494Y-100302697D01*
X127690641Y-100469119D01*
X127690643Y-100469124D01*
X127782684Y-100618345D01*
X127906654Y-100742315D01*
X128055875Y-100834356D01*
X128055880Y-100834358D01*
X128222302Y-100889505D01*
X128222309Y-100889506D01*
X128325019Y-100899999D01*
X128449999Y-100899999D01*
X128950000Y-100899999D01*
X129074972Y-100899999D01*
X129074986Y-100899998D01*
X129177697Y-100889505D01*
X129344119Y-100834358D01*
X129344124Y-100834356D01*
X129493345Y-100742315D01*
X129617315Y-100618345D01*
X129709356Y-100469124D01*
X129709358Y-100469119D01*
X129764505Y-100302697D01*
X129764506Y-100302690D01*
X129774999Y-100199986D01*
X129775000Y-100199973D01*
X129775000Y-99750000D01*
X128950000Y-99750000D01*
X128950000Y-100899999D01*
X128449999Y-100899999D01*
X128450000Y-100899998D01*
X128450000Y-99750000D01*
X127625001Y-99750000D01*
X127625001Y-100199986D01*
X126824999Y-100199986D01*
X126825000Y-100199973D01*
X126825000Y-99750000D01*
X124675001Y-99750000D01*
X124675001Y-100199986D01*
X124685494Y-100302697D01*
X124740641Y-100469119D01*
X124740643Y-100469124D01*
X124832684Y-100618345D01*
X124956654Y-100742315D01*
X125111334Y-100837723D01*
X125158058Y-100889671D01*
X125169281Y-100958634D01*
X125141437Y-101022716D01*
X125112210Y-101048255D01*
X124997740Y-101120182D01*
X124997737Y-101120184D01*
X124870184Y-101247737D01*
X124774211Y-101400476D01*
X124714631Y-101570745D01*
X124714630Y-101570750D01*
X124694435Y-101749996D01*
X124694435Y-101750003D01*
X124714630Y-101929249D01*
X124714631Y-101929254D01*
X124774211Y-102099523D01*
X124829738Y-102187893D01*
X124870184Y-102252262D01*
X124997738Y-102379816D01*
X124997742Y-102379819D01*
X125002809Y-102383859D01*
X125042952Y-102441046D01*
X125049500Y-102480809D01*
X125049500Y-102663132D01*
X125029815Y-102730171D01*
X125010616Y-102751346D01*
X125011451Y-102752181D01*
X124882289Y-102881342D01*
X124790187Y-103030663D01*
X124790186Y-103030666D01*
X124735001Y-103197203D01*
X124735001Y-103197204D01*
X124735000Y-103197204D01*
X124724500Y-103299983D01*
X124724500Y-103945500D01*
X124704815Y-104012539D01*
X124652011Y-104058294D01*
X124600500Y-104069500D01*
X124194137Y-104069500D01*
X124127098Y-104049815D01*
X124081343Y-103997011D01*
X124071399Y-103927853D01*
X124074362Y-103913407D01*
X124089346Y-103857482D01*
X124105635Y-103796692D01*
X124125468Y-103570000D01*
X124105635Y-103343308D01*
X124046739Y-103123504D01*
X123950568Y-102917266D01*
X123820047Y-102730861D01*
X123820045Y-102730858D01*
X123659141Y-102569954D01*
X123472734Y-102439432D01*
X123472728Y-102439429D01*
X123414725Y-102412382D01*
X123362285Y-102366210D01*
X123343133Y-102299017D01*
X123363348Y-102232135D01*
X123414725Y-102187618D01*
X123472734Y-102160568D01*
X123659139Y-102030047D01*
X123820047Y-101869139D01*
X123950568Y-101682734D01*
X124046739Y-101476496D01*
X124105635Y-101256692D01*
X124125468Y-101030000D01*
X124125060Y-101025341D01*
X124108646Y-100837723D01*
X124105635Y-100803308D01*
X124046739Y-100583504D01*
X123950568Y-100377266D01*
X123820047Y-100190861D01*
X123820045Y-100190858D01*
X123659141Y-100029954D01*
X123472734Y-99899432D01*
X123472728Y-99899429D01*
X123414725Y-99872382D01*
X123362285Y-99826210D01*
X123343133Y-99759017D01*
X123363348Y-99692135D01*
X123414725Y-99647618D01*
X123472734Y-99620568D01*
X123659139Y-99490047D01*
X123820047Y-99329139D01*
X123950568Y-99142734D01*
X124046739Y-98936496D01*
X124083309Y-98800013D01*
X124675000Y-98800013D01*
X124675000Y-99250000D01*
X125500000Y-99250000D01*
X126000000Y-99250000D01*
X126824999Y-99250000D01*
X126824999Y-98800028D01*
X126824998Y-98800013D01*
X127625000Y-98800013D01*
X127625000Y-99250000D01*
X128450000Y-99250000D01*
X128950000Y-99250000D01*
X129774999Y-99250000D01*
X129774999Y-98800028D01*
X129774998Y-98800013D01*
X129764505Y-98697302D01*
X129709358Y-98530880D01*
X129709356Y-98530875D01*
X129617315Y-98381654D01*
X129493345Y-98257684D01*
X129403319Y-98202155D01*
X133000000Y-98202155D01*
X133000000Y-98500000D01*
X133750000Y-98500000D01*
X133750000Y-97750000D01*
X133452155Y-97750000D01*
X133392627Y-97756401D01*
X133392620Y-97756403D01*
X133257913Y-97806645D01*
X133257906Y-97806649D01*
X133142812Y-97892809D01*
X133142809Y-97892812D01*
X133056649Y-98007906D01*
X133056645Y-98007913D01*
X133006403Y-98142620D01*
X133006401Y-98142627D01*
X133000000Y-98202155D01*
X129403319Y-98202155D01*
X129344124Y-98165643D01*
X129344119Y-98165641D01*
X129177697Y-98110494D01*
X129177690Y-98110493D01*
X129074986Y-98100000D01*
X128950000Y-98100000D01*
X128950000Y-99250000D01*
X128450000Y-99250000D01*
X128450000Y-98100000D01*
X128325027Y-98100000D01*
X128325012Y-98100001D01*
X128222302Y-98110494D01*
X128055880Y-98165641D01*
X128055875Y-98165643D01*
X127906654Y-98257684D01*
X127782684Y-98381654D01*
X127690643Y-98530875D01*
X127690641Y-98530880D01*
X127635494Y-98697302D01*
X127635493Y-98697309D01*
X127625000Y-98800013D01*
X126824998Y-98800013D01*
X126814505Y-98697302D01*
X126759358Y-98530880D01*
X126759356Y-98530875D01*
X126667315Y-98381654D01*
X126543345Y-98257684D01*
X126394124Y-98165643D01*
X126394119Y-98165641D01*
X126227697Y-98110494D01*
X126227690Y-98110493D01*
X126124986Y-98100000D01*
X126000000Y-98100000D01*
X126000000Y-99250000D01*
X125500000Y-99250000D01*
X125500000Y-98100000D01*
X125375027Y-98100000D01*
X125375012Y-98100001D01*
X125272302Y-98110494D01*
X125105880Y-98165641D01*
X125105875Y-98165643D01*
X124956654Y-98257684D01*
X124832684Y-98381654D01*
X124740643Y-98530875D01*
X124740641Y-98530880D01*
X124685494Y-98697302D01*
X124685493Y-98697309D01*
X124675000Y-98800013D01*
X124083309Y-98800013D01*
X124105635Y-98716692D01*
X124125468Y-98490000D01*
X124105635Y-98263308D01*
X124060472Y-98094755D01*
X124046741Y-98043511D01*
X124046738Y-98043502D01*
X124046414Y-98042808D01*
X123950568Y-97837266D01*
X123824728Y-97657546D01*
X123820045Y-97650858D01*
X123659141Y-97489954D01*
X123472734Y-97359432D01*
X123472728Y-97359429D01*
X123414725Y-97332382D01*
X123362285Y-97286210D01*
X123343133Y-97219017D01*
X123363348Y-97152135D01*
X123414725Y-97107618D01*
X123472734Y-97080568D01*
X123659139Y-96950047D01*
X123820047Y-96789139D01*
X123950568Y-96602734D01*
X124046739Y-96396496D01*
X124105635Y-96176692D01*
X124123525Y-95972204D01*
X124125468Y-95950001D01*
X124125468Y-95949998D01*
X124116064Y-95842516D01*
X124105635Y-95723308D01*
X124047463Y-95506206D01*
X124046741Y-95503511D01*
X124046738Y-95503502D01*
X124031641Y-95471127D01*
X123950568Y-95297266D01*
X123820047Y-95110861D01*
X123820045Y-95110858D01*
X123659141Y-94949954D01*
X123472734Y-94819432D01*
X123472732Y-94819431D01*
X123266497Y-94723261D01*
X123266488Y-94723258D01*
X123046697Y-94664366D01*
X123046693Y-94664365D01*
X123046692Y-94664365D01*
X123046691Y-94664364D01*
X123046686Y-94664364D01*
X122820002Y-94644532D01*
X122819998Y-94644532D01*
X122593313Y-94664364D01*
X122593302Y-94664366D01*
X122373511Y-94723258D01*
X122373502Y-94723261D01*
X122167267Y-94819431D01*
X122167265Y-94819432D01*
X121980858Y-94949954D01*
X121819954Y-95110858D01*
X121689432Y-95297265D01*
X121689431Y-95297267D01*
X121593261Y-95503502D01*
X121593258Y-95503511D01*
X121534366Y-95723302D01*
X121534364Y-95723313D01*
X121514532Y-95949998D01*
X121514532Y-95950001D01*
X121534364Y-96176686D01*
X121534366Y-96176697D01*
X121593258Y-96396488D01*
X121593261Y-96396497D01*
X121689431Y-96602732D01*
X121689432Y-96602734D01*
X121819954Y-96789141D01*
X121980858Y-96950045D01*
X121980861Y-96950047D01*
X122167266Y-97080568D01*
X122225275Y-97107618D01*
X122277714Y-97153791D01*
X122296866Y-97220984D01*
X122276650Y-97287865D01*
X122225275Y-97332382D01*
X122167267Y-97359431D01*
X122167265Y-97359432D01*
X121980858Y-97489954D01*
X121819954Y-97650858D01*
X121689432Y-97837265D01*
X121689431Y-97837267D01*
X121593261Y-98043502D01*
X121593258Y-98043511D01*
X121534366Y-98263302D01*
X121534364Y-98263313D01*
X121514532Y-98489998D01*
X121514532Y-98490001D01*
X121534364Y-98716686D01*
X121534366Y-98716697D01*
X121593258Y-98936488D01*
X121593261Y-98936497D01*
X121689431Y-99142732D01*
X121689432Y-99142734D01*
X121819954Y-99329141D01*
X121980858Y-99490045D01*
X121980861Y-99490047D01*
X122167266Y-99620568D01*
X122198801Y-99635273D01*
X122225275Y-99647618D01*
X122277714Y-99693791D01*
X122296866Y-99760984D01*
X122276650Y-99827865D01*
X122225275Y-99872382D01*
X122167267Y-99899431D01*
X122167265Y-99899432D01*
X121980858Y-100029954D01*
X121819954Y-100190858D01*
X121689432Y-100377265D01*
X121689431Y-100377267D01*
X121593261Y-100583502D01*
X121593258Y-100583511D01*
X121534366Y-100803302D01*
X121534364Y-100803313D01*
X121514532Y-101029998D01*
X121514532Y-101030001D01*
X121534364Y-101256686D01*
X121534366Y-101256697D01*
X121593258Y-101476488D01*
X121593261Y-101476497D01*
X121689431Y-101682732D01*
X121689432Y-101682734D01*
X121819954Y-101869141D01*
X121980858Y-102030045D01*
X121980861Y-102030047D01*
X122167266Y-102160568D01*
X122225275Y-102187618D01*
X122277714Y-102233791D01*
X122296866Y-102300984D01*
X122276650Y-102367865D01*
X122225275Y-102412382D01*
X122167267Y-102439431D01*
X122167265Y-102439432D01*
X121980858Y-102569954D01*
X121819954Y-102730858D01*
X121689432Y-102917265D01*
X121689431Y-102917267D01*
X121593261Y-103123502D01*
X121593258Y-103123511D01*
X121534366Y-103343302D01*
X121534364Y-103343313D01*
X121514532Y-103569998D01*
X121514532Y-103570001D01*
X121534364Y-103796686D01*
X121534366Y-103796697D01*
X121593258Y-104016488D01*
X121593260Y-104016492D01*
X121593261Y-104016496D01*
X121623201Y-104080702D01*
X121689430Y-104222731D01*
X121689431Y-104222733D01*
X121689432Y-104222734D01*
X121743611Y-104300111D01*
X121765938Y-104366315D01*
X121748928Y-104434082D01*
X121729717Y-104458913D01*
X116837680Y-109350950D01*
X116776357Y-109384435D01*
X116706665Y-109379451D01*
X116662318Y-109350950D01*
X110731017Y-103419649D01*
X110697532Y-103358326D01*
X110700767Y-103293650D01*
X110713477Y-103254534D01*
X110745500Y-103052352D01*
X110745500Y-102847648D01*
X110727053Y-102731179D01*
X110713477Y-102645465D01*
X110683155Y-102552144D01*
X110650220Y-102450781D01*
X110650218Y-102450778D01*
X110650218Y-102450776D01*
X110607129Y-102366210D01*
X110557287Y-102268390D01*
X110531146Y-102232410D01*
X110436971Y-102102786D01*
X110292213Y-101958028D01*
X110126613Y-101837715D01*
X110126612Y-101837714D01*
X110126610Y-101837713D01*
X109944219Y-101744780D01*
X109749534Y-101681523D01*
X109749531Y-101681522D01*
X109749532Y-101681522D01*
X109638849Y-101663991D01*
X109575714Y-101634061D01*
X109570567Y-101629199D01*
X104716818Y-96775450D01*
X104683333Y-96714127D01*
X104680499Y-96687769D01*
X104680499Y-96499998D01*
X109694532Y-96499998D01*
X109694532Y-96500000D01*
X109714364Y-96726686D01*
X109714366Y-96726697D01*
X109773258Y-96946488D01*
X109773261Y-96946497D01*
X109869431Y-97152732D01*
X109869432Y-97152734D01*
X109999954Y-97339141D01*
X110160858Y-97500045D01*
X110181748Y-97514672D01*
X110347266Y-97630568D01*
X110553504Y-97726739D01*
X110773308Y-97785635D01*
X110935230Y-97799801D01*
X110999998Y-97805468D01*
X111000000Y-97805468D01*
X111000002Y-97805468D01*
X111056807Y-97800498D01*
X111226692Y-97785635D01*
X111446496Y-97726739D01*
X111652734Y-97630568D01*
X111839139Y-97500047D01*
X112000047Y-97339139D01*
X112130568Y-97152734D01*
X112226739Y-96946496D01*
X112285635Y-96726692D01*
X112305468Y-96500000D01*
X112285635Y-96273308D01*
X112226739Y-96053504D01*
X112130568Y-95847266D01*
X112000047Y-95660861D01*
X112000045Y-95660858D01*
X111839141Y-95499954D01*
X111652734Y-95369432D01*
X111652732Y-95369431D01*
X111446497Y-95273261D01*
X111446488Y-95273258D01*
X111226697Y-95214366D01*
X111226693Y-95214365D01*
X111226692Y-95214365D01*
X111226691Y-95214364D01*
X111226686Y-95214364D01*
X111000002Y-95194532D01*
X110999998Y-95194532D01*
X110773313Y-95214364D01*
X110773302Y-95214366D01*
X110553511Y-95273258D01*
X110553502Y-95273261D01*
X110347267Y-95369431D01*
X110347265Y-95369432D01*
X110160858Y-95499954D01*
X109999954Y-95660858D01*
X109869432Y-95847265D01*
X109869431Y-95847267D01*
X109773261Y-96053502D01*
X109773258Y-96053511D01*
X109714366Y-96273302D01*
X109714364Y-96273313D01*
X109694532Y-96499998D01*
X104680499Y-96499998D01*
X104680499Y-95652129D01*
X104680498Y-95652123D01*
X104680497Y-95652116D01*
X104674091Y-95592517D01*
X104651627Y-95532289D01*
X104623797Y-95457671D01*
X104623793Y-95457664D01*
X104537547Y-95342455D01*
X104537544Y-95342452D01*
X104422335Y-95256206D01*
X104422328Y-95256202D01*
X104287482Y-95205908D01*
X104287483Y-95205908D01*
X104227883Y-95199501D01*
X104227881Y-95199500D01*
X104227873Y-95199500D01*
X104227864Y-95199500D01*
X102532129Y-95199500D01*
X102532123Y-95199501D01*
X102472516Y-95205908D01*
X102337671Y-95256202D01*
X102337664Y-95256206D01*
X102222455Y-95342452D01*
X102222452Y-95342455D01*
X102136206Y-95457664D01*
X102136202Y-95457671D01*
X102085908Y-95592517D01*
X102079501Y-95652116D01*
X102079501Y-95652123D01*
X102079500Y-95652135D01*
X102079500Y-97347870D01*
X102079501Y-97347876D01*
X102085908Y-97407483D01*
X102136202Y-97542328D01*
X102136206Y-97542335D01*
X102222452Y-97657544D01*
X102222455Y-97657547D01*
X102337664Y-97743793D01*
X102337671Y-97743797D01*
X102472517Y-97794091D01*
X102472516Y-97794091D01*
X102479444Y-97794835D01*
X102532127Y-97800500D01*
X103567769Y-97800499D01*
X103634808Y-97820183D01*
X103655450Y-97836818D01*
X107699541Y-101880909D01*
X107733026Y-101942232D01*
X107728042Y-102011924D01*
X107699543Y-102056269D01*
X107653036Y-102102777D01*
X107653030Y-102102784D01*
X107532715Y-102268386D01*
X107439781Y-102450776D01*
X107376522Y-102645465D01*
X107344500Y-102847648D01*
X107344500Y-103052351D01*
X107376522Y-103254534D01*
X107439781Y-103449223D01*
X107501320Y-103569998D01*
X107528153Y-103622661D01*
X107532715Y-103631613D01*
X107653028Y-103797213D01*
X107797786Y-103941971D01*
X107901258Y-104017146D01*
X107963390Y-104062287D01*
X108052212Y-104107544D01*
X108056080Y-104109515D01*
X108106876Y-104157490D01*
X108123671Y-104225311D01*
X108101134Y-104291446D01*
X108056080Y-104330485D01*
X107963386Y-104377715D01*
X107797786Y-104498028D01*
X107653028Y-104642786D01*
X107532715Y-104808386D01*
X107439781Y-104990776D01*
X107376522Y-105185465D01*
X107345763Y-105379672D01*
X107344500Y-105387648D01*
X107344500Y-105592352D01*
X107348878Y-105619995D01*
X107376522Y-105794534D01*
X107439781Y-105989223D01*
X107502581Y-106112472D01*
X107529655Y-106165609D01*
X107532715Y-106171613D01*
X107653028Y-106337213D01*
X107797786Y-106481971D01*
X107952749Y-106594556D01*
X107963390Y-106602287D01*
X108054840Y-106648883D01*
X108056080Y-106649515D01*
X108106876Y-106697490D01*
X108123671Y-106765311D01*
X108101134Y-106831446D01*
X108056080Y-106870485D01*
X107963386Y-106917715D01*
X107797786Y-107038028D01*
X107653028Y-107182786D01*
X107532715Y-107348386D01*
X107439781Y-107530776D01*
X107376522Y-107725465D01*
X107344500Y-107927648D01*
X107344500Y-108132351D01*
X107376522Y-108334534D01*
X107439781Y-108529223D01*
X107483487Y-108614999D01*
X107530323Y-108706920D01*
X107532715Y-108711613D01*
X107653028Y-108877213D01*
X107797786Y-109021971D01*
X107905877Y-109100502D01*
X107963390Y-109142287D01*
X108032429Y-109177464D01*
X108056080Y-109189515D01*
X108106876Y-109237490D01*
X108123671Y-109305311D01*
X108101134Y-109371446D01*
X108056080Y-109410485D01*
X107963386Y-109457715D01*
X107797786Y-109578028D01*
X107653028Y-109722786D01*
X107532715Y-109888386D01*
X107439781Y-110070776D01*
X107376522Y-110265465D01*
X107344500Y-110467648D01*
X107344500Y-110672351D01*
X107376522Y-110874534D01*
X107439781Y-111069223D01*
X107503691Y-111194653D01*
X107532147Y-111250500D01*
X107532715Y-111251613D01*
X107642423Y-111402615D01*
X107665903Y-111468421D01*
X107650077Y-111536475D01*
X107599971Y-111585170D01*
X107542105Y-111599500D01*
X105965808Y-111599500D01*
X105898769Y-111579815D01*
X105878127Y-111563181D01*
X103031122Y-108716176D01*
X102997637Y-108654853D01*
X103002621Y-108585161D01*
X103008313Y-108572212D01*
X103030220Y-108529219D01*
X103093477Y-108334534D01*
X103125500Y-108132352D01*
X103125500Y-107927648D01*
X103102068Y-107779707D01*
X103093477Y-107725465D01*
X103043478Y-107571586D01*
X103030220Y-107530781D01*
X103030218Y-107530778D01*
X103030218Y-107530776D01*
X102948137Y-107369685D01*
X102937287Y-107348390D01*
X102928055Y-107335683D01*
X102816971Y-107182786D01*
X102672213Y-107038028D01*
X102506614Y-106917715D01*
X102467615Y-106897844D01*
X102413917Y-106870483D01*
X102363123Y-106822511D01*
X102346328Y-106754690D01*
X102368865Y-106688555D01*
X102413917Y-106649516D01*
X102506610Y-106602287D01*
X102544194Y-106574981D01*
X102672213Y-106481971D01*
X102672215Y-106481968D01*
X102672219Y-106481966D01*
X102816966Y-106337219D01*
X102816968Y-106337215D01*
X102816971Y-106337213D01*
X102909969Y-106209210D01*
X102937287Y-106171610D01*
X103030220Y-105989219D01*
X103093477Y-105794534D01*
X103125500Y-105592352D01*
X103125500Y-105387648D01*
X103117132Y-105334814D01*
X103093477Y-105185465D01*
X103064127Y-105095137D01*
X103030220Y-104990781D01*
X103030218Y-104990778D01*
X103030218Y-104990776D01*
X102996503Y-104924607D01*
X102937287Y-104808390D01*
X102895228Y-104750500D01*
X102816971Y-104642786D01*
X102672219Y-104498034D01*
X102635930Y-104471669D01*
X102593264Y-104416339D01*
X102587285Y-104346726D01*
X102619890Y-104284931D01*
X102680728Y-104250573D01*
X102695562Y-104248060D01*
X102732483Y-104244091D01*
X102801158Y-104218477D01*
X102867331Y-104193796D01*
X102982546Y-104107546D01*
X103068796Y-103992331D01*
X103119091Y-103857483D01*
X103125500Y-103797873D01*
X103125499Y-102102128D01*
X103119091Y-102042517D01*
X103114439Y-102030045D01*
X103068797Y-101907671D01*
X103068793Y-101907664D01*
X102982547Y-101792455D01*
X102982544Y-101792452D01*
X102867335Y-101706206D01*
X102867328Y-101706202D01*
X102732482Y-101655908D01*
X102732483Y-101655908D01*
X102672883Y-101649501D01*
X102672881Y-101649500D01*
X102672873Y-101649500D01*
X102672864Y-101649500D01*
X100177129Y-101649500D01*
X100177123Y-101649501D01*
X100117516Y-101655908D01*
X99982671Y-101706202D01*
X99982664Y-101706206D01*
X99867455Y-101792452D01*
X99867452Y-101792455D01*
X99781206Y-101907664D01*
X99781202Y-101907671D01*
X99730908Y-102042517D01*
X99729430Y-102056269D01*
X99724500Y-102102127D01*
X99724500Y-102610001D01*
X99724501Y-103025500D01*
X99704817Y-103092539D01*
X99652013Y-103138294D01*
X99600501Y-103149500D01*
X96899196Y-103149500D01*
X96832157Y-103129815D01*
X96786402Y-103077011D01*
X96776458Y-103007853D01*
X96784635Y-102978047D01*
X96800501Y-102939744D01*
X96825500Y-102814069D01*
X96825500Y-102685931D01*
X96825500Y-102685928D01*
X96800502Y-102560261D01*
X96800501Y-102560260D01*
X96800501Y-102560256D01*
X96751465Y-102441873D01*
X96751464Y-102441872D01*
X96751461Y-102441866D01*
X96680276Y-102335331D01*
X96680273Y-102335327D01*
X96589672Y-102244726D01*
X96589668Y-102244723D01*
X96483133Y-102173538D01*
X96483128Y-102173536D01*
X96483127Y-102173535D01*
X96445553Y-102157971D01*
X96405326Y-102131091D01*
X92435277Y-98161042D01*
X92401792Y-98099719D01*
X92406776Y-98030027D01*
X92448646Y-97974096D01*
X92537546Y-97907546D01*
X92623796Y-97792331D01*
X92674091Y-97657483D01*
X92680500Y-97597873D01*
X92680499Y-96499999D01*
X97721127Y-96499999D01*
X97721128Y-96500000D01*
X98684314Y-96500000D01*
X98679920Y-96504394D01*
X98627259Y-96595606D01*
X98600000Y-96697339D01*
X98600000Y-96802661D01*
X98627259Y-96904394D01*
X98679920Y-96995606D01*
X98684314Y-97000000D01*
X97721128Y-97000000D01*
X97773730Y-97196317D01*
X97773734Y-97196326D01*
X97869865Y-97402482D01*
X98000342Y-97588820D01*
X98161179Y-97749657D01*
X98347517Y-97880134D01*
X98553673Y-97976265D01*
X98553682Y-97976269D01*
X98749999Y-98028872D01*
X98750000Y-98028871D01*
X98750000Y-97065686D01*
X98754394Y-97070080D01*
X98845606Y-97122741D01*
X98947339Y-97150000D01*
X99052661Y-97150000D01*
X99154394Y-97122741D01*
X99245606Y-97070080D01*
X99250000Y-97065686D01*
X99250000Y-98028872D01*
X99446317Y-97976269D01*
X99446326Y-97976265D01*
X99652482Y-97880134D01*
X99838820Y-97749657D01*
X99999657Y-97588820D01*
X100130134Y-97402482D01*
X100226265Y-97196326D01*
X100226269Y-97196317D01*
X100278872Y-97000000D01*
X99315686Y-97000000D01*
X99320080Y-96995606D01*
X99372741Y-96904394D01*
X99400000Y-96802661D01*
X99400000Y-96697339D01*
X99372741Y-96595606D01*
X99320080Y-96504394D01*
X99315686Y-96500000D01*
X100278872Y-96500000D01*
X100278872Y-96499999D01*
X100226269Y-96303682D01*
X100226265Y-96303673D01*
X100130134Y-96097517D01*
X99999657Y-95911179D01*
X99838820Y-95750342D01*
X99652482Y-95619865D01*
X99446328Y-95523734D01*
X99250000Y-95471127D01*
X99250000Y-96434314D01*
X99245606Y-96429920D01*
X99154394Y-96377259D01*
X99052661Y-96350000D01*
X98947339Y-96350000D01*
X98845606Y-96377259D01*
X98754394Y-96429920D01*
X98750000Y-96434314D01*
X98750000Y-95471127D01*
X98553671Y-95523734D01*
X98347517Y-95619865D01*
X98161179Y-95750342D01*
X98000342Y-95911179D01*
X97869865Y-96097517D01*
X97773734Y-96303673D01*
X97773730Y-96303682D01*
X97721127Y-96499999D01*
X92680499Y-96499999D01*
X92680499Y-95902128D01*
X92674091Y-95842517D01*
X92660347Y-95805668D01*
X92623797Y-95707671D01*
X92623793Y-95707664D01*
X92537547Y-95592455D01*
X92537544Y-95592452D01*
X92422335Y-95506206D01*
X92422328Y-95506202D01*
X92287482Y-95455908D01*
X92287483Y-95455908D01*
X92227883Y-95449501D01*
X92227881Y-95449500D01*
X92227873Y-95449500D01*
X92227864Y-95449500D01*
X90532129Y-95449500D01*
X90532123Y-95449501D01*
X90472516Y-95455908D01*
X90337671Y-95506202D01*
X90337664Y-95506206D01*
X90222455Y-95592452D01*
X90222452Y-95592455D01*
X90136206Y-95707664D01*
X90136202Y-95707671D01*
X90085908Y-95842517D01*
X90081734Y-95881344D01*
X90079501Y-95902123D01*
X90079500Y-95902135D01*
X90079500Y-97597870D01*
X90079501Y-97597876D01*
X90085908Y-97657483D01*
X90136202Y-97792328D01*
X90136206Y-97792335D01*
X90222452Y-97907544D01*
X90222455Y-97907547D01*
X90337664Y-97993793D01*
X90337671Y-97993797D01*
X90375500Y-98007906D01*
X90472517Y-98044091D01*
X90532127Y-98050500D01*
X90688756Y-98050499D01*
X90755795Y-98070183D01*
X90801550Y-98122987D01*
X90808530Y-98142404D01*
X90820421Y-98186781D01*
X90820422Y-98186784D01*
X90820423Y-98186785D01*
X90843834Y-98227334D01*
X90899477Y-98323712D01*
X90899481Y-98323717D01*
X91018349Y-98442585D01*
X91018355Y-98442590D01*
X93888584Y-101312819D01*
X93922069Y-101374142D01*
X93917085Y-101443834D01*
X93875213Y-101499767D01*
X93809749Y-101524184D01*
X93800903Y-101524500D01*
X93449998Y-101524500D01*
X93449980Y-101524501D01*
X93347203Y-101535000D01*
X93347200Y-101535001D01*
X93180668Y-101590185D01*
X93180663Y-101590187D01*
X93031342Y-101682289D01*
X92907285Y-101806346D01*
X92905537Y-101809182D01*
X92903829Y-101810717D01*
X92902807Y-101812011D01*
X92902585Y-101811836D01*
X92853589Y-101855905D01*
X92784626Y-101867126D01*
X92720544Y-101839282D01*
X92694463Y-101809182D01*
X92692714Y-101806346D01*
X92568657Y-101682289D01*
X92568656Y-101682288D01*
X92419334Y-101590186D01*
X92252797Y-101535001D01*
X92252795Y-101535000D01*
X92150010Y-101524500D01*
X91549998Y-101524500D01*
X91549980Y-101524501D01*
X91447203Y-101535000D01*
X91447200Y-101535001D01*
X91280668Y-101590185D01*
X91280663Y-101590187D01*
X91131342Y-101682289D01*
X91002181Y-101811451D01*
X91000294Y-101809564D01*
X90953375Y-101842788D01*
X90913132Y-101849500D01*
X90427481Y-101849500D01*
X90360442Y-101829815D01*
X90314687Y-101777011D01*
X90304123Y-101738101D01*
X90302499Y-101722203D01*
X90302498Y-101722200D01*
X90289420Y-101682734D01*
X90247314Y-101555666D01*
X90155212Y-101406344D01*
X90031156Y-101282288D01*
X89881834Y-101190186D01*
X89715297Y-101135001D01*
X89715295Y-101135000D01*
X89612510Y-101124500D01*
X88887498Y-101124500D01*
X88887480Y-101124501D01*
X88784703Y-101135000D01*
X88784697Y-101135002D01*
X88702812Y-101162136D01*
X88632984Y-101164538D01*
X88572942Y-101128806D01*
X88541750Y-101066285D01*
X88544034Y-101012338D01*
X88563001Y-100941557D01*
X88563001Y-100783442D01*
X88563001Y-100775847D01*
X88563000Y-100775829D01*
X88563000Y-98148347D01*
X88582685Y-98081308D01*
X88621901Y-98042810D01*
X88743656Y-97967712D01*
X88867712Y-97843656D01*
X88959814Y-97694334D01*
X89014999Y-97527797D01*
X89025500Y-97425009D01*
X89025499Y-96074992D01*
X89014999Y-95972203D01*
X88959814Y-95805666D01*
X88867712Y-95656344D01*
X88743656Y-95532288D01*
X88609436Y-95449501D01*
X88594336Y-95440187D01*
X88594331Y-95440185D01*
X88592862Y-95439698D01*
X88427797Y-95385001D01*
X88427795Y-95385000D01*
X88325010Y-95374500D01*
X87599998Y-95374500D01*
X87599980Y-95374501D01*
X87497203Y-95385000D01*
X87497200Y-95385001D01*
X87330668Y-95440185D01*
X87330663Y-95440187D01*
X87181342Y-95532289D01*
X87057289Y-95656342D01*
X86965187Y-95805663D01*
X86965186Y-95805666D01*
X86910001Y-95972203D01*
X86910001Y-95972204D01*
X86910000Y-95972204D01*
X86899500Y-96074983D01*
X86899500Y-97425001D01*
X86899501Y-97425018D01*
X86910000Y-97527796D01*
X86910001Y-97527799D01*
X86952996Y-97657547D01*
X86965186Y-97694334D01*
X87057288Y-97843656D01*
X87181344Y-97967712D01*
X87303097Y-98042809D01*
X87349821Y-98094755D01*
X87362000Y-98148347D01*
X87362000Y-100562401D01*
X87342315Y-100629440D01*
X87325681Y-100650082D01*
X86877749Y-101098013D01*
X86816426Y-101131498D01*
X86777465Y-101133690D01*
X86687510Y-101124500D01*
X85962498Y-101124500D01*
X85962480Y-101124501D01*
X85859703Y-101135000D01*
X85859700Y-101135001D01*
X85693168Y-101190185D01*
X85693163Y-101190187D01*
X85543842Y-101282289D01*
X85419789Y-101406342D01*
X85327687Y-101555663D01*
X85327685Y-101555668D01*
X85301708Y-101634061D01*
X85272501Y-101722203D01*
X85272501Y-101722204D01*
X85272500Y-101722204D01*
X85262000Y-101824983D01*
X85262000Y-103175001D01*
X85262001Y-103175018D01*
X85272500Y-103277796D01*
X85272501Y-103277799D01*
X85327685Y-103444331D01*
X85327687Y-103444336D01*
X85362569Y-103500888D01*
X85419788Y-103593656D01*
X85543844Y-103717712D01*
X85693166Y-103809814D01*
X85859703Y-103864999D01*
X85962491Y-103875500D01*
X86655192Y-103875499D01*
X86722231Y-103895183D01*
X86767986Y-103947987D01*
X86777930Y-104017146D01*
X86748905Y-104080702D01*
X86742873Y-104087180D01*
X85819723Y-105010330D01*
X85812500Y-105021141D01*
X85784229Y-105063453D01*
X85748538Y-105116867D01*
X85748533Y-105116875D01*
X85699499Y-105235255D01*
X85699497Y-105235261D01*
X85674500Y-105360928D01*
X85674500Y-105882491D01*
X85654815Y-105949530D01*
X85615598Y-105988029D01*
X85543844Y-106032287D01*
X85419789Y-106156342D01*
X85327687Y-106305663D01*
X85327686Y-106305666D01*
X85272501Y-106472203D01*
X85272501Y-106472204D01*
X85272500Y-106472204D01*
X85262000Y-106574983D01*
X85262000Y-107151270D01*
X85242315Y-107218309D01*
X85189511Y-107264064D01*
X85120353Y-107274008D01*
X85056797Y-107244983D01*
X85050319Y-107238951D01*
X84081901Y-106270533D01*
X84048416Y-106209210D01*
X84049007Y-106153910D01*
X84085683Y-106001148D01*
X84105449Y-105750000D01*
X84085683Y-105498852D01*
X84026873Y-105253889D01*
X83998531Y-105185465D01*
X83930466Y-105021140D01*
X83798839Y-104806346D01*
X83798838Y-104806343D01*
X83751143Y-104750500D01*
X83635224Y-104614776D01*
X83498530Y-104498028D01*
X83443656Y-104451161D01*
X83443653Y-104451160D01*
X83228859Y-104319533D01*
X82996110Y-104223126D01*
X82751151Y-104164317D01*
X82500000Y-104144551D01*
X82248848Y-104164317D01*
X82003889Y-104223126D01*
X81771145Y-104319531D01*
X81638555Y-104400783D01*
X81571109Y-104419027D01*
X81504506Y-104397910D01*
X81474499Y-104369366D01*
X81417190Y-104292812D01*
X81417187Y-104292809D01*
X81302093Y-104206649D01*
X81302086Y-104206645D01*
X81167379Y-104156403D01*
X81167372Y-104156401D01*
X81107844Y-104150000D01*
X80210000Y-104150000D01*
X80210000Y-105259252D01*
X80172292Y-105237482D01*
X80032409Y-105200000D01*
X79887591Y-105200000D01*
X79747708Y-105237482D01*
X79710000Y-105259252D01*
X79710000Y-104150000D01*
X78812155Y-104150000D01*
X78752627Y-104156401D01*
X78752620Y-104156403D01*
X78617913Y-104206645D01*
X78617906Y-104206649D01*
X78502812Y-104292809D01*
X78502809Y-104292812D01*
X78416649Y-104407906D01*
X78416645Y-104407913D01*
X78366403Y-104542620D01*
X78366401Y-104542627D01*
X78360000Y-104602155D01*
X76500500Y-104602155D01*
X76500500Y-97699986D01*
X77975001Y-97699986D01*
X77985494Y-97802697D01*
X78040641Y-97969119D01*
X78040643Y-97969124D01*
X78132684Y-98118345D01*
X78256654Y-98242315D01*
X78405875Y-98334356D01*
X78405880Y-98334358D01*
X78572302Y-98389505D01*
X78572309Y-98389506D01*
X78675019Y-98399999D01*
X78799999Y-98399999D01*
X79300000Y-98399999D01*
X79424972Y-98399999D01*
X79424986Y-98399998D01*
X79527697Y-98389505D01*
X79694119Y-98334358D01*
X79694124Y-98334356D01*
X79843345Y-98242315D01*
X79967315Y-98118345D01*
X80059356Y-97969124D01*
X80059358Y-97969119D01*
X80114505Y-97802697D01*
X80114506Y-97802690D01*
X80124999Y-97699986D01*
X80125000Y-97699973D01*
X80125000Y-97250000D01*
X79300000Y-97250000D01*
X79300000Y-98399999D01*
X78799999Y-98399999D01*
X78800000Y-98399998D01*
X78800000Y-97250000D01*
X77975001Y-97250000D01*
X77975001Y-97699986D01*
X76500500Y-97699986D01*
X76500500Y-96300013D01*
X77975000Y-96300013D01*
X77975000Y-96750000D01*
X78800000Y-96750000D01*
X79300000Y-96750000D01*
X80124999Y-96750000D01*
X80124999Y-96300028D01*
X80124998Y-96300013D01*
X80124995Y-96299983D01*
X80924500Y-96299983D01*
X80924500Y-97700001D01*
X80924501Y-97700018D01*
X80935000Y-97802796D01*
X80935001Y-97802799D01*
X80990185Y-97969331D01*
X80990187Y-97969336D01*
X81005272Y-97993793D01*
X81082288Y-98118656D01*
X81206344Y-98242712D01*
X81355666Y-98334814D01*
X81522203Y-98389999D01*
X81624991Y-98400500D01*
X82375008Y-98400499D01*
X82375016Y-98400498D01*
X82375019Y-98400498D01*
X82431302Y-98394748D01*
X82477797Y-98389999D01*
X82644334Y-98334814D01*
X82793656Y-98242712D01*
X82917712Y-98118656D01*
X83009814Y-97969334D01*
X83064999Y-97802797D01*
X83072769Y-97726741D01*
X83074286Y-97711897D01*
X83100683Y-97647205D01*
X83157864Y-97607054D01*
X83197644Y-97600500D01*
X83919551Y-97600500D01*
X83986590Y-97620185D01*
X84032345Y-97672989D01*
X84037256Y-97685493D01*
X84040186Y-97694334D01*
X84132288Y-97843656D01*
X84256344Y-97967712D01*
X84405666Y-98059814D01*
X84572203Y-98114999D01*
X84674991Y-98125500D01*
X85400008Y-98125499D01*
X85400016Y-98125498D01*
X85400019Y-98125498D01*
X85466997Y-98118656D01*
X85502797Y-98114999D01*
X85669334Y-98059814D01*
X85818656Y-97967712D01*
X85942712Y-97843656D01*
X86034814Y-97694334D01*
X86089999Y-97527797D01*
X86100500Y-97425009D01*
X86100499Y-96074992D01*
X86089999Y-95972203D01*
X86034814Y-95805666D01*
X85942712Y-95656344D01*
X85818656Y-95532288D01*
X85684436Y-95449501D01*
X85669336Y-95440187D01*
X85669331Y-95440185D01*
X85667862Y-95439698D01*
X85502797Y-95385001D01*
X85502795Y-95385000D01*
X85400010Y-95374500D01*
X84674998Y-95374500D01*
X84674980Y-95374501D01*
X84572203Y-95385000D01*
X84572200Y-95385001D01*
X84405668Y-95440185D01*
X84405663Y-95440187D01*
X84256342Y-95532289D01*
X84132289Y-95656342D01*
X84040187Y-95805663D01*
X84040186Y-95805666D01*
X83985001Y-95972203D01*
X83985001Y-95972204D01*
X83985000Y-95972204D01*
X83974500Y-96074983D01*
X83974500Y-96275500D01*
X83954815Y-96342539D01*
X83902011Y-96388294D01*
X83850500Y-96399500D01*
X83197643Y-96399500D01*
X83130604Y-96379815D01*
X83084849Y-96327011D01*
X83074285Y-96288102D01*
X83070657Y-96252596D01*
X83064999Y-96197203D01*
X83009814Y-96030666D01*
X82917712Y-95881344D01*
X82793656Y-95757288D01*
X82644334Y-95665186D01*
X82477797Y-95610001D01*
X82477795Y-95610000D01*
X82375010Y-95599500D01*
X81624998Y-95599500D01*
X81624980Y-95599501D01*
X81522203Y-95610000D01*
X81522200Y-95610001D01*
X81355668Y-95665185D01*
X81355663Y-95665187D01*
X81206342Y-95757289D01*
X81082289Y-95881342D01*
X80990187Y-96030663D01*
X80990185Y-96030668D01*
X80982619Y-96053502D01*
X80935001Y-96197203D01*
X80935001Y-96197204D01*
X80935000Y-96197204D01*
X80924500Y-96299983D01*
X80124995Y-96299983D01*
X80114505Y-96197302D01*
X80059358Y-96030880D01*
X80059356Y-96030875D01*
X79967315Y-95881654D01*
X79843345Y-95757684D01*
X79694124Y-95665643D01*
X79694119Y-95665641D01*
X79527697Y-95610494D01*
X79527690Y-95610493D01*
X79424986Y-95600000D01*
X79300000Y-95600000D01*
X79300000Y-96750000D01*
X78800000Y-96750000D01*
X78800000Y-95600000D01*
X78675027Y-95600000D01*
X78675012Y-95600001D01*
X78572302Y-95610494D01*
X78405880Y-95665641D01*
X78405875Y-95665643D01*
X78256654Y-95757684D01*
X78132684Y-95881654D01*
X78040643Y-96030875D01*
X78040641Y-96030880D01*
X77985494Y-96197302D01*
X77985493Y-96197309D01*
X77975000Y-96300013D01*
X76500500Y-96300013D01*
X76500500Y-77298585D01*
X76515074Y-77248949D01*
X76502931Y-77225846D01*
X76500500Y-77201414D01*
X76500500Y-76124500D01*
X76520185Y-76057461D01*
X76572989Y-76011706D01*
X76624500Y-76000500D01*
X77211012Y-76000500D01*
X77278051Y-76020185D01*
G37*
%TD.AperFunction*%
%TA.AperFunction,Conductor*%
G36*
X115542231Y-83920185D02*
G01*
X115587986Y-83972989D01*
X115597930Y-84042147D01*
X115568905Y-84105703D01*
X115562873Y-84112181D01*
X114694722Y-84980331D01*
X114684162Y-84996135D01*
X114673648Y-85011873D01*
X114673647Y-85011875D01*
X114623534Y-85086873D01*
X114574499Y-85205255D01*
X114574497Y-85205261D01*
X114549500Y-85330928D01*
X114549500Y-88880191D01*
X114529815Y-88947230D01*
X114477011Y-88992985D01*
X114407853Y-89002929D01*
X114344297Y-88973904D01*
X114337819Y-88967872D01*
X113364673Y-87994726D01*
X113351811Y-87986132D01*
X113258127Y-87923535D01*
X113139744Y-87874499D01*
X113136068Y-87873767D01*
X113136064Y-87873765D01*
X113136064Y-87873767D01*
X113014071Y-87849500D01*
X113014069Y-87849500D01*
X93255068Y-87849500D01*
X93189096Y-87830494D01*
X93099522Y-87774210D01*
X93099518Y-87774209D01*
X92929262Y-87714633D01*
X92929249Y-87714630D01*
X92750004Y-87694435D01*
X92749996Y-87694435D01*
X92570750Y-87714630D01*
X92570745Y-87714631D01*
X92400476Y-87774211D01*
X92247737Y-87870184D01*
X92120184Y-87997737D01*
X92024211Y-88150476D01*
X91964631Y-88320745D01*
X91964630Y-88320750D01*
X91944435Y-88499996D01*
X91944435Y-88500003D01*
X91964630Y-88679249D01*
X91964631Y-88679254D01*
X92024211Y-88849523D01*
X92093212Y-88959336D01*
X92120184Y-89002262D01*
X92247738Y-89129816D01*
X92400478Y-89225789D01*
X92570739Y-89285366D01*
X92570745Y-89285368D01*
X92570750Y-89285369D01*
X92749996Y-89305565D01*
X92750000Y-89305565D01*
X92750004Y-89305565D01*
X92929249Y-89285369D01*
X92929251Y-89285368D01*
X92929255Y-89285368D01*
X92929258Y-89285366D01*
X92929262Y-89285366D01*
X93019377Y-89253832D01*
X93099522Y-89225789D01*
X93189096Y-89169505D01*
X93255068Y-89150500D01*
X112629192Y-89150500D01*
X112696231Y-89170185D01*
X112716873Y-89186819D01*
X113697407Y-90167353D01*
X113730892Y-90228676D01*
X113725908Y-90298368D01*
X113684036Y-90354301D01*
X113618572Y-90378718D01*
X113577633Y-90374809D01*
X113426697Y-90334366D01*
X113426693Y-90334365D01*
X113426692Y-90334365D01*
X113426691Y-90334364D01*
X113426686Y-90334364D01*
X113200002Y-90314532D01*
X113199998Y-90314532D01*
X112973313Y-90334364D01*
X112973302Y-90334366D01*
X112753511Y-90393258D01*
X112753502Y-90393261D01*
X112547267Y-90489431D01*
X112547265Y-90489432D01*
X112360858Y-90619954D01*
X112199954Y-90780858D01*
X112069432Y-90967265D01*
X112069431Y-90967267D01*
X112042382Y-91025275D01*
X111996209Y-91077714D01*
X111929016Y-91096866D01*
X111862135Y-91076650D01*
X111817618Y-91025275D01*
X111810196Y-91009359D01*
X111790568Y-90967266D01*
X111660047Y-90780861D01*
X111660045Y-90780858D01*
X111499141Y-90619954D01*
X111312734Y-90489432D01*
X111312732Y-90489431D01*
X111106497Y-90393261D01*
X111106488Y-90393258D01*
X110886697Y-90334366D01*
X110886693Y-90334365D01*
X110886692Y-90334365D01*
X110886691Y-90334364D01*
X110886686Y-90334364D01*
X110660002Y-90314532D01*
X110659998Y-90314532D01*
X110433313Y-90334364D01*
X110433302Y-90334366D01*
X110213511Y-90393258D01*
X110213502Y-90393261D01*
X110007267Y-90489431D01*
X110007265Y-90489432D01*
X109820858Y-90619954D01*
X109659954Y-90780858D01*
X109529432Y-90967265D01*
X109529431Y-90967267D01*
X109502382Y-91025275D01*
X109456209Y-91077714D01*
X109389016Y-91096866D01*
X109322135Y-91076650D01*
X109277618Y-91025275D01*
X109270196Y-91009359D01*
X109250568Y-90967266D01*
X109120047Y-90780861D01*
X109120045Y-90780858D01*
X108959141Y-90619954D01*
X108772734Y-90489432D01*
X108772732Y-90489431D01*
X108566497Y-90393261D01*
X108566488Y-90393258D01*
X108346697Y-90334366D01*
X108346693Y-90334365D01*
X108346692Y-90334365D01*
X108346691Y-90334364D01*
X108346686Y-90334364D01*
X108120002Y-90314532D01*
X108119998Y-90314532D01*
X107893313Y-90334364D01*
X107893302Y-90334366D01*
X107673511Y-90393258D01*
X107673502Y-90393261D01*
X107467267Y-90489431D01*
X107467265Y-90489432D01*
X107280858Y-90619954D01*
X107119954Y-90780858D01*
X106989432Y-90967265D01*
X106989431Y-90967267D01*
X106962382Y-91025275D01*
X106916209Y-91077714D01*
X106849016Y-91096866D01*
X106782135Y-91076650D01*
X106737618Y-91025275D01*
X106730196Y-91009359D01*
X106710568Y-90967266D01*
X106580047Y-90780861D01*
X106580045Y-90780858D01*
X106419141Y-90619954D01*
X106232734Y-90489432D01*
X106232732Y-90489431D01*
X106026497Y-90393261D01*
X106026488Y-90393258D01*
X105806697Y-90334366D01*
X105806693Y-90334365D01*
X105806692Y-90334365D01*
X105806691Y-90334364D01*
X105806686Y-90334364D01*
X105580002Y-90314532D01*
X105579998Y-90314532D01*
X105353313Y-90334364D01*
X105353302Y-90334366D01*
X105133511Y-90393258D01*
X105133502Y-90393261D01*
X104927267Y-90489431D01*
X104927265Y-90489432D01*
X104740858Y-90619954D01*
X104579954Y-90780858D01*
X104449432Y-90967265D01*
X104449431Y-90967267D01*
X104422382Y-91025275D01*
X104376209Y-91077714D01*
X104309016Y-91096866D01*
X104242135Y-91076650D01*
X104197618Y-91025275D01*
X104190196Y-91009359D01*
X104170568Y-90967266D01*
X104040047Y-90780861D01*
X104040045Y-90780858D01*
X103879141Y-90619954D01*
X103692734Y-90489432D01*
X103692732Y-90489431D01*
X103486497Y-90393261D01*
X103486488Y-90393258D01*
X103266697Y-90334366D01*
X103266693Y-90334365D01*
X103266692Y-90334365D01*
X103266691Y-90334364D01*
X103266686Y-90334364D01*
X103040002Y-90314532D01*
X103039998Y-90314532D01*
X102813313Y-90334364D01*
X102813302Y-90334366D01*
X102593511Y-90393258D01*
X102593502Y-90393261D01*
X102387267Y-90489431D01*
X102387265Y-90489432D01*
X102200858Y-90619954D01*
X102039954Y-90780858D01*
X101909432Y-90967265D01*
X101909431Y-90967267D01*
X101882382Y-91025275D01*
X101836209Y-91077714D01*
X101769016Y-91096866D01*
X101702135Y-91076650D01*
X101657618Y-91025275D01*
X101650196Y-91009359D01*
X101630568Y-90967266D01*
X101500047Y-90780861D01*
X101500045Y-90780858D01*
X101339141Y-90619954D01*
X101152734Y-90489432D01*
X101152732Y-90489431D01*
X100946497Y-90393261D01*
X100946488Y-90393258D01*
X100726697Y-90334366D01*
X100726693Y-90334365D01*
X100726692Y-90334365D01*
X100726691Y-90334364D01*
X100726686Y-90334364D01*
X100500002Y-90314532D01*
X100499998Y-90314532D01*
X100273313Y-90334364D01*
X100273302Y-90334366D01*
X100053511Y-90393258D01*
X100053502Y-90393261D01*
X99847267Y-90489431D01*
X99847265Y-90489432D01*
X99660858Y-90619954D01*
X99499954Y-90780858D01*
X99369433Y-90967264D01*
X99369432Y-90967266D01*
X99358388Y-90990951D01*
X99342106Y-91025867D01*
X99295933Y-91078306D01*
X99228739Y-91097457D01*
X99161858Y-91077241D01*
X99117342Y-91025865D01*
X99090135Y-90967520D01*
X99090134Y-90967518D01*
X98959657Y-90781179D01*
X98798820Y-90620342D01*
X98612482Y-90489865D01*
X98406328Y-90393734D01*
X98210000Y-90341127D01*
X98210000Y-91304314D01*
X98205606Y-91299920D01*
X98114394Y-91247259D01*
X98012661Y-91220000D01*
X97907339Y-91220000D01*
X97805606Y-91247259D01*
X97714394Y-91299920D01*
X97710000Y-91304314D01*
X97710000Y-90341127D01*
X97513671Y-90393734D01*
X97307517Y-90489865D01*
X97121179Y-90620342D01*
X96960342Y-90781179D01*
X96829867Y-90967515D01*
X96802657Y-91025867D01*
X96756484Y-91078306D01*
X96689290Y-91097457D01*
X96622409Y-91077241D01*
X96577893Y-91025865D01*
X96561612Y-90990951D01*
X96550568Y-90967266D01*
X96420047Y-90780861D01*
X96420045Y-90780858D01*
X96259141Y-90619954D01*
X96072734Y-90489432D01*
X96072732Y-90489431D01*
X95866497Y-90393261D01*
X95866488Y-90393258D01*
X95646697Y-90334366D01*
X95646693Y-90334365D01*
X95646692Y-90334365D01*
X95646691Y-90334364D01*
X95646686Y-90334364D01*
X95420002Y-90314532D01*
X95419998Y-90314532D01*
X95193313Y-90334364D01*
X95193302Y-90334366D01*
X94973511Y-90393258D01*
X94973502Y-90393261D01*
X94767267Y-90489431D01*
X94767265Y-90489432D01*
X94580858Y-90619954D01*
X94419954Y-90780858D01*
X94289432Y-90967265D01*
X94289431Y-90967267D01*
X94262382Y-91025275D01*
X94216209Y-91077714D01*
X94149016Y-91096866D01*
X94082135Y-91076650D01*
X94037618Y-91025275D01*
X94030196Y-91009359D01*
X94010568Y-90967266D01*
X93880047Y-90780861D01*
X93880045Y-90780858D01*
X93719141Y-90619954D01*
X93532734Y-90489432D01*
X93532732Y-90489431D01*
X93326497Y-90393261D01*
X93326488Y-90393258D01*
X93106697Y-90334366D01*
X93106693Y-90334365D01*
X93106692Y-90334365D01*
X93106691Y-90334364D01*
X93106686Y-90334364D01*
X92880002Y-90314532D01*
X92879998Y-90314532D01*
X92653313Y-90334364D01*
X92653302Y-90334366D01*
X92433511Y-90393258D01*
X92433502Y-90393261D01*
X92227267Y-90489431D01*
X92227265Y-90489432D01*
X92040858Y-90619954D01*
X91879954Y-90780858D01*
X91749432Y-90967265D01*
X91749431Y-90967267D01*
X91722382Y-91025275D01*
X91676209Y-91077714D01*
X91609016Y-91096866D01*
X91542135Y-91076650D01*
X91497618Y-91025275D01*
X91490196Y-91009359D01*
X91470568Y-90967266D01*
X91340047Y-90780861D01*
X91340045Y-90780858D01*
X91179141Y-90619954D01*
X90992734Y-90489432D01*
X90992732Y-90489431D01*
X90786497Y-90393261D01*
X90786488Y-90393258D01*
X90566697Y-90334366D01*
X90566693Y-90334365D01*
X90566692Y-90334365D01*
X90566691Y-90334364D01*
X90566686Y-90334364D01*
X90340002Y-90314532D01*
X90339998Y-90314532D01*
X90113313Y-90334364D01*
X90113302Y-90334366D01*
X89893511Y-90393258D01*
X89893502Y-90393261D01*
X89687267Y-90489431D01*
X89687265Y-90489432D01*
X89500858Y-90619954D01*
X89339954Y-90780858D01*
X89209432Y-90967265D01*
X89209431Y-90967267D01*
X89182382Y-91025275D01*
X89136209Y-91077714D01*
X89069016Y-91096866D01*
X89002135Y-91076650D01*
X88957618Y-91025275D01*
X88950196Y-91009359D01*
X88930568Y-90967266D01*
X88800047Y-90780861D01*
X88800045Y-90780858D01*
X88639141Y-90619954D01*
X88452734Y-90489432D01*
X88452732Y-90489431D01*
X88246497Y-90393261D01*
X88246488Y-90393258D01*
X88026697Y-90334366D01*
X88026693Y-90334365D01*
X88026692Y-90334365D01*
X88026691Y-90334364D01*
X88026686Y-90334364D01*
X87800002Y-90314532D01*
X87799998Y-90314532D01*
X87573313Y-90334364D01*
X87573299Y-90334367D01*
X87532834Y-90345209D01*
X87462984Y-90343545D01*
X87413061Y-90313115D01*
X87336819Y-90236873D01*
X87303334Y-90175550D01*
X87300500Y-90149192D01*
X87300500Y-85374136D01*
X87320185Y-85307097D01*
X87372989Y-85261342D01*
X87442147Y-85251398D01*
X87456582Y-85254358D01*
X87573308Y-85285635D01*
X87735230Y-85299801D01*
X87799998Y-85305468D01*
X87800000Y-85305468D01*
X87800002Y-85305468D01*
X87856673Y-85300509D01*
X88026692Y-85285635D01*
X88246496Y-85226739D01*
X88452734Y-85130568D01*
X88639139Y-85000047D01*
X88800047Y-84839139D01*
X88930568Y-84652734D01*
X88957618Y-84594724D01*
X89003790Y-84542285D01*
X89070983Y-84523133D01*
X89137865Y-84543348D01*
X89182382Y-84594725D01*
X89209429Y-84652728D01*
X89209432Y-84652734D01*
X89339954Y-84839141D01*
X89500858Y-85000045D01*
X89500861Y-85000047D01*
X89687266Y-85130568D01*
X89893504Y-85226739D01*
X90113308Y-85285635D01*
X90275230Y-85299801D01*
X90339998Y-85305468D01*
X90340000Y-85305468D01*
X90340002Y-85305468D01*
X90396673Y-85300509D01*
X90566692Y-85285635D01*
X90786496Y-85226739D01*
X90992734Y-85130568D01*
X91179139Y-85000047D01*
X91340047Y-84839139D01*
X91470568Y-84652734D01*
X91497618Y-84594724D01*
X91543790Y-84542285D01*
X91610983Y-84523133D01*
X91677865Y-84543348D01*
X91722382Y-84594725D01*
X91749429Y-84652728D01*
X91749432Y-84652734D01*
X91879954Y-84839141D01*
X92040858Y-85000045D01*
X92040861Y-85000047D01*
X92227266Y-85130568D01*
X92433504Y-85226739D01*
X92653308Y-85285635D01*
X92815230Y-85299801D01*
X92879998Y-85305468D01*
X92880000Y-85305468D01*
X92880002Y-85305468D01*
X92936673Y-85300509D01*
X93106692Y-85285635D01*
X93326496Y-85226739D01*
X93532734Y-85130568D01*
X93719139Y-85000047D01*
X93880047Y-84839139D01*
X94010568Y-84652734D01*
X94037895Y-84594129D01*
X94084064Y-84541695D01*
X94151257Y-84522542D01*
X94218139Y-84542757D01*
X94262657Y-84594133D01*
X94289865Y-84652482D01*
X94420342Y-84838820D01*
X94581179Y-84999657D01*
X94767517Y-85130134D01*
X94973673Y-85226265D01*
X94973682Y-85226269D01*
X95169999Y-85278872D01*
X95170000Y-85278871D01*
X95170000Y-84315686D01*
X95174394Y-84320080D01*
X95265606Y-84372741D01*
X95367339Y-84400000D01*
X95472661Y-84400000D01*
X95574394Y-84372741D01*
X95665606Y-84320080D01*
X95670000Y-84315686D01*
X95670000Y-85278872D01*
X95866317Y-85226269D01*
X95866326Y-85226265D01*
X96072482Y-85130134D01*
X96258820Y-84999657D01*
X96419657Y-84838820D01*
X96550132Y-84652484D01*
X96577341Y-84594134D01*
X96623513Y-84541695D01*
X96690707Y-84522542D01*
X96757588Y-84542757D01*
X96802106Y-84594133D01*
X96829431Y-84652732D01*
X96829432Y-84652734D01*
X96959954Y-84839141D01*
X97120858Y-85000045D01*
X97120861Y-85000047D01*
X97307266Y-85130568D01*
X97513504Y-85226739D01*
X97733308Y-85285635D01*
X97895230Y-85299801D01*
X97959998Y-85305468D01*
X97960000Y-85305468D01*
X97960002Y-85305468D01*
X98016673Y-85300509D01*
X98186692Y-85285635D01*
X98406496Y-85226739D01*
X98612734Y-85130568D01*
X98799139Y-85000047D01*
X98960047Y-84839139D01*
X99090568Y-84652734D01*
X99117618Y-84594724D01*
X99163790Y-84542285D01*
X99230983Y-84523133D01*
X99297865Y-84543348D01*
X99342382Y-84594725D01*
X99369429Y-84652728D01*
X99369432Y-84652734D01*
X99499954Y-84839141D01*
X99660858Y-85000045D01*
X99660861Y-85000047D01*
X99847266Y-85130568D01*
X100053504Y-85226739D01*
X100273308Y-85285635D01*
X100435230Y-85299801D01*
X100499998Y-85305468D01*
X100500000Y-85305468D01*
X100500002Y-85305468D01*
X100556673Y-85300509D01*
X100726692Y-85285635D01*
X100946496Y-85226739D01*
X101152734Y-85130568D01*
X101339139Y-85000047D01*
X101500047Y-84839139D01*
X101630568Y-84652734D01*
X101657618Y-84594724D01*
X101703790Y-84542285D01*
X101770983Y-84523133D01*
X101837865Y-84543348D01*
X101882382Y-84594725D01*
X101909429Y-84652728D01*
X101909432Y-84652734D01*
X102039954Y-84839141D01*
X102200858Y-85000045D01*
X102200861Y-85000047D01*
X102387266Y-85130568D01*
X102593504Y-85226739D01*
X102813308Y-85285635D01*
X102975230Y-85299801D01*
X103039998Y-85305468D01*
X103040000Y-85305468D01*
X103040002Y-85305468D01*
X103096673Y-85300509D01*
X103266692Y-85285635D01*
X103486496Y-85226739D01*
X103692734Y-85130568D01*
X103879139Y-85000047D01*
X104040047Y-84839139D01*
X104170568Y-84652734D01*
X104197618Y-84594724D01*
X104243790Y-84542285D01*
X104310983Y-84523133D01*
X104377865Y-84543348D01*
X104422382Y-84594725D01*
X104449429Y-84652728D01*
X104449432Y-84652734D01*
X104579954Y-84839141D01*
X104740858Y-85000045D01*
X104740861Y-85000047D01*
X104927266Y-85130568D01*
X105133504Y-85226739D01*
X105353308Y-85285635D01*
X105515230Y-85299801D01*
X105579998Y-85305468D01*
X105580000Y-85305468D01*
X105580002Y-85305468D01*
X105636673Y-85300509D01*
X105806692Y-85285635D01*
X106026496Y-85226739D01*
X106232734Y-85130568D01*
X106419139Y-85000047D01*
X106580047Y-84839139D01*
X106710568Y-84652734D01*
X106737618Y-84594724D01*
X106783790Y-84542285D01*
X106850983Y-84523133D01*
X106917865Y-84543348D01*
X106962382Y-84594725D01*
X106989429Y-84652728D01*
X106989432Y-84652734D01*
X107119954Y-84839141D01*
X107280858Y-85000045D01*
X107280861Y-85000047D01*
X107467266Y-85130568D01*
X107673504Y-85226739D01*
X107893308Y-85285635D01*
X108055230Y-85299801D01*
X108119998Y-85305468D01*
X108120000Y-85305468D01*
X108120002Y-85305468D01*
X108176673Y-85300509D01*
X108346692Y-85285635D01*
X108566496Y-85226739D01*
X108772734Y-85130568D01*
X108959139Y-85000047D01*
X109120047Y-84839139D01*
X109250568Y-84652734D01*
X109277618Y-84594724D01*
X109323790Y-84542285D01*
X109390983Y-84523133D01*
X109457865Y-84543348D01*
X109502382Y-84594725D01*
X109529429Y-84652728D01*
X109529432Y-84652734D01*
X109659954Y-84839141D01*
X109820858Y-85000045D01*
X109820861Y-85000047D01*
X110007266Y-85130568D01*
X110213504Y-85226739D01*
X110433308Y-85285635D01*
X110595230Y-85299801D01*
X110659998Y-85305468D01*
X110660000Y-85305468D01*
X110660002Y-85305468D01*
X110716673Y-85300509D01*
X110886692Y-85285635D01*
X111106496Y-85226739D01*
X111312734Y-85130568D01*
X111499139Y-85000047D01*
X111660047Y-84839139D01*
X111790568Y-84652734D01*
X111817618Y-84594724D01*
X111863790Y-84542285D01*
X111930983Y-84523133D01*
X111997865Y-84543348D01*
X112042382Y-84594725D01*
X112069429Y-84652728D01*
X112069432Y-84652734D01*
X112199954Y-84839141D01*
X112360858Y-85000045D01*
X112360861Y-85000047D01*
X112547266Y-85130568D01*
X112753504Y-85226739D01*
X112973308Y-85285635D01*
X113135230Y-85299801D01*
X113199998Y-85305468D01*
X113200000Y-85305468D01*
X113200002Y-85305468D01*
X113256673Y-85300509D01*
X113426692Y-85285635D01*
X113646496Y-85226739D01*
X113852734Y-85130568D01*
X114039139Y-85000047D01*
X114200047Y-84839139D01*
X114330568Y-84652734D01*
X114426739Y-84446496D01*
X114485635Y-84226692D01*
X114504270Y-84013692D01*
X114529722Y-83948624D01*
X114586313Y-83907645D01*
X114627798Y-83900500D01*
X115475192Y-83900500D01*
X115542231Y-83920185D01*
G37*
%TD.AperFunction*%
%TA.AperFunction,Conductor*%
G36*
X94834731Y-77420185D02*
G01*
X94880486Y-77472989D01*
X94890430Y-77542147D01*
X94861405Y-77605703D01*
X94855373Y-77612181D01*
X94399935Y-78067617D01*
X94338612Y-78101102D01*
X94299653Y-78103294D01*
X94262512Y-78099500D01*
X93512498Y-78099500D01*
X93512480Y-78099501D01*
X93409703Y-78110000D01*
X93409700Y-78110001D01*
X93243168Y-78165185D01*
X93243163Y-78165187D01*
X93093842Y-78257289D01*
X92969789Y-78381342D01*
X92877687Y-78530663D01*
X92877685Y-78530668D01*
X92867965Y-78560001D01*
X92836041Y-78656344D01*
X92822501Y-78697204D01*
X92822500Y-78697205D01*
X92816263Y-78758261D01*
X92789867Y-78822953D01*
X92732686Y-78863104D01*
X92662875Y-78865967D01*
X92602598Y-78830633D01*
X92587366Y-78810755D01*
X92492315Y-78656654D01*
X92368345Y-78532684D01*
X92219124Y-78440643D01*
X92219119Y-78440641D01*
X92052697Y-78385494D01*
X92052690Y-78385493D01*
X91949986Y-78375000D01*
X91837500Y-78375000D01*
X91837500Y-81124999D01*
X91949972Y-81124999D01*
X91949986Y-81124998D01*
X92052697Y-81114505D01*
X92219119Y-81059358D01*
X92219124Y-81059356D01*
X92368345Y-80967315D01*
X92492315Y-80843345D01*
X92584356Y-80694124D01*
X92584358Y-80694119D01*
X92639505Y-80527697D01*
X92639506Y-80527690D01*
X92641500Y-80508179D01*
X92667896Y-80443488D01*
X92725077Y-80403336D01*
X92794888Y-80400473D01*
X92855165Y-80435807D01*
X92873773Y-80463262D01*
X92873895Y-80463187D01*
X92875641Y-80466018D01*
X92877242Y-80468380D01*
X92877685Y-80469331D01*
X92877686Y-80469334D01*
X92969788Y-80618656D01*
X93093844Y-80742712D01*
X93243166Y-80834814D01*
X93409703Y-80889999D01*
X93512491Y-80900500D01*
X94262508Y-80900499D01*
X94262516Y-80900498D01*
X94262519Y-80900498D01*
X94344504Y-80892123D01*
X94365297Y-80889999D01*
X94531834Y-80834814D01*
X94681156Y-80742712D01*
X94805212Y-80618656D01*
X94897314Y-80469334D01*
X94952499Y-80302797D01*
X94963000Y-80200009D01*
X94963000Y-80199986D01*
X95762501Y-80199986D01*
X95772994Y-80302697D01*
X95828141Y-80469119D01*
X95828143Y-80469124D01*
X95920184Y-80618345D01*
X96044154Y-80742315D01*
X96193375Y-80834356D01*
X96193380Y-80834358D01*
X96359802Y-80889505D01*
X96359809Y-80889506D01*
X96462519Y-80899999D01*
X96587499Y-80899999D01*
X96587500Y-80899998D01*
X96587500Y-79750000D01*
X95762501Y-79750000D01*
X95762501Y-80199986D01*
X94963000Y-80199986D01*
X94962999Y-79395806D01*
X94982683Y-79328768D01*
X94999313Y-79308131D01*
X95550819Y-78756625D01*
X95612142Y-78723141D01*
X95681834Y-78728125D01*
X95737767Y-78769997D01*
X95762184Y-78835461D01*
X95762500Y-78844307D01*
X95762500Y-79250000D01*
X96713500Y-79250000D01*
X96780539Y-79269685D01*
X96826294Y-79322489D01*
X96837500Y-79374000D01*
X96837500Y-79500000D01*
X96963500Y-79500000D01*
X97030539Y-79519685D01*
X97076294Y-79572489D01*
X97087500Y-79624000D01*
X97087500Y-80899999D01*
X97212472Y-80899999D01*
X97212486Y-80899998D01*
X97315197Y-80889505D01*
X97481619Y-80834358D01*
X97481624Y-80834356D01*
X97630845Y-80742315D01*
X97754815Y-80618345D01*
X97846856Y-80469124D01*
X97846859Y-80469117D01*
X97882581Y-80361315D01*
X97922353Y-80303870D01*
X97986869Y-80277046D01*
X98055645Y-80289361D01*
X98105825Y-80335221D01*
X98116666Y-80352797D01*
X98155380Y-80415564D01*
X98157288Y-80418656D01*
X98281344Y-80542712D01*
X98430666Y-80634814D01*
X98597203Y-80689999D01*
X98699991Y-80700500D01*
X99325008Y-80700499D01*
X99325016Y-80700498D01*
X99325019Y-80700498D01*
X99385389Y-80694331D01*
X99427797Y-80689999D01*
X99594334Y-80634814D01*
X99743656Y-80542712D01*
X99837319Y-80449049D01*
X99898642Y-80415564D01*
X99968334Y-80420548D01*
X100012681Y-80449049D01*
X100106344Y-80542712D01*
X100128094Y-80556127D01*
X100174820Y-80608073D01*
X100187000Y-80661667D01*
X100187000Y-81861571D01*
X100204144Y-81947756D01*
X100204144Y-81947757D01*
X100211996Y-81987237D01*
X100211998Y-81987242D01*
X100259589Y-82102135D01*
X100261035Y-82105627D01*
X100317660Y-82190373D01*
X100332226Y-82212173D01*
X100332227Y-82212174D01*
X100603845Y-82483791D01*
X100637330Y-82545114D01*
X100632346Y-82614805D01*
X100590475Y-82670739D01*
X100525010Y-82695156D01*
X100505362Y-82695001D01*
X100503238Y-82694815D01*
X100500000Y-82694532D01*
X100499999Y-82694532D01*
X100499998Y-82694532D01*
X100273313Y-82714364D01*
X100273302Y-82714366D01*
X100053511Y-82773258D01*
X100053502Y-82773261D01*
X99847267Y-82869431D01*
X99847265Y-82869432D01*
X99660858Y-82999954D01*
X99499954Y-83160858D01*
X99369432Y-83347265D01*
X99369431Y-83347267D01*
X99342382Y-83405275D01*
X99296209Y-83457714D01*
X99229016Y-83476866D01*
X99162135Y-83456650D01*
X99117618Y-83405275D01*
X99090686Y-83347520D01*
X99090568Y-83347266D01*
X98960047Y-83160861D01*
X98960045Y-83160858D01*
X98799141Y-82999954D01*
X98612734Y-82869432D01*
X98612732Y-82869431D01*
X98406497Y-82773261D01*
X98406488Y-82773258D01*
X98186697Y-82714366D01*
X98186693Y-82714365D01*
X98186692Y-82714365D01*
X98186691Y-82714364D01*
X98186686Y-82714364D01*
X97960002Y-82694532D01*
X97959998Y-82694532D01*
X97733313Y-82714364D01*
X97733302Y-82714366D01*
X97513511Y-82773258D01*
X97513502Y-82773261D01*
X97307267Y-82869431D01*
X97307265Y-82869432D01*
X97120858Y-82999954D01*
X96959954Y-83160858D01*
X96829433Y-83347264D01*
X96829432Y-83347266D01*
X96829315Y-83347518D01*
X96802106Y-83405867D01*
X96755933Y-83458306D01*
X96688739Y-83477457D01*
X96621858Y-83457241D01*
X96577342Y-83405865D01*
X96550135Y-83347520D01*
X96550134Y-83347518D01*
X96419657Y-83161179D01*
X96258820Y-83000342D01*
X96072482Y-82869865D01*
X95866328Y-82773734D01*
X95670000Y-82721127D01*
X95670000Y-83684314D01*
X95665606Y-83679920D01*
X95574394Y-83627259D01*
X95472661Y-83600000D01*
X95367339Y-83600000D01*
X95265606Y-83627259D01*
X95174394Y-83679920D01*
X95170000Y-83684314D01*
X95170000Y-82721127D01*
X94973671Y-82773734D01*
X94767517Y-82869865D01*
X94581179Y-83000342D01*
X94420342Y-83161179D01*
X94289867Y-83347515D01*
X94262657Y-83405867D01*
X94216484Y-83458306D01*
X94149290Y-83477457D01*
X94082409Y-83457241D01*
X94037893Y-83405865D01*
X94010685Y-83347518D01*
X94010568Y-83347266D01*
X93880047Y-83160861D01*
X93880045Y-83160858D01*
X93719141Y-82999954D01*
X93532734Y-82869432D01*
X93532732Y-82869431D01*
X93326497Y-82773261D01*
X93326488Y-82773258D01*
X93106697Y-82714366D01*
X93106693Y-82714365D01*
X93106692Y-82714365D01*
X93106691Y-82714364D01*
X93106686Y-82714364D01*
X92880002Y-82694532D01*
X92879998Y-82694532D01*
X92653313Y-82714364D01*
X92653302Y-82714366D01*
X92433511Y-82773258D01*
X92433502Y-82773261D01*
X92227267Y-82869431D01*
X92227265Y-82869432D01*
X92040858Y-82999954D01*
X91879954Y-83160858D01*
X91749432Y-83347265D01*
X91749431Y-83347267D01*
X91722382Y-83405275D01*
X91676209Y-83457714D01*
X91609016Y-83476866D01*
X91542135Y-83456650D01*
X91497618Y-83405275D01*
X91470686Y-83347520D01*
X91470568Y-83347266D01*
X91340047Y-83160861D01*
X91340045Y-83160858D01*
X91179141Y-82999954D01*
X90992734Y-82869432D01*
X90992732Y-82869431D01*
X90786497Y-82773261D01*
X90786488Y-82773258D01*
X90566697Y-82714366D01*
X90566693Y-82714365D01*
X90566692Y-82714365D01*
X90566691Y-82714364D01*
X90566686Y-82714364D01*
X90340002Y-82694532D01*
X90339998Y-82694532D01*
X90113313Y-82714364D01*
X90113302Y-82714366D01*
X89893511Y-82773258D01*
X89893502Y-82773261D01*
X89687267Y-82869431D01*
X89687265Y-82869432D01*
X89500858Y-82999954D01*
X89339954Y-83160858D01*
X89209432Y-83347265D01*
X89209431Y-83347267D01*
X89182382Y-83405275D01*
X89136209Y-83457714D01*
X89069016Y-83476866D01*
X89002135Y-83456650D01*
X88957618Y-83405275D01*
X88930686Y-83347520D01*
X88930568Y-83347266D01*
X88800047Y-83160861D01*
X88800045Y-83160858D01*
X88639141Y-82999954D01*
X88452734Y-82869432D01*
X88452732Y-82869431D01*
X88282691Y-82790139D01*
X88230252Y-82743966D01*
X88211100Y-82676773D01*
X88231316Y-82609892D01*
X88269122Y-82572764D01*
X88377262Y-82504816D01*
X88504816Y-82377262D01*
X88600789Y-82224522D01*
X88660368Y-82054255D01*
X88666481Y-82000000D01*
X88680565Y-81875003D01*
X88680565Y-81874996D01*
X88660369Y-81695750D01*
X88660366Y-81695737D01*
X88600790Y-81525481D01*
X88600789Y-81525478D01*
X88570135Y-81476692D01*
X88544506Y-81435903D01*
X88525500Y-81369931D01*
X88525500Y-81249499D01*
X88545185Y-81182460D01*
X88597989Y-81136705D01*
X88649500Y-81125499D01*
X89025002Y-81125499D01*
X89025008Y-81125499D01*
X89127797Y-81114999D01*
X89294334Y-81059814D01*
X89443656Y-80967712D01*
X89567712Y-80843656D01*
X89659814Y-80694334D01*
X89714999Y-80527797D01*
X89725500Y-80425009D01*
X89725500Y-80424986D01*
X90525001Y-80424986D01*
X90535494Y-80527697D01*
X90590641Y-80694119D01*
X90590643Y-80694124D01*
X90682684Y-80843345D01*
X90806654Y-80967315D01*
X90955875Y-81059356D01*
X90955880Y-81059358D01*
X91122302Y-81114505D01*
X91122309Y-81114506D01*
X91225019Y-81124999D01*
X91337499Y-81124999D01*
X91337500Y-81124998D01*
X91337500Y-80000000D01*
X90525001Y-80000000D01*
X90525001Y-80424986D01*
X89725500Y-80424986D01*
X89725499Y-79075013D01*
X90525000Y-79075013D01*
X90525000Y-79500000D01*
X91337500Y-79500000D01*
X91337500Y-78375000D01*
X91225027Y-78375000D01*
X91225012Y-78375001D01*
X91122302Y-78385494D01*
X90955880Y-78440641D01*
X90955875Y-78440643D01*
X90806654Y-78532684D01*
X90682684Y-78656654D01*
X90590643Y-78805875D01*
X90590641Y-78805880D01*
X90535494Y-78972302D01*
X90535493Y-78972309D01*
X90525000Y-79075013D01*
X89725499Y-79075013D01*
X89725499Y-79074992D01*
X89717838Y-79000000D01*
X89714999Y-78972203D01*
X89714998Y-78972200D01*
X89700764Y-78929246D01*
X89659814Y-78805666D01*
X89567712Y-78656344D01*
X89443656Y-78532288D01*
X89294334Y-78440186D01*
X89127797Y-78385001D01*
X89127795Y-78385000D01*
X89025010Y-78374500D01*
X88299998Y-78374500D01*
X88299980Y-78374501D01*
X88197203Y-78385000D01*
X88197200Y-78385001D01*
X88030668Y-78440185D01*
X88030663Y-78440187D01*
X87881342Y-78532289D01*
X87757289Y-78656342D01*
X87665187Y-78805663D01*
X87665185Y-78805668D01*
X87651084Y-78848223D01*
X87625222Y-78926271D01*
X87610001Y-78972204D01*
X87610000Y-78972205D01*
X87608377Y-78988101D01*
X87581982Y-79052793D01*
X87524802Y-79092945D01*
X87485019Y-79099500D01*
X87163733Y-79099500D01*
X87096694Y-79079815D01*
X87050939Y-79027011D01*
X87046028Y-79014506D01*
X87039237Y-78994013D01*
X87034814Y-78980666D01*
X86942712Y-78831344D01*
X86818656Y-78707288D01*
X86669334Y-78615186D01*
X86502797Y-78560001D01*
X86502795Y-78560000D01*
X86400010Y-78549500D01*
X85774998Y-78549500D01*
X85774980Y-78549501D01*
X85672203Y-78560000D01*
X85672200Y-78560001D01*
X85505668Y-78615185D01*
X85505663Y-78615187D01*
X85356342Y-78707289D01*
X85262681Y-78800951D01*
X85201358Y-78834436D01*
X85131666Y-78829452D01*
X85087319Y-78800951D01*
X84993657Y-78707289D01*
X84993656Y-78707288D01*
X84844334Y-78615186D01*
X84677797Y-78560001D01*
X84677795Y-78560000D01*
X84575016Y-78549500D01*
X84169806Y-78549500D01*
X84102767Y-78529815D01*
X84057012Y-78477011D01*
X84047068Y-78407853D01*
X84076093Y-78344297D01*
X84082108Y-78337836D01*
X84983127Y-77436819D01*
X85044450Y-77403334D01*
X85070808Y-77400500D01*
X94767692Y-77400500D01*
X94834731Y-77420185D01*
G37*
%TD.AperFunction*%
%TA.AperFunction,Conductor*%
G36*
X110458731Y-77420185D02*
G01*
X110479373Y-77436819D01*
X111205873Y-78163319D01*
X111239358Y-78224642D01*
X111234374Y-78294334D01*
X111192502Y-78350267D01*
X111127038Y-78374684D01*
X111118192Y-78375000D01*
X111037500Y-78375000D01*
X111037500Y-79500000D01*
X111849999Y-79500000D01*
X111849999Y-79106807D01*
X111869684Y-79039768D01*
X111922488Y-78994013D01*
X111991646Y-78984069D01*
X112055202Y-79013094D01*
X112061680Y-79019126D01*
X112613181Y-79570627D01*
X112646666Y-79631950D01*
X112649500Y-79658308D01*
X112649500Y-79953181D01*
X112649501Y-80200500D01*
X112629817Y-80267539D01*
X112577013Y-80313294D01*
X112525501Y-80324500D01*
X111974000Y-80324500D01*
X111906961Y-80304815D01*
X111861206Y-80252011D01*
X111850000Y-80200500D01*
X111850000Y-80000000D01*
X109725001Y-80000000D01*
X109725001Y-80200500D01*
X109705316Y-80267539D01*
X109652512Y-80313294D01*
X109601001Y-80324500D01*
X108574000Y-80324500D01*
X108506961Y-80304815D01*
X108461206Y-80252011D01*
X108450000Y-80200500D01*
X108450000Y-80000000D01*
X106325001Y-80000000D01*
X106325001Y-80200500D01*
X106305316Y-80267539D01*
X106252512Y-80313294D01*
X106201001Y-80324500D01*
X106008308Y-80324500D01*
X105941269Y-80304815D01*
X105920627Y-80288181D01*
X105561818Y-79929372D01*
X105528333Y-79868049D01*
X105525499Y-79841691D01*
X105525499Y-79075013D01*
X106325000Y-79075013D01*
X106325000Y-79500000D01*
X107137500Y-79500000D01*
X107137500Y-78375000D01*
X107025027Y-78375000D01*
X107025012Y-78375001D01*
X106922302Y-78385494D01*
X106755880Y-78440641D01*
X106755875Y-78440643D01*
X106606654Y-78532684D01*
X106482684Y-78656654D01*
X106390643Y-78805875D01*
X106390641Y-78805880D01*
X106335494Y-78972302D01*
X106335493Y-78972309D01*
X106325000Y-79075013D01*
X105525499Y-79075013D01*
X105525499Y-79074998D01*
X105525498Y-79074981D01*
X105514999Y-78972203D01*
X105514998Y-78972200D01*
X105500764Y-78929246D01*
X105459814Y-78805666D01*
X105367712Y-78656344D01*
X105243656Y-78532288D01*
X105094334Y-78440186D01*
X104927797Y-78385001D01*
X104927795Y-78385000D01*
X104825010Y-78374500D01*
X104099999Y-78374500D01*
X104099973Y-78374502D01*
X104074184Y-78377136D01*
X104005491Y-78364364D01*
X103973905Y-78341459D01*
X103744628Y-78112181D01*
X103711143Y-78050858D01*
X103716127Y-77981166D01*
X103757999Y-77925233D01*
X103823463Y-77900816D01*
X103832309Y-77900500D01*
X107679192Y-77900500D01*
X107746231Y-77920185D01*
X107766873Y-77936819D01*
X108025415Y-78195361D01*
X108058900Y-78256684D01*
X108053916Y-78326376D01*
X108012044Y-78382309D01*
X107946580Y-78406726D01*
X107898731Y-78400748D01*
X107852701Y-78385495D01*
X107852690Y-78385493D01*
X107749986Y-78375000D01*
X107637500Y-78375000D01*
X107637500Y-79500000D01*
X108449999Y-79500000D01*
X108449999Y-79075028D01*
X108449998Y-79075013D01*
X108439505Y-78972301D01*
X108424252Y-78926271D01*
X108421849Y-78856442D01*
X108457580Y-78796400D01*
X108520100Y-78765207D01*
X108589559Y-78772766D01*
X108629638Y-78799584D01*
X108678277Y-78848223D01*
X108711762Y-78909546D01*
X108713815Y-78922012D01*
X108714630Y-78929246D01*
X108714632Y-78929255D01*
X108774210Y-79099521D01*
X108813088Y-79161394D01*
X108870184Y-79252262D01*
X108997738Y-79379816D01*
X109150478Y-79475789D01*
X109239554Y-79506958D01*
X109320745Y-79535368D01*
X109320750Y-79535369D01*
X109499996Y-79555565D01*
X109500000Y-79555565D01*
X109500004Y-79555565D01*
X109679249Y-79535369D01*
X109679252Y-79535368D01*
X109679255Y-79535368D01*
X109760446Y-79506957D01*
X109801401Y-79500000D01*
X110537500Y-79500000D01*
X110537500Y-78375000D01*
X110425027Y-78375000D01*
X110425012Y-78375001D01*
X110322299Y-78385494D01*
X110315682Y-78386911D01*
X110315141Y-78384385D01*
X110257014Y-78386353D01*
X110196991Y-78350590D01*
X110182908Y-78332234D01*
X110179227Y-78326376D01*
X110129816Y-78247738D01*
X110002262Y-78120184D01*
X109930664Y-78075196D01*
X109849521Y-78024210D01*
X109679255Y-77964632D01*
X109679246Y-77964630D01*
X109672012Y-77963815D01*
X109607600Y-77936744D01*
X109598223Y-77928277D01*
X109282127Y-77612181D01*
X109248642Y-77550858D01*
X109253626Y-77481166D01*
X109295498Y-77425233D01*
X109360962Y-77400816D01*
X109369808Y-77400500D01*
X110391692Y-77400500D01*
X110458731Y-77420185D01*
G37*
%TD.AperFunction*%
%TA.AperFunction,Conductor*%
G36*
X99459731Y-77920185D02*
G01*
X99505486Y-77972989D01*
X99515430Y-78042147D01*
X99486405Y-78105703D01*
X99480392Y-78112160D01*
X99329370Y-78263183D01*
X99268049Y-78296666D01*
X99241691Y-78299500D01*
X98699998Y-78299500D01*
X98699980Y-78299501D01*
X98597203Y-78310000D01*
X98597200Y-78310001D01*
X98430668Y-78365185D01*
X98430663Y-78365187D01*
X98281342Y-78457289D01*
X98157288Y-78581343D01*
X98157285Y-78581347D01*
X98105825Y-78664777D01*
X98053877Y-78711502D01*
X97984915Y-78722723D01*
X97920833Y-78694880D01*
X97882581Y-78638684D01*
X97846858Y-78530880D01*
X97846856Y-78530875D01*
X97754815Y-78381654D01*
X97630845Y-78257684D01*
X97481624Y-78165643D01*
X97481619Y-78165641D01*
X97410895Y-78142206D01*
X97353450Y-78102434D01*
X97326627Y-78037918D01*
X97338942Y-77969142D01*
X97386485Y-77917942D01*
X97449899Y-77900500D01*
X98174903Y-77900500D01*
X99392692Y-77900500D01*
X99459731Y-77920185D01*
G37*
%TD.AperFunction*%
%TD*%
M02*
