%TF.GenerationSoftware,KiCad,Pcbnew,8.0.7*%
%TF.CreationDate,2025-04-03T15:21:43+05:30*%
%TF.ProjectId,Esdp,45736470-2e6b-4696-9361-645f70636258,rev?*%
%TF.SameCoordinates,Original*%
%TF.FileFunction,Soldermask,Top*%
%TF.FilePolarity,Negative*%
%FSLAX46Y46*%
G04 Gerber Fmt 4.6, Leading zero omitted, Abs format (unit mm)*
G04 Created by KiCad (PCBNEW 8.0.7) date 2025-04-03 15:21:43*
%MOMM*%
%LPD*%
G01*
G04 APERTURE LIST*
G04 Aperture macros list*
%AMRoundRect*
0 Rectangle with rounded corners*
0 $1 Rounding radius*
0 $2 $3 $4 $5 $6 $7 $8 $9 X,Y pos of 4 corners*
0 Add a 4 corners polygon primitive as box body*
4,1,4,$2,$3,$4,$5,$6,$7,$8,$9,$2,$3,0*
0 Add four circle primitives for the rounded corners*
1,1,$1+$1,$2,$3*
1,1,$1+$1,$4,$5*
1,1,$1+$1,$6,$7*
1,1,$1+$1,$8,$9*
0 Add four rect primitives between the rounded corners*
20,1,$1+$1,$2,$3,$4,$5,0*
20,1,$1+$1,$4,$5,$6,$7,0*
20,1,$1+$1,$6,$7,$8,$9,0*
20,1,$1+$1,$8,$9,$2,$3,0*%
G04 Aperture macros list end*
%ADD10R,1.000000X1.000000*%
%ADD11O,1.000000X1.000000*%
%ADD12RoundRect,0.250000X-0.262500X-0.450000X0.262500X-0.450000X0.262500X0.450000X-0.262500X0.450000X0*%
%ADD13RoundRect,0.102000X-0.300000X-1.100000X0.300000X-1.100000X0.300000X1.100000X-0.300000X1.100000X0*%
%ADD14RoundRect,0.250000X0.325000X0.650000X-0.325000X0.650000X-0.325000X-0.650000X0.325000X-0.650000X0*%
%ADD15RoundRect,0.250000X-0.325000X-0.650000X0.325000X-0.650000X0.325000X0.650000X-0.325000X0.650000X0*%
%ADD16R,2.400000X1.600000*%
%ADD17O,2.400000X1.600000*%
%ADD18R,1.600000X1.600000*%
%ADD19O,1.600000X1.600000*%
%ADD20RoundRect,0.250000X-0.312500X-0.625000X0.312500X-0.625000X0.312500X0.625000X-0.312500X0.625000X0*%
%ADD21RoundRect,0.250000X0.312500X0.625000X-0.312500X0.625000X-0.312500X-0.625000X0.312500X-0.625000X0*%
%ADD22RoundRect,0.250000X-0.250000X-0.475000X0.250000X-0.475000X0.250000X0.475000X-0.250000X0.475000X0*%
%ADD23RoundRect,0.200000X0.200000X0.275000X-0.200000X0.275000X-0.200000X-0.275000X0.200000X-0.275000X0*%
%ADD24C,1.100000*%
%ADD25R,2.200000X2.200000*%
%ADD26C,2.200000*%
%ADD27RoundRect,0.250000X0.262500X0.450000X-0.262500X0.450000X-0.262500X-0.450000X0.262500X-0.450000X0*%
%ADD28RoundRect,0.200000X-0.200000X-0.275000X0.200000X-0.275000X0.200000X0.275000X-0.200000X0.275000X0*%
G04 APERTURE END LIST*
D10*
%TO.C,J3*%
X133750000Y-81440000D03*
D11*
X133750000Y-82710000D03*
X133750000Y-83980000D03*
X133750000Y-85250000D03*
X133750000Y-86520000D03*
X133750000Y-87790000D03*
X133750000Y-89060000D03*
X133750000Y-90330000D03*
X133750000Y-91600000D03*
%TD*%
D12*
%TO.C,R13*%
X126175000Y-95690000D03*
X128000000Y-95690000D03*
%TD*%
D13*
%TO.C,IC1*%
X117345000Y-90250000D03*
X118615000Y-90250000D03*
X119885000Y-90250000D03*
X121155000Y-90250000D03*
X121155000Y-83250000D03*
X119885000Y-83250000D03*
X118615000Y-83250000D03*
X117345000Y-83250000D03*
%TD*%
D14*
%TO.C,C6*%
X96837500Y-79500000D03*
X93887500Y-79500000D03*
%TD*%
D15*
%TO.C,C3*%
X125800000Y-104000000D03*
X128750000Y-104000000D03*
%TD*%
D16*
%TO.C,U2*%
X101425000Y-102950000D03*
D17*
X101425000Y-105490000D03*
X101425000Y-108030000D03*
X101425000Y-110570000D03*
X109045000Y-110570000D03*
X109045000Y-108030000D03*
X109045000Y-105490000D03*
X109045000Y-102950000D03*
%TD*%
D12*
%TO.C,R19*%
X84262500Y-79750000D03*
X86087500Y-79750000D03*
%TD*%
D18*
%TO.C,U3*%
X115200000Y-95950000D03*
D19*
X115200000Y-98490000D03*
X115200000Y-101030000D03*
X115200000Y-103570000D03*
X122820000Y-103570000D03*
X122820000Y-101030000D03*
X122820000Y-98490000D03*
X122820000Y-95950000D03*
%TD*%
D20*
%TO.C,R18*%
X88662500Y-79750000D03*
X91587500Y-79750000D03*
%TD*%
D21*
%TO.C,R1*%
X89250000Y-102500000D03*
X86325000Y-102500000D03*
%TD*%
D12*
%TO.C,R10*%
X126175000Y-88190000D03*
X128000000Y-88190000D03*
%TD*%
%TO.C,R12*%
X126087500Y-91940000D03*
X127912500Y-91940000D03*
%TD*%
D18*
%TO.C,D2*%
X91380000Y-96750000D03*
D19*
X99000000Y-96750000D03*
%TD*%
D20*
%TO.C,R16*%
X104462500Y-79750000D03*
X107387500Y-79750000D03*
%TD*%
D22*
%TO.C,C4*%
X91850000Y-102750000D03*
X93750000Y-102750000D03*
%TD*%
D15*
%TO.C,C5*%
X122775000Y-110250000D03*
X125725000Y-110250000D03*
%TD*%
D21*
%TO.C,R14*%
X113712500Y-79750000D03*
X110787500Y-79750000D03*
%TD*%
D23*
%TO.C,R4*%
X116750000Y-110500000D03*
X115100000Y-110500000D03*
%TD*%
D21*
%TO.C,R8*%
X87962500Y-96750000D03*
X85037500Y-96750000D03*
%TD*%
D18*
%TO.C,D1*%
X103380000Y-96500000D03*
D19*
X111000000Y-96500000D03*
%TD*%
D18*
%TO.C,U1*%
X80180000Y-91620000D03*
D19*
X82720000Y-91620000D03*
X85260000Y-91620000D03*
X87800000Y-91620000D03*
X90340000Y-91620000D03*
X92880000Y-91620000D03*
X95420000Y-91620000D03*
X97960000Y-91620000D03*
X100500000Y-91620000D03*
X103040000Y-91620000D03*
X105580000Y-91620000D03*
X108120000Y-91620000D03*
X110660000Y-91620000D03*
X113200000Y-91620000D03*
X113200000Y-84000000D03*
X110660000Y-84000000D03*
X108120000Y-84000000D03*
X105580000Y-84000000D03*
X103040000Y-84000000D03*
X100500000Y-84000000D03*
X97960000Y-84000000D03*
X95420000Y-84000000D03*
X92880000Y-84000000D03*
X90340000Y-84000000D03*
X87800000Y-84000000D03*
X85260000Y-84000000D03*
X82720000Y-84000000D03*
X80180000Y-84000000D03*
%TD*%
D24*
%TO.C,J2*%
X79960000Y-108290000D03*
X82500000Y-108290000D03*
D25*
X79960000Y-105750000D03*
D26*
X82500000Y-105750000D03*
%TD*%
D12*
%TO.C,R9*%
X126175000Y-81190000D03*
X128000000Y-81190000D03*
%TD*%
D14*
%TO.C,C2*%
X82000000Y-97000000D03*
X79050000Y-97000000D03*
%TD*%
D27*
%TO.C,R17*%
X100837500Y-79500000D03*
X99012500Y-79500000D03*
%TD*%
D12*
%TO.C,R11*%
X126337500Y-84690000D03*
X128162500Y-84690000D03*
%TD*%
%TO.C,R7*%
X128675000Y-110500000D03*
X130500000Y-110500000D03*
%TD*%
D15*
%TO.C,C1*%
X125750000Y-99500000D03*
X128700000Y-99500000D03*
%TD*%
D28*
%TO.C,R5*%
X118675000Y-110500000D03*
X120325000Y-110500000D03*
%TD*%
D12*
%TO.C,R6*%
X133425000Y-110500000D03*
X135250000Y-110500000D03*
%TD*%
D20*
%TO.C,R2*%
X86325000Y-107250000D03*
X89250000Y-107250000D03*
%TD*%
D12*
%TO.C,R15*%
X79925000Y-79750000D03*
X81750000Y-79750000D03*
%TD*%
D10*
%TO.C,J1*%
X134000000Y-98750000D03*
D11*
X134000000Y-100020000D03*
%TD*%
M02*
