%TF.GenerationSoftware,KiCad,Pcbnew,8.0.7*%
%TF.CreationDate,2025-04-03T15:21:43+05:30*%
%TF.ProjectId,Esdp,45736470-2e6b-4696-9361-645f70636258,rev?*%
%TF.SameCoordinates,Original*%
%TF.FileFunction,Legend,Top*%
%TF.FilePolarity,Positive*%
%FSLAX46Y46*%
G04 Gerber Fmt 4.6, Leading zero omitted, Abs format (unit mm)*
G04 Created by KiCad (PCBNEW 8.0.7) date 2025-04-03 15:21:43*
%MOMM*%
%LPD*%
G01*
G04 APERTURE LIST*
%ADD10C,0.150000*%
%ADD11C,0.080000*%
%ADD12C,0.120000*%
%ADD13C,0.127000*%
G04 APERTURE END LIST*
D10*
X136015350Y-84394295D02*
X136015350Y-83594295D01*
X136015350Y-83594295D02*
X136182017Y-83594295D01*
X136182017Y-83594295D02*
X136282017Y-83632390D01*
X136282017Y-83632390D02*
X136348684Y-83708580D01*
X136348684Y-83708580D02*
X136382017Y-83784771D01*
X136382017Y-83784771D02*
X136415350Y-83937152D01*
X136415350Y-83937152D02*
X136415350Y-84051438D01*
X136415350Y-84051438D02*
X136382017Y-84203819D01*
X136382017Y-84203819D02*
X136348684Y-84280009D01*
X136348684Y-84280009D02*
X136282017Y-84356200D01*
X136282017Y-84356200D02*
X136182017Y-84394295D01*
X136182017Y-84394295D02*
X136015350Y-84394295D01*
X137115350Y-84318104D02*
X137082017Y-84356200D01*
X137082017Y-84356200D02*
X136982017Y-84394295D01*
X136982017Y-84394295D02*
X136915350Y-84394295D01*
X136915350Y-84394295D02*
X136815350Y-84356200D01*
X136815350Y-84356200D02*
X136748684Y-84280009D01*
X136748684Y-84280009D02*
X136715350Y-84203819D01*
X136715350Y-84203819D02*
X136682017Y-84051438D01*
X136682017Y-84051438D02*
X136682017Y-83937152D01*
X136682017Y-83937152D02*
X136715350Y-83784771D01*
X136715350Y-83784771D02*
X136748684Y-83708580D01*
X136748684Y-83708580D02*
X136815350Y-83632390D01*
X136815350Y-83632390D02*
X136915350Y-83594295D01*
X136915350Y-83594295D02*
X136982017Y-83594295D01*
X136982017Y-83594295D02*
X137082017Y-83632390D01*
X137082017Y-83632390D02*
X137115350Y-83670485D01*
X136348684Y-91894295D02*
X136015350Y-91894295D01*
X136015350Y-91894295D02*
X136015350Y-91094295D01*
X136582017Y-91475247D02*
X136815351Y-91475247D01*
X136915351Y-91894295D02*
X136582017Y-91894295D01*
X136582017Y-91894295D02*
X136582017Y-91094295D01*
X136582017Y-91094295D02*
X136915351Y-91094295D01*
X137215350Y-91894295D02*
X137215350Y-91094295D01*
X137215350Y-91094295D02*
X137382017Y-91094295D01*
X137382017Y-91094295D02*
X137482017Y-91132390D01*
X137482017Y-91132390D02*
X137548684Y-91208580D01*
X137548684Y-91208580D02*
X137582017Y-91284771D01*
X137582017Y-91284771D02*
X137615350Y-91437152D01*
X137615350Y-91437152D02*
X137615350Y-91551438D01*
X137615350Y-91551438D02*
X137582017Y-91703819D01*
X137582017Y-91703819D02*
X137548684Y-91780009D01*
X137548684Y-91780009D02*
X137482017Y-91856200D01*
X137482017Y-91856200D02*
X137382017Y-91894295D01*
X137382017Y-91894295D02*
X137215350Y-91894295D01*
X136415350Y-90568104D02*
X136382017Y-90606200D01*
X136382017Y-90606200D02*
X136282017Y-90644295D01*
X136282017Y-90644295D02*
X136215350Y-90644295D01*
X136215350Y-90644295D02*
X136115350Y-90606200D01*
X136115350Y-90606200D02*
X136048684Y-90530009D01*
X136048684Y-90530009D02*
X136015350Y-90453819D01*
X136015350Y-90453819D02*
X135982017Y-90301438D01*
X135982017Y-90301438D02*
X135982017Y-90187152D01*
X135982017Y-90187152D02*
X136015350Y-90034771D01*
X136015350Y-90034771D02*
X136048684Y-89958580D01*
X136048684Y-89958580D02*
X136115350Y-89882390D01*
X136115350Y-89882390D02*
X136215350Y-89844295D01*
X136215350Y-89844295D02*
X136282017Y-89844295D01*
X136282017Y-89844295D02*
X136382017Y-89882390D01*
X136382017Y-89882390D02*
X136415350Y-89920485D01*
X136815350Y-90644295D02*
X136748684Y-90606200D01*
X136748684Y-90606200D02*
X136715350Y-90530009D01*
X136715350Y-90530009D02*
X136715350Y-89844295D01*
X137082017Y-90644295D02*
X137082017Y-89844295D01*
X137148684Y-90339533D02*
X137348684Y-90644295D01*
X137348684Y-90110961D02*
X137082017Y-90415723D01*
X82894295Y-113734649D02*
X82094295Y-113734649D01*
X82094295Y-113734649D02*
X82665723Y-113501316D01*
X82665723Y-113501316D02*
X82094295Y-113267982D01*
X82094295Y-113267982D02*
X82894295Y-113267982D01*
X82894295Y-112934649D02*
X82094295Y-112934649D01*
X82818104Y-112201316D02*
X82856200Y-112234649D01*
X82856200Y-112234649D02*
X82894295Y-112334649D01*
X82894295Y-112334649D02*
X82894295Y-112401316D01*
X82894295Y-112401316D02*
X82856200Y-112501316D01*
X82856200Y-112501316D02*
X82780009Y-112567983D01*
X82780009Y-112567983D02*
X82703819Y-112601316D01*
X82703819Y-112601316D02*
X82551438Y-112634649D01*
X82551438Y-112634649D02*
X82437152Y-112634649D01*
X82437152Y-112634649D02*
X82284771Y-112601316D01*
X82284771Y-112601316D02*
X82208580Y-112567983D01*
X82208580Y-112567983D02*
X82132390Y-112501316D01*
X82132390Y-112501316D02*
X82094295Y-112401316D01*
X82094295Y-112401316D02*
X82094295Y-112334649D01*
X82094295Y-112334649D02*
X82132390Y-112234649D01*
X82132390Y-112234649D02*
X82170485Y-112201316D01*
X82970485Y-112067983D02*
X82970485Y-111534649D01*
X82894295Y-111367983D02*
X82094295Y-111367983D01*
X82094295Y-111367983D02*
X82094295Y-111101316D01*
X82094295Y-111101316D02*
X82132390Y-111034650D01*
X82132390Y-111034650D02*
X82170485Y-111001316D01*
X82170485Y-111001316D02*
X82246676Y-110967983D01*
X82246676Y-110967983D02*
X82360961Y-110967983D01*
X82360961Y-110967983D02*
X82437152Y-111001316D01*
X82437152Y-111001316D02*
X82475247Y-111034650D01*
X82475247Y-111034650D02*
X82513342Y-111101316D01*
X82513342Y-111101316D02*
X82513342Y-111367983D01*
X82894295Y-110567983D02*
X82856200Y-110634650D01*
X82856200Y-110634650D02*
X82818104Y-110667983D01*
X82818104Y-110667983D02*
X82741914Y-110701316D01*
X82741914Y-110701316D02*
X82513342Y-110701316D01*
X82513342Y-110701316D02*
X82437152Y-110667983D01*
X82437152Y-110667983D02*
X82399057Y-110634650D01*
X82399057Y-110634650D02*
X82360961Y-110567983D01*
X82360961Y-110567983D02*
X82360961Y-110467983D01*
X82360961Y-110467983D02*
X82399057Y-110401316D01*
X82399057Y-110401316D02*
X82437152Y-110367983D01*
X82437152Y-110367983D02*
X82513342Y-110334650D01*
X82513342Y-110334650D02*
X82741914Y-110334650D01*
X82741914Y-110334650D02*
X82818104Y-110367983D01*
X82818104Y-110367983D02*
X82856200Y-110401316D01*
X82856200Y-110401316D02*
X82894295Y-110467983D01*
X82894295Y-110467983D02*
X82894295Y-110567983D01*
X82856200Y-110067983D02*
X82894295Y-110001317D01*
X82894295Y-110001317D02*
X82894295Y-109867983D01*
X82894295Y-109867983D02*
X82856200Y-109801317D01*
X82856200Y-109801317D02*
X82780009Y-109767983D01*
X82780009Y-109767983D02*
X82741914Y-109767983D01*
X82741914Y-109767983D02*
X82665723Y-109801317D01*
X82665723Y-109801317D02*
X82627628Y-109867983D01*
X82627628Y-109867983D02*
X82627628Y-109967983D01*
X82627628Y-109967983D02*
X82589533Y-110034650D01*
X82589533Y-110034650D02*
X82513342Y-110067983D01*
X82513342Y-110067983D02*
X82475247Y-110067983D01*
X82475247Y-110067983D02*
X82399057Y-110034650D01*
X82399057Y-110034650D02*
X82360961Y-109967983D01*
X82360961Y-109967983D02*
X82360961Y-109867983D01*
X82360961Y-109867983D02*
X82399057Y-109801317D01*
X135915350Y-80844295D02*
X136148684Y-81644295D01*
X136148684Y-81644295D02*
X136382017Y-80844295D01*
X136915350Y-81644295D02*
X136915350Y-80844295D01*
X136915350Y-81606200D02*
X136848684Y-81644295D01*
X136848684Y-81644295D02*
X136715350Y-81644295D01*
X136715350Y-81644295D02*
X136648684Y-81606200D01*
X136648684Y-81606200D02*
X136615350Y-81568104D01*
X136615350Y-81568104D02*
X136582017Y-81491914D01*
X136582017Y-81491914D02*
X136582017Y-81263342D01*
X136582017Y-81263342D02*
X136615350Y-81187152D01*
X136615350Y-81187152D02*
X136648684Y-81149057D01*
X136648684Y-81149057D02*
X136715350Y-81110961D01*
X136715350Y-81110961D02*
X136848684Y-81110961D01*
X136848684Y-81110961D02*
X136915350Y-81149057D01*
X137548683Y-81644295D02*
X137548683Y-80844295D01*
X137548683Y-81606200D02*
X137482017Y-81644295D01*
X137482017Y-81644295D02*
X137348683Y-81644295D01*
X137348683Y-81644295D02*
X137282017Y-81606200D01*
X137282017Y-81606200D02*
X137248683Y-81568104D01*
X137248683Y-81568104D02*
X137215350Y-81491914D01*
X137215350Y-81491914D02*
X137215350Y-81263342D01*
X137215350Y-81263342D02*
X137248683Y-81187152D01*
X137248683Y-81187152D02*
X137282017Y-81149057D01*
X137282017Y-81149057D02*
X137348683Y-81110961D01*
X137348683Y-81110961D02*
X137482017Y-81110961D01*
X137482017Y-81110961D02*
X137548683Y-81149057D01*
X136015350Y-89394295D02*
X136015350Y-88594295D01*
X136015350Y-88594295D02*
X136248684Y-89165723D01*
X136248684Y-89165723D02*
X136482017Y-88594295D01*
X136482017Y-88594295D02*
X136482017Y-89394295D01*
X136815350Y-89394295D02*
X136815350Y-88594295D01*
X137115350Y-89356200D02*
X137215350Y-89394295D01*
X137215350Y-89394295D02*
X137382017Y-89394295D01*
X137382017Y-89394295D02*
X137448683Y-89356200D01*
X137448683Y-89356200D02*
X137482017Y-89318104D01*
X137482017Y-89318104D02*
X137515350Y-89241914D01*
X137515350Y-89241914D02*
X137515350Y-89165723D01*
X137515350Y-89165723D02*
X137482017Y-89089533D01*
X137482017Y-89089533D02*
X137448683Y-89051438D01*
X137448683Y-89051438D02*
X137382017Y-89013342D01*
X137382017Y-89013342D02*
X137248683Y-88975247D01*
X137248683Y-88975247D02*
X137182017Y-88937152D01*
X137182017Y-88937152D02*
X137148683Y-88899057D01*
X137148683Y-88899057D02*
X137115350Y-88822866D01*
X137115350Y-88822866D02*
X137115350Y-88746676D01*
X137115350Y-88746676D02*
X137148683Y-88670485D01*
X137148683Y-88670485D02*
X137182017Y-88632390D01*
X137182017Y-88632390D02*
X137248683Y-88594295D01*
X137248683Y-88594295D02*
X137415350Y-88594295D01*
X137415350Y-88594295D02*
X137515350Y-88632390D01*
X137948684Y-88594295D02*
X138082017Y-88594295D01*
X138082017Y-88594295D02*
X138148684Y-88632390D01*
X138148684Y-88632390D02*
X138215350Y-88708580D01*
X138215350Y-88708580D02*
X138248684Y-88860961D01*
X138248684Y-88860961D02*
X138248684Y-89127628D01*
X138248684Y-89127628D02*
X138215350Y-89280009D01*
X138215350Y-89280009D02*
X138148684Y-89356200D01*
X138148684Y-89356200D02*
X138082017Y-89394295D01*
X138082017Y-89394295D02*
X137948684Y-89394295D01*
X137948684Y-89394295D02*
X137882017Y-89356200D01*
X137882017Y-89356200D02*
X137815350Y-89280009D01*
X137815350Y-89280009D02*
X137782017Y-89127628D01*
X137782017Y-89127628D02*
X137782017Y-88860961D01*
X137782017Y-88860961D02*
X137815350Y-88708580D01*
X137815350Y-88708580D02*
X137882017Y-88632390D01*
X137882017Y-88632390D02*
X137948684Y-88594295D01*
X136015350Y-88144295D02*
X136015350Y-87344295D01*
X136015350Y-87344295D02*
X136248684Y-87915723D01*
X136248684Y-87915723D02*
X136482017Y-87344295D01*
X136482017Y-87344295D02*
X136482017Y-88144295D01*
X136948684Y-87344295D02*
X137082017Y-87344295D01*
X137082017Y-87344295D02*
X137148684Y-87382390D01*
X137148684Y-87382390D02*
X137215350Y-87458580D01*
X137215350Y-87458580D02*
X137248684Y-87610961D01*
X137248684Y-87610961D02*
X137248684Y-87877628D01*
X137248684Y-87877628D02*
X137215350Y-88030009D01*
X137215350Y-88030009D02*
X137148684Y-88106200D01*
X137148684Y-88106200D02*
X137082017Y-88144295D01*
X137082017Y-88144295D02*
X136948684Y-88144295D01*
X136948684Y-88144295D02*
X136882017Y-88106200D01*
X136882017Y-88106200D02*
X136815350Y-88030009D01*
X136815350Y-88030009D02*
X136782017Y-87877628D01*
X136782017Y-87877628D02*
X136782017Y-87610961D01*
X136782017Y-87610961D02*
X136815350Y-87458580D01*
X136815350Y-87458580D02*
X136882017Y-87382390D01*
X136882017Y-87382390D02*
X136948684Y-87344295D01*
X137515350Y-88106200D02*
X137615350Y-88144295D01*
X137615350Y-88144295D02*
X137782017Y-88144295D01*
X137782017Y-88144295D02*
X137848683Y-88106200D01*
X137848683Y-88106200D02*
X137882017Y-88068104D01*
X137882017Y-88068104D02*
X137915350Y-87991914D01*
X137915350Y-87991914D02*
X137915350Y-87915723D01*
X137915350Y-87915723D02*
X137882017Y-87839533D01*
X137882017Y-87839533D02*
X137848683Y-87801438D01*
X137848683Y-87801438D02*
X137782017Y-87763342D01*
X137782017Y-87763342D02*
X137648683Y-87725247D01*
X137648683Y-87725247D02*
X137582017Y-87687152D01*
X137582017Y-87687152D02*
X137548683Y-87649057D01*
X137548683Y-87649057D02*
X137515350Y-87572866D01*
X137515350Y-87572866D02*
X137515350Y-87496676D01*
X137515350Y-87496676D02*
X137548683Y-87420485D01*
X137548683Y-87420485D02*
X137582017Y-87382390D01*
X137582017Y-87382390D02*
X137648683Y-87344295D01*
X137648683Y-87344295D02*
X137815350Y-87344295D01*
X137815350Y-87344295D02*
X137915350Y-87382390D01*
X138215350Y-88144295D02*
X138215350Y-87344295D01*
X136632017Y-98132390D02*
X136565350Y-98094295D01*
X136565350Y-98094295D02*
X136465350Y-98094295D01*
X136465350Y-98094295D02*
X136365350Y-98132390D01*
X136365350Y-98132390D02*
X136298684Y-98208580D01*
X136298684Y-98208580D02*
X136265350Y-98284771D01*
X136265350Y-98284771D02*
X136232017Y-98437152D01*
X136232017Y-98437152D02*
X136232017Y-98551438D01*
X136232017Y-98551438D02*
X136265350Y-98703819D01*
X136265350Y-98703819D02*
X136298684Y-98780009D01*
X136298684Y-98780009D02*
X136365350Y-98856200D01*
X136365350Y-98856200D02*
X136465350Y-98894295D01*
X136465350Y-98894295D02*
X136532017Y-98894295D01*
X136532017Y-98894295D02*
X136632017Y-98856200D01*
X136632017Y-98856200D02*
X136665350Y-98818104D01*
X136665350Y-98818104D02*
X136665350Y-98551438D01*
X136665350Y-98551438D02*
X136532017Y-98551438D01*
X136965350Y-98360961D02*
X136965350Y-98894295D01*
X136965350Y-98437152D02*
X136998684Y-98399057D01*
X136998684Y-98399057D02*
X137065350Y-98360961D01*
X137065350Y-98360961D02*
X137165350Y-98360961D01*
X137165350Y-98360961D02*
X137232017Y-98399057D01*
X137232017Y-98399057D02*
X137265350Y-98475247D01*
X137265350Y-98475247D02*
X137265350Y-98894295D01*
X137898683Y-98894295D02*
X137898683Y-98094295D01*
X137898683Y-98856200D02*
X137832017Y-98894295D01*
X137832017Y-98894295D02*
X137698683Y-98894295D01*
X137698683Y-98894295D02*
X137632017Y-98856200D01*
X137632017Y-98856200D02*
X137598683Y-98818104D01*
X137598683Y-98818104D02*
X137565350Y-98741914D01*
X137565350Y-98741914D02*
X137565350Y-98513342D01*
X137565350Y-98513342D02*
X137598683Y-98437152D01*
X137598683Y-98437152D02*
X137632017Y-98399057D01*
X137632017Y-98399057D02*
X137698683Y-98360961D01*
X137698683Y-98360961D02*
X137832017Y-98360961D01*
X137832017Y-98360961D02*
X137898683Y-98399057D01*
X136382017Y-82132390D02*
X136315350Y-82094295D01*
X136315350Y-82094295D02*
X136215350Y-82094295D01*
X136215350Y-82094295D02*
X136115350Y-82132390D01*
X136115350Y-82132390D02*
X136048684Y-82208580D01*
X136048684Y-82208580D02*
X136015350Y-82284771D01*
X136015350Y-82284771D02*
X135982017Y-82437152D01*
X135982017Y-82437152D02*
X135982017Y-82551438D01*
X135982017Y-82551438D02*
X136015350Y-82703819D01*
X136015350Y-82703819D02*
X136048684Y-82780009D01*
X136048684Y-82780009D02*
X136115350Y-82856200D01*
X136115350Y-82856200D02*
X136215350Y-82894295D01*
X136215350Y-82894295D02*
X136282017Y-82894295D01*
X136282017Y-82894295D02*
X136382017Y-82856200D01*
X136382017Y-82856200D02*
X136415350Y-82818104D01*
X136415350Y-82818104D02*
X136415350Y-82551438D01*
X136415350Y-82551438D02*
X136282017Y-82551438D01*
X136715350Y-82360961D02*
X136715350Y-82894295D01*
X136715350Y-82437152D02*
X136748684Y-82399057D01*
X136748684Y-82399057D02*
X136815350Y-82360961D01*
X136815350Y-82360961D02*
X136915350Y-82360961D01*
X136915350Y-82360961D02*
X136982017Y-82399057D01*
X136982017Y-82399057D02*
X137015350Y-82475247D01*
X137015350Y-82475247D02*
X137015350Y-82894295D01*
X137648683Y-82894295D02*
X137648683Y-82094295D01*
X137648683Y-82856200D02*
X137582017Y-82894295D01*
X137582017Y-82894295D02*
X137448683Y-82894295D01*
X137448683Y-82894295D02*
X137382017Y-82856200D01*
X137382017Y-82856200D02*
X137348683Y-82818104D01*
X137348683Y-82818104D02*
X137315350Y-82741914D01*
X137315350Y-82741914D02*
X137315350Y-82513342D01*
X137315350Y-82513342D02*
X137348683Y-82437152D01*
X137348683Y-82437152D02*
X137382017Y-82399057D01*
X137382017Y-82399057D02*
X137448683Y-82360961D01*
X137448683Y-82360961D02*
X137582017Y-82360961D01*
X137582017Y-82360961D02*
X137648683Y-82399057D01*
X136415350Y-86818104D02*
X136382017Y-86856200D01*
X136382017Y-86856200D02*
X136282017Y-86894295D01*
X136282017Y-86894295D02*
X136215350Y-86894295D01*
X136215350Y-86894295D02*
X136115350Y-86856200D01*
X136115350Y-86856200D02*
X136048684Y-86780009D01*
X136048684Y-86780009D02*
X136015350Y-86703819D01*
X136015350Y-86703819D02*
X135982017Y-86551438D01*
X135982017Y-86551438D02*
X135982017Y-86437152D01*
X135982017Y-86437152D02*
X136015350Y-86284771D01*
X136015350Y-86284771D02*
X136048684Y-86208580D01*
X136048684Y-86208580D02*
X136115350Y-86132390D01*
X136115350Y-86132390D02*
X136215350Y-86094295D01*
X136215350Y-86094295D02*
X136282017Y-86094295D01*
X136282017Y-86094295D02*
X136382017Y-86132390D01*
X136382017Y-86132390D02*
X136415350Y-86170485D01*
X136682017Y-86856200D02*
X136782017Y-86894295D01*
X136782017Y-86894295D02*
X136948684Y-86894295D01*
X136948684Y-86894295D02*
X137015350Y-86856200D01*
X137015350Y-86856200D02*
X137048684Y-86818104D01*
X137048684Y-86818104D02*
X137082017Y-86741914D01*
X137082017Y-86741914D02*
X137082017Y-86665723D01*
X137082017Y-86665723D02*
X137048684Y-86589533D01*
X137048684Y-86589533D02*
X137015350Y-86551438D01*
X137015350Y-86551438D02*
X136948684Y-86513342D01*
X136948684Y-86513342D02*
X136815350Y-86475247D01*
X136815350Y-86475247D02*
X136748684Y-86437152D01*
X136748684Y-86437152D02*
X136715350Y-86399057D01*
X136715350Y-86399057D02*
X136682017Y-86322866D01*
X136682017Y-86322866D02*
X136682017Y-86246676D01*
X136682017Y-86246676D02*
X136715350Y-86170485D01*
X136715350Y-86170485D02*
X136748684Y-86132390D01*
X136748684Y-86132390D02*
X136815350Y-86094295D01*
X136815350Y-86094295D02*
X136982017Y-86094295D01*
X136982017Y-86094295D02*
X137082017Y-86132390D01*
X136165350Y-99594295D02*
X136398684Y-100394295D01*
X136398684Y-100394295D02*
X136632017Y-99594295D01*
X137165350Y-100394295D02*
X137165350Y-99594295D01*
X137165350Y-100356200D02*
X137098684Y-100394295D01*
X137098684Y-100394295D02*
X136965350Y-100394295D01*
X136965350Y-100394295D02*
X136898684Y-100356200D01*
X136898684Y-100356200D02*
X136865350Y-100318104D01*
X136865350Y-100318104D02*
X136832017Y-100241914D01*
X136832017Y-100241914D02*
X136832017Y-100013342D01*
X136832017Y-100013342D02*
X136865350Y-99937152D01*
X136865350Y-99937152D02*
X136898684Y-99899057D01*
X136898684Y-99899057D02*
X136965350Y-99860961D01*
X136965350Y-99860961D02*
X137098684Y-99860961D01*
X137098684Y-99860961D02*
X137165350Y-99899057D01*
X137798683Y-100394295D02*
X137798683Y-99594295D01*
X137798683Y-100356200D02*
X137732017Y-100394295D01*
X137732017Y-100394295D02*
X137598683Y-100394295D01*
X137598683Y-100394295D02*
X137532017Y-100356200D01*
X137532017Y-100356200D02*
X137498683Y-100318104D01*
X137498683Y-100318104D02*
X137465350Y-100241914D01*
X137465350Y-100241914D02*
X137465350Y-100013342D01*
X137465350Y-100013342D02*
X137498683Y-99937152D01*
X137498683Y-99937152D02*
X137532017Y-99899057D01*
X137532017Y-99899057D02*
X137598683Y-99860961D01*
X137598683Y-99860961D02*
X137732017Y-99860961D01*
X137732017Y-99860961D02*
X137798683Y-99899057D01*
X136415350Y-85644295D02*
X136182017Y-85263342D01*
X136015350Y-85644295D02*
X136015350Y-84844295D01*
X136015350Y-84844295D02*
X136282017Y-84844295D01*
X136282017Y-84844295D02*
X136348684Y-84882390D01*
X136348684Y-84882390D02*
X136382017Y-84920485D01*
X136382017Y-84920485D02*
X136415350Y-84996676D01*
X136415350Y-84996676D02*
X136415350Y-85110961D01*
X136415350Y-85110961D02*
X136382017Y-85187152D01*
X136382017Y-85187152D02*
X136348684Y-85225247D01*
X136348684Y-85225247D02*
X136282017Y-85263342D01*
X136282017Y-85263342D02*
X136015350Y-85263342D01*
X136982017Y-85606200D02*
X136915350Y-85644295D01*
X136915350Y-85644295D02*
X136782017Y-85644295D01*
X136782017Y-85644295D02*
X136715350Y-85606200D01*
X136715350Y-85606200D02*
X136682017Y-85530009D01*
X136682017Y-85530009D02*
X136682017Y-85225247D01*
X136682017Y-85225247D02*
X136715350Y-85149057D01*
X136715350Y-85149057D02*
X136782017Y-85110961D01*
X136782017Y-85110961D02*
X136915350Y-85110961D01*
X136915350Y-85110961D02*
X136982017Y-85149057D01*
X136982017Y-85149057D02*
X137015350Y-85225247D01*
X137015350Y-85225247D02*
X137015350Y-85301438D01*
X137015350Y-85301438D02*
X136682017Y-85377628D01*
X137282017Y-85606200D02*
X137348684Y-85644295D01*
X137348684Y-85644295D02*
X137482017Y-85644295D01*
X137482017Y-85644295D02*
X137548684Y-85606200D01*
X137548684Y-85606200D02*
X137582017Y-85530009D01*
X137582017Y-85530009D02*
X137582017Y-85491914D01*
X137582017Y-85491914D02*
X137548684Y-85415723D01*
X137548684Y-85415723D02*
X137482017Y-85377628D01*
X137482017Y-85377628D02*
X137382017Y-85377628D01*
X137382017Y-85377628D02*
X137315350Y-85339533D01*
X137315350Y-85339533D02*
X137282017Y-85263342D01*
X137282017Y-85263342D02*
X137282017Y-85225247D01*
X137282017Y-85225247D02*
X137315350Y-85149057D01*
X137315350Y-85149057D02*
X137382017Y-85110961D01*
X137382017Y-85110961D02*
X137482017Y-85110961D01*
X137482017Y-85110961D02*
X137548684Y-85149057D01*
X138148684Y-85606200D02*
X138082017Y-85644295D01*
X138082017Y-85644295D02*
X137948684Y-85644295D01*
X137948684Y-85644295D02*
X137882017Y-85606200D01*
X137882017Y-85606200D02*
X137848684Y-85530009D01*
X137848684Y-85530009D02*
X137848684Y-85225247D01*
X137848684Y-85225247D02*
X137882017Y-85149057D01*
X137882017Y-85149057D02*
X137948684Y-85110961D01*
X137948684Y-85110961D02*
X138082017Y-85110961D01*
X138082017Y-85110961D02*
X138148684Y-85149057D01*
X138148684Y-85149057D02*
X138182017Y-85225247D01*
X138182017Y-85225247D02*
X138182017Y-85301438D01*
X138182017Y-85301438D02*
X137848684Y-85377628D01*
X138382017Y-85110961D02*
X138648684Y-85110961D01*
X138482017Y-84844295D02*
X138482017Y-85530009D01*
X138482017Y-85530009D02*
X138515351Y-85606200D01*
X138515351Y-85606200D02*
X138582017Y-85644295D01*
X138582017Y-85644295D02*
X138648684Y-85644295D01*
X80144295Y-113734649D02*
X79344295Y-113734649D01*
X79344295Y-113734649D02*
X79915723Y-113501316D01*
X79915723Y-113501316D02*
X79344295Y-113267982D01*
X79344295Y-113267982D02*
X80144295Y-113267982D01*
X80144295Y-112934649D02*
X79344295Y-112934649D01*
X80068104Y-112201316D02*
X80106200Y-112234649D01*
X80106200Y-112234649D02*
X80144295Y-112334649D01*
X80144295Y-112334649D02*
X80144295Y-112401316D01*
X80144295Y-112401316D02*
X80106200Y-112501316D01*
X80106200Y-112501316D02*
X80030009Y-112567983D01*
X80030009Y-112567983D02*
X79953819Y-112601316D01*
X79953819Y-112601316D02*
X79801438Y-112634649D01*
X79801438Y-112634649D02*
X79687152Y-112634649D01*
X79687152Y-112634649D02*
X79534771Y-112601316D01*
X79534771Y-112601316D02*
X79458580Y-112567983D01*
X79458580Y-112567983D02*
X79382390Y-112501316D01*
X79382390Y-112501316D02*
X79344295Y-112401316D01*
X79344295Y-112401316D02*
X79344295Y-112334649D01*
X79344295Y-112334649D02*
X79382390Y-112234649D01*
X79382390Y-112234649D02*
X79420485Y-112201316D01*
X80220485Y-112067983D02*
X80220485Y-111534649D01*
X79610961Y-111367983D02*
X80144295Y-111367983D01*
X79687152Y-111367983D02*
X79649057Y-111334650D01*
X79649057Y-111334650D02*
X79610961Y-111267983D01*
X79610961Y-111267983D02*
X79610961Y-111167983D01*
X79610961Y-111167983D02*
X79649057Y-111101316D01*
X79649057Y-111101316D02*
X79725247Y-111067983D01*
X79725247Y-111067983D02*
X80144295Y-111067983D01*
X80106200Y-110467983D02*
X80144295Y-110534650D01*
X80144295Y-110534650D02*
X80144295Y-110667983D01*
X80144295Y-110667983D02*
X80106200Y-110734650D01*
X80106200Y-110734650D02*
X80030009Y-110767983D01*
X80030009Y-110767983D02*
X79725247Y-110767983D01*
X79725247Y-110767983D02*
X79649057Y-110734650D01*
X79649057Y-110734650D02*
X79610961Y-110667983D01*
X79610961Y-110667983D02*
X79610961Y-110534650D01*
X79610961Y-110534650D02*
X79649057Y-110467983D01*
X79649057Y-110467983D02*
X79725247Y-110434650D01*
X79725247Y-110434650D02*
X79801438Y-110434650D01*
X79801438Y-110434650D02*
X79877628Y-110767983D01*
X79610961Y-109834650D02*
X80258580Y-109834650D01*
X80258580Y-109834650D02*
X80334771Y-109867983D01*
X80334771Y-109867983D02*
X80372866Y-109901317D01*
X80372866Y-109901317D02*
X80410961Y-109967983D01*
X80410961Y-109967983D02*
X80410961Y-110067983D01*
X80410961Y-110067983D02*
X80372866Y-110134650D01*
X80106200Y-109834650D02*
X80144295Y-109901317D01*
X80144295Y-109901317D02*
X80144295Y-110034650D01*
X80144295Y-110034650D02*
X80106200Y-110101317D01*
X80106200Y-110101317D02*
X80068104Y-110134650D01*
X80068104Y-110134650D02*
X79991914Y-110167983D01*
X79991914Y-110167983D02*
X79763342Y-110167983D01*
X79763342Y-110167983D02*
X79687152Y-110134650D01*
X79687152Y-110134650D02*
X79649057Y-110101317D01*
X79649057Y-110101317D02*
X79610961Y-110034650D01*
X79610961Y-110034650D02*
X79610961Y-109901317D01*
X79610961Y-109901317D02*
X79649057Y-109834650D01*
X133416666Y-78759819D02*
X133416666Y-79474104D01*
X133416666Y-79474104D02*
X133369047Y-79616961D01*
X133369047Y-79616961D02*
X133273809Y-79712200D01*
X133273809Y-79712200D02*
X133130952Y-79759819D01*
X133130952Y-79759819D02*
X133035714Y-79759819D01*
X133797619Y-78759819D02*
X134416666Y-78759819D01*
X134416666Y-78759819D02*
X134083333Y-79140771D01*
X134083333Y-79140771D02*
X134226190Y-79140771D01*
X134226190Y-79140771D02*
X134321428Y-79188390D01*
X134321428Y-79188390D02*
X134369047Y-79236009D01*
X134369047Y-79236009D02*
X134416666Y-79331247D01*
X134416666Y-79331247D02*
X134416666Y-79569342D01*
X134416666Y-79569342D02*
X134369047Y-79664580D01*
X134369047Y-79664580D02*
X134321428Y-79712200D01*
X134321428Y-79712200D02*
X134226190Y-79759819D01*
X134226190Y-79759819D02*
X133940476Y-79759819D01*
X133940476Y-79759819D02*
X133845238Y-79712200D01*
X133845238Y-79712200D02*
X133797619Y-79664580D01*
X126444642Y-94494819D02*
X126111309Y-94018628D01*
X125873214Y-94494819D02*
X125873214Y-93494819D01*
X125873214Y-93494819D02*
X126254166Y-93494819D01*
X126254166Y-93494819D02*
X126349404Y-93542438D01*
X126349404Y-93542438D02*
X126397023Y-93590057D01*
X126397023Y-93590057D02*
X126444642Y-93685295D01*
X126444642Y-93685295D02*
X126444642Y-93828152D01*
X126444642Y-93828152D02*
X126397023Y-93923390D01*
X126397023Y-93923390D02*
X126349404Y-93971009D01*
X126349404Y-93971009D02*
X126254166Y-94018628D01*
X126254166Y-94018628D02*
X125873214Y-94018628D01*
X127397023Y-94494819D02*
X126825595Y-94494819D01*
X127111309Y-94494819D02*
X127111309Y-93494819D01*
X127111309Y-93494819D02*
X127016071Y-93637676D01*
X127016071Y-93637676D02*
X126920833Y-93732914D01*
X126920833Y-93732914D02*
X126825595Y-93780533D01*
X127730357Y-93494819D02*
X128349404Y-93494819D01*
X128349404Y-93494819D02*
X128016071Y-93875771D01*
X128016071Y-93875771D02*
X128158928Y-93875771D01*
X128158928Y-93875771D02*
X128254166Y-93923390D01*
X128254166Y-93923390D02*
X128301785Y-93971009D01*
X128301785Y-93971009D02*
X128349404Y-94066247D01*
X128349404Y-94066247D02*
X128349404Y-94304342D01*
X128349404Y-94304342D02*
X128301785Y-94399580D01*
X128301785Y-94399580D02*
X128254166Y-94447200D01*
X128254166Y-94447200D02*
X128158928Y-94494819D01*
X128158928Y-94494819D02*
X127873214Y-94494819D01*
X127873214Y-94494819D02*
X127777976Y-94447200D01*
X127777976Y-94447200D02*
X127730357Y-94399580D01*
D11*
X118048619Y-86531735D02*
X118048619Y-85731735D01*
X118383857Y-86455544D02*
X118368619Y-86493640D01*
X118368619Y-86493640D02*
X118322905Y-86531735D01*
X118322905Y-86531735D02*
X118292429Y-86531735D01*
X118292429Y-86531735D02*
X118246714Y-86493640D01*
X118246714Y-86493640D02*
X118216238Y-86417449D01*
X118216238Y-86417449D02*
X118201000Y-86341259D01*
X118201000Y-86341259D02*
X118185762Y-86188878D01*
X118185762Y-86188878D02*
X118185762Y-86074592D01*
X118185762Y-86074592D02*
X118201000Y-85922211D01*
X118201000Y-85922211D02*
X118216238Y-85846020D01*
X118216238Y-85846020D02*
X118246714Y-85769830D01*
X118246714Y-85769830D02*
X118292429Y-85731735D01*
X118292429Y-85731735D02*
X118322905Y-85731735D01*
X118322905Y-85731735D02*
X118368619Y-85769830D01*
X118368619Y-85769830D02*
X118383857Y-85807925D01*
X118688619Y-86531735D02*
X118505762Y-86531735D01*
X118597190Y-86531735D02*
X118597190Y-85731735D01*
X118597190Y-85731735D02*
X118566714Y-85846020D01*
X118566714Y-85846020D02*
X118536238Y-85922211D01*
X118536238Y-85922211D02*
X118505762Y-85960306D01*
X117747619Y-86815935D02*
X117823809Y-87615935D01*
X117823809Y-87615935D02*
X117884762Y-87044506D01*
X117884762Y-87044506D02*
X117945714Y-87615935D01*
X117945714Y-87615935D02*
X118021905Y-86815935D01*
X118128571Y-86892125D02*
X118143809Y-86854030D01*
X118143809Y-86854030D02*
X118174285Y-86815935D01*
X118174285Y-86815935D02*
X118250476Y-86815935D01*
X118250476Y-86815935D02*
X118280952Y-86854030D01*
X118280952Y-86854030D02*
X118296190Y-86892125D01*
X118296190Y-86892125D02*
X118311428Y-86968316D01*
X118311428Y-86968316D02*
X118311428Y-87044506D01*
X118311428Y-87044506D02*
X118296190Y-87158792D01*
X118296190Y-87158792D02*
X118113333Y-87615935D01*
X118113333Y-87615935D02*
X118311428Y-87615935D01*
X118600952Y-86815935D02*
X118448571Y-86815935D01*
X118448571Y-86815935D02*
X118433333Y-87196887D01*
X118433333Y-87196887D02*
X118448571Y-87158792D01*
X118448571Y-87158792D02*
X118479047Y-87120697D01*
X118479047Y-87120697D02*
X118555238Y-87120697D01*
X118555238Y-87120697D02*
X118585714Y-87158792D01*
X118585714Y-87158792D02*
X118600952Y-87196887D01*
X118600952Y-87196887D02*
X118616190Y-87273078D01*
X118616190Y-87273078D02*
X118616190Y-87463554D01*
X118616190Y-87463554D02*
X118600952Y-87539744D01*
X118600952Y-87539744D02*
X118585714Y-87577840D01*
X118585714Y-87577840D02*
X118555238Y-87615935D01*
X118555238Y-87615935D02*
X118479047Y-87615935D01*
X118479047Y-87615935D02*
X118448571Y-87577840D01*
X118448571Y-87577840D02*
X118433333Y-87539744D01*
X118966666Y-87692125D02*
X118936190Y-87654030D01*
X118936190Y-87654030D02*
X118905714Y-87577840D01*
X118905714Y-87577840D02*
X118860000Y-87463554D01*
X118860000Y-87463554D02*
X118829523Y-87425459D01*
X118829523Y-87425459D02*
X118799047Y-87425459D01*
X118814285Y-87615935D02*
X118783809Y-87577840D01*
X118783809Y-87577840D02*
X118753333Y-87501649D01*
X118753333Y-87501649D02*
X118738095Y-87349268D01*
X118738095Y-87349268D02*
X118738095Y-87082601D01*
X118738095Y-87082601D02*
X118753333Y-86930220D01*
X118753333Y-86930220D02*
X118783809Y-86854030D01*
X118783809Y-86854030D02*
X118814285Y-86815935D01*
X118814285Y-86815935D02*
X118875238Y-86815935D01*
X118875238Y-86815935D02*
X118905714Y-86854030D01*
X118905714Y-86854030D02*
X118936190Y-86930220D01*
X118936190Y-86930220D02*
X118951428Y-87082601D01*
X118951428Y-87082601D02*
X118951428Y-87349268D01*
X118951428Y-87349268D02*
X118936190Y-87501649D01*
X118936190Y-87501649D02*
X118905714Y-87577840D01*
X118905714Y-87577840D02*
X118875238Y-87615935D01*
X118875238Y-87615935D02*
X118814285Y-87615935D01*
X119134285Y-87158792D02*
X119103809Y-87120697D01*
X119103809Y-87120697D02*
X119088571Y-87082601D01*
X119088571Y-87082601D02*
X119073333Y-87006411D01*
X119073333Y-87006411D02*
X119073333Y-86968316D01*
X119073333Y-86968316D02*
X119088571Y-86892125D01*
X119088571Y-86892125D02*
X119103809Y-86854030D01*
X119103809Y-86854030D02*
X119134285Y-86815935D01*
X119134285Y-86815935D02*
X119195238Y-86815935D01*
X119195238Y-86815935D02*
X119225714Y-86854030D01*
X119225714Y-86854030D02*
X119240952Y-86892125D01*
X119240952Y-86892125D02*
X119256190Y-86968316D01*
X119256190Y-86968316D02*
X119256190Y-87006411D01*
X119256190Y-87006411D02*
X119240952Y-87082601D01*
X119240952Y-87082601D02*
X119225714Y-87120697D01*
X119225714Y-87120697D02*
X119195238Y-87158792D01*
X119195238Y-87158792D02*
X119134285Y-87158792D01*
X119134285Y-87158792D02*
X119103809Y-87196887D01*
X119103809Y-87196887D02*
X119088571Y-87234982D01*
X119088571Y-87234982D02*
X119073333Y-87311173D01*
X119073333Y-87311173D02*
X119073333Y-87463554D01*
X119073333Y-87463554D02*
X119088571Y-87539744D01*
X119088571Y-87539744D02*
X119103809Y-87577840D01*
X119103809Y-87577840D02*
X119134285Y-87615935D01*
X119134285Y-87615935D02*
X119195238Y-87615935D01*
X119195238Y-87615935D02*
X119225714Y-87577840D01*
X119225714Y-87577840D02*
X119240952Y-87539744D01*
X119240952Y-87539744D02*
X119256190Y-87463554D01*
X119256190Y-87463554D02*
X119256190Y-87311173D01*
X119256190Y-87311173D02*
X119240952Y-87234982D01*
X119240952Y-87234982D02*
X119225714Y-87196887D01*
X119225714Y-87196887D02*
X119195238Y-87158792D01*
X119454285Y-86815935D02*
X119484762Y-86815935D01*
X119484762Y-86815935D02*
X119515238Y-86854030D01*
X119515238Y-86854030D02*
X119530476Y-86892125D01*
X119530476Y-86892125D02*
X119545714Y-86968316D01*
X119545714Y-86968316D02*
X119560952Y-87120697D01*
X119560952Y-87120697D02*
X119560952Y-87311173D01*
X119560952Y-87311173D02*
X119545714Y-87463554D01*
X119545714Y-87463554D02*
X119530476Y-87539744D01*
X119530476Y-87539744D02*
X119515238Y-87577840D01*
X119515238Y-87577840D02*
X119484762Y-87615935D01*
X119484762Y-87615935D02*
X119454285Y-87615935D01*
X119454285Y-87615935D02*
X119423809Y-87577840D01*
X119423809Y-87577840D02*
X119408571Y-87539744D01*
X119408571Y-87539744D02*
X119393333Y-87463554D01*
X119393333Y-87463554D02*
X119378095Y-87311173D01*
X119378095Y-87311173D02*
X119378095Y-87120697D01*
X119378095Y-87120697D02*
X119393333Y-86968316D01*
X119393333Y-86968316D02*
X119408571Y-86892125D01*
X119408571Y-86892125D02*
X119423809Y-86854030D01*
X119423809Y-86854030D02*
X119454285Y-86815935D01*
X119698095Y-87615935D02*
X119698095Y-86815935D01*
X119698095Y-86815935D02*
X119774285Y-86815935D01*
X119774285Y-86815935D02*
X119820000Y-86854030D01*
X119820000Y-86854030D02*
X119850476Y-86930220D01*
X119850476Y-86930220D02*
X119865714Y-87006411D01*
X119865714Y-87006411D02*
X119880952Y-87158792D01*
X119880952Y-87158792D02*
X119880952Y-87273078D01*
X119880952Y-87273078D02*
X119865714Y-87425459D01*
X119865714Y-87425459D02*
X119850476Y-87501649D01*
X119850476Y-87501649D02*
X119820000Y-87577840D01*
X119820000Y-87577840D02*
X119774285Y-87615935D01*
X119774285Y-87615935D02*
X119698095Y-87615935D01*
X119972381Y-86815935D02*
X120079047Y-87615935D01*
X120079047Y-87615935D02*
X120185714Y-86815935D01*
X120277143Y-87577840D02*
X120322857Y-87615935D01*
X120322857Y-87615935D02*
X120399048Y-87615935D01*
X120399048Y-87615935D02*
X120429524Y-87577840D01*
X120429524Y-87577840D02*
X120444762Y-87539744D01*
X120444762Y-87539744D02*
X120460000Y-87463554D01*
X120460000Y-87463554D02*
X120460000Y-87387363D01*
X120460000Y-87387363D02*
X120444762Y-87311173D01*
X120444762Y-87311173D02*
X120429524Y-87273078D01*
X120429524Y-87273078D02*
X120399048Y-87234982D01*
X120399048Y-87234982D02*
X120338095Y-87196887D01*
X120338095Y-87196887D02*
X120307619Y-87158792D01*
X120307619Y-87158792D02*
X120292381Y-87120697D01*
X120292381Y-87120697D02*
X120277143Y-87044506D01*
X120277143Y-87044506D02*
X120277143Y-86968316D01*
X120277143Y-86968316D02*
X120292381Y-86892125D01*
X120292381Y-86892125D02*
X120307619Y-86854030D01*
X120307619Y-86854030D02*
X120338095Y-86815935D01*
X120338095Y-86815935D02*
X120414286Y-86815935D01*
X120414286Y-86815935D02*
X120460000Y-86854030D01*
X120581905Y-87577840D02*
X120627619Y-87615935D01*
X120627619Y-87615935D02*
X120703810Y-87615935D01*
X120703810Y-87615935D02*
X120734286Y-87577840D01*
X120734286Y-87577840D02*
X120749524Y-87539744D01*
X120749524Y-87539744D02*
X120764762Y-87463554D01*
X120764762Y-87463554D02*
X120764762Y-87387363D01*
X120764762Y-87387363D02*
X120749524Y-87311173D01*
X120749524Y-87311173D02*
X120734286Y-87273078D01*
X120734286Y-87273078D02*
X120703810Y-87234982D01*
X120703810Y-87234982D02*
X120642857Y-87196887D01*
X120642857Y-87196887D02*
X120612381Y-87158792D01*
X120612381Y-87158792D02*
X120597143Y-87120697D01*
X120597143Y-87120697D02*
X120581905Y-87044506D01*
X120581905Y-87044506D02*
X120581905Y-86968316D01*
X120581905Y-86968316D02*
X120597143Y-86892125D01*
X120597143Y-86892125D02*
X120612381Y-86854030D01*
X120612381Y-86854030D02*
X120642857Y-86815935D01*
X120642857Y-86815935D02*
X120719048Y-86815935D01*
X120719048Y-86815935D02*
X120764762Y-86854030D01*
X120901905Y-87615935D02*
X120901905Y-86815935D01*
X121221905Y-86854030D02*
X121191429Y-86815935D01*
X121191429Y-86815935D02*
X121145715Y-86815935D01*
X121145715Y-86815935D02*
X121100000Y-86854030D01*
X121100000Y-86854030D02*
X121069524Y-86930220D01*
X121069524Y-86930220D02*
X121054286Y-87006411D01*
X121054286Y-87006411D02*
X121039048Y-87158792D01*
X121039048Y-87158792D02*
X121039048Y-87273078D01*
X121039048Y-87273078D02*
X121054286Y-87425459D01*
X121054286Y-87425459D02*
X121069524Y-87501649D01*
X121069524Y-87501649D02*
X121100000Y-87577840D01*
X121100000Y-87577840D02*
X121145715Y-87615935D01*
X121145715Y-87615935D02*
X121176191Y-87615935D01*
X121176191Y-87615935D02*
X121221905Y-87577840D01*
X121221905Y-87577840D02*
X121237143Y-87539744D01*
X121237143Y-87539744D02*
X121237143Y-87273078D01*
X121237143Y-87273078D02*
X121176191Y-87273078D01*
D10*
X94920833Y-78109580D02*
X94873214Y-78157200D01*
X94873214Y-78157200D02*
X94730357Y-78204819D01*
X94730357Y-78204819D02*
X94635119Y-78204819D01*
X94635119Y-78204819D02*
X94492262Y-78157200D01*
X94492262Y-78157200D02*
X94397024Y-78061961D01*
X94397024Y-78061961D02*
X94349405Y-77966723D01*
X94349405Y-77966723D02*
X94301786Y-77776247D01*
X94301786Y-77776247D02*
X94301786Y-77633390D01*
X94301786Y-77633390D02*
X94349405Y-77442914D01*
X94349405Y-77442914D02*
X94397024Y-77347676D01*
X94397024Y-77347676D02*
X94492262Y-77252438D01*
X94492262Y-77252438D02*
X94635119Y-77204819D01*
X94635119Y-77204819D02*
X94730357Y-77204819D01*
X94730357Y-77204819D02*
X94873214Y-77252438D01*
X94873214Y-77252438D02*
X94920833Y-77300057D01*
X95777976Y-77204819D02*
X95587500Y-77204819D01*
X95587500Y-77204819D02*
X95492262Y-77252438D01*
X95492262Y-77252438D02*
X95444643Y-77300057D01*
X95444643Y-77300057D02*
X95349405Y-77442914D01*
X95349405Y-77442914D02*
X95301786Y-77633390D01*
X95301786Y-77633390D02*
X95301786Y-78014342D01*
X95301786Y-78014342D02*
X95349405Y-78109580D01*
X95349405Y-78109580D02*
X95397024Y-78157200D01*
X95397024Y-78157200D02*
X95492262Y-78204819D01*
X95492262Y-78204819D02*
X95682738Y-78204819D01*
X95682738Y-78204819D02*
X95777976Y-78157200D01*
X95777976Y-78157200D02*
X95825595Y-78109580D01*
X95825595Y-78109580D02*
X95873214Y-78014342D01*
X95873214Y-78014342D02*
X95873214Y-77776247D01*
X95873214Y-77776247D02*
X95825595Y-77681009D01*
X95825595Y-77681009D02*
X95777976Y-77633390D01*
X95777976Y-77633390D02*
X95682738Y-77585771D01*
X95682738Y-77585771D02*
X95492262Y-77585771D01*
X95492262Y-77585771D02*
X95397024Y-77633390D01*
X95397024Y-77633390D02*
X95349405Y-77681009D01*
X95349405Y-77681009D02*
X95301786Y-77776247D01*
X127108333Y-102509580D02*
X127060714Y-102557200D01*
X127060714Y-102557200D02*
X126917857Y-102604819D01*
X126917857Y-102604819D02*
X126822619Y-102604819D01*
X126822619Y-102604819D02*
X126679762Y-102557200D01*
X126679762Y-102557200D02*
X126584524Y-102461961D01*
X126584524Y-102461961D02*
X126536905Y-102366723D01*
X126536905Y-102366723D02*
X126489286Y-102176247D01*
X126489286Y-102176247D02*
X126489286Y-102033390D01*
X126489286Y-102033390D02*
X126536905Y-101842914D01*
X126536905Y-101842914D02*
X126584524Y-101747676D01*
X126584524Y-101747676D02*
X126679762Y-101652438D01*
X126679762Y-101652438D02*
X126822619Y-101604819D01*
X126822619Y-101604819D02*
X126917857Y-101604819D01*
X126917857Y-101604819D02*
X127060714Y-101652438D01*
X127060714Y-101652438D02*
X127108333Y-101700057D01*
X127441667Y-101604819D02*
X128060714Y-101604819D01*
X128060714Y-101604819D02*
X127727381Y-101985771D01*
X127727381Y-101985771D02*
X127870238Y-101985771D01*
X127870238Y-101985771D02*
X127965476Y-102033390D01*
X127965476Y-102033390D02*
X128013095Y-102081009D01*
X128013095Y-102081009D02*
X128060714Y-102176247D01*
X128060714Y-102176247D02*
X128060714Y-102414342D01*
X128060714Y-102414342D02*
X128013095Y-102509580D01*
X128013095Y-102509580D02*
X127965476Y-102557200D01*
X127965476Y-102557200D02*
X127870238Y-102604819D01*
X127870238Y-102604819D02*
X127584524Y-102604819D01*
X127584524Y-102604819D02*
X127489286Y-102557200D01*
X127489286Y-102557200D02*
X127441667Y-102509580D01*
X104473095Y-100074819D02*
X104473095Y-100884342D01*
X104473095Y-100884342D02*
X104520714Y-100979580D01*
X104520714Y-100979580D02*
X104568333Y-101027200D01*
X104568333Y-101027200D02*
X104663571Y-101074819D01*
X104663571Y-101074819D02*
X104854047Y-101074819D01*
X104854047Y-101074819D02*
X104949285Y-101027200D01*
X104949285Y-101027200D02*
X104996904Y-100979580D01*
X104996904Y-100979580D02*
X105044523Y-100884342D01*
X105044523Y-100884342D02*
X105044523Y-100074819D01*
X105473095Y-100170057D02*
X105520714Y-100122438D01*
X105520714Y-100122438D02*
X105615952Y-100074819D01*
X105615952Y-100074819D02*
X105854047Y-100074819D01*
X105854047Y-100074819D02*
X105949285Y-100122438D01*
X105949285Y-100122438D02*
X105996904Y-100170057D01*
X105996904Y-100170057D02*
X106044523Y-100265295D01*
X106044523Y-100265295D02*
X106044523Y-100360533D01*
X106044523Y-100360533D02*
X105996904Y-100503390D01*
X105996904Y-100503390D02*
X105425476Y-101074819D01*
X105425476Y-101074819D02*
X106044523Y-101074819D01*
X84532142Y-78554819D02*
X84198809Y-78078628D01*
X83960714Y-78554819D02*
X83960714Y-77554819D01*
X83960714Y-77554819D02*
X84341666Y-77554819D01*
X84341666Y-77554819D02*
X84436904Y-77602438D01*
X84436904Y-77602438D02*
X84484523Y-77650057D01*
X84484523Y-77650057D02*
X84532142Y-77745295D01*
X84532142Y-77745295D02*
X84532142Y-77888152D01*
X84532142Y-77888152D02*
X84484523Y-77983390D01*
X84484523Y-77983390D02*
X84436904Y-78031009D01*
X84436904Y-78031009D02*
X84341666Y-78078628D01*
X84341666Y-78078628D02*
X83960714Y-78078628D01*
X85484523Y-78554819D02*
X84913095Y-78554819D01*
X85198809Y-78554819D02*
X85198809Y-77554819D01*
X85198809Y-77554819D02*
X85103571Y-77697676D01*
X85103571Y-77697676D02*
X85008333Y-77792914D01*
X85008333Y-77792914D02*
X84913095Y-77840533D01*
X85960714Y-78554819D02*
X86151190Y-78554819D01*
X86151190Y-78554819D02*
X86246428Y-78507200D01*
X86246428Y-78507200D02*
X86294047Y-78459580D01*
X86294047Y-78459580D02*
X86389285Y-78316723D01*
X86389285Y-78316723D02*
X86436904Y-78126247D01*
X86436904Y-78126247D02*
X86436904Y-77745295D01*
X86436904Y-77745295D02*
X86389285Y-77650057D01*
X86389285Y-77650057D02*
X86341666Y-77602438D01*
X86341666Y-77602438D02*
X86246428Y-77554819D01*
X86246428Y-77554819D02*
X86055952Y-77554819D01*
X86055952Y-77554819D02*
X85960714Y-77602438D01*
X85960714Y-77602438D02*
X85913095Y-77650057D01*
X85913095Y-77650057D02*
X85865476Y-77745295D01*
X85865476Y-77745295D02*
X85865476Y-77983390D01*
X85865476Y-77983390D02*
X85913095Y-78078628D01*
X85913095Y-78078628D02*
X85960714Y-78126247D01*
X85960714Y-78126247D02*
X86055952Y-78173866D01*
X86055952Y-78173866D02*
X86246428Y-78173866D01*
X86246428Y-78173866D02*
X86341666Y-78126247D01*
X86341666Y-78126247D02*
X86389285Y-78078628D01*
X86389285Y-78078628D02*
X86436904Y-77983390D01*
X118248095Y-93128557D02*
X118248095Y-93857128D01*
X118248095Y-93857128D02*
X118295714Y-93942842D01*
X118295714Y-93942842D02*
X118343333Y-93985700D01*
X118343333Y-93985700D02*
X118438571Y-94028557D01*
X118438571Y-94028557D02*
X118629047Y-94028557D01*
X118629047Y-94028557D02*
X118724285Y-93985700D01*
X118724285Y-93985700D02*
X118771904Y-93942842D01*
X118771904Y-93942842D02*
X118819523Y-93857128D01*
X118819523Y-93857128D02*
X118819523Y-93128557D01*
X119200476Y-93128557D02*
X119819523Y-93128557D01*
X119819523Y-93128557D02*
X119486190Y-93471414D01*
X119486190Y-93471414D02*
X119629047Y-93471414D01*
X119629047Y-93471414D02*
X119724285Y-93514271D01*
X119724285Y-93514271D02*
X119771904Y-93557128D01*
X119771904Y-93557128D02*
X119819523Y-93642842D01*
X119819523Y-93642842D02*
X119819523Y-93857128D01*
X119819523Y-93857128D02*
X119771904Y-93942842D01*
X119771904Y-93942842D02*
X119724285Y-93985700D01*
X119724285Y-93985700D02*
X119629047Y-94028557D01*
X119629047Y-94028557D02*
X119343333Y-94028557D01*
X119343333Y-94028557D02*
X119248095Y-93985700D01*
X119248095Y-93985700D02*
X119200476Y-93942842D01*
X89482142Y-78384819D02*
X89148809Y-77908628D01*
X88910714Y-78384819D02*
X88910714Y-77384819D01*
X88910714Y-77384819D02*
X89291666Y-77384819D01*
X89291666Y-77384819D02*
X89386904Y-77432438D01*
X89386904Y-77432438D02*
X89434523Y-77480057D01*
X89434523Y-77480057D02*
X89482142Y-77575295D01*
X89482142Y-77575295D02*
X89482142Y-77718152D01*
X89482142Y-77718152D02*
X89434523Y-77813390D01*
X89434523Y-77813390D02*
X89386904Y-77861009D01*
X89386904Y-77861009D02*
X89291666Y-77908628D01*
X89291666Y-77908628D02*
X88910714Y-77908628D01*
X90434523Y-78384819D02*
X89863095Y-78384819D01*
X90148809Y-78384819D02*
X90148809Y-77384819D01*
X90148809Y-77384819D02*
X90053571Y-77527676D01*
X90053571Y-77527676D02*
X89958333Y-77622914D01*
X89958333Y-77622914D02*
X89863095Y-77670533D01*
X91005952Y-77813390D02*
X90910714Y-77765771D01*
X90910714Y-77765771D02*
X90863095Y-77718152D01*
X90863095Y-77718152D02*
X90815476Y-77622914D01*
X90815476Y-77622914D02*
X90815476Y-77575295D01*
X90815476Y-77575295D02*
X90863095Y-77480057D01*
X90863095Y-77480057D02*
X90910714Y-77432438D01*
X90910714Y-77432438D02*
X91005952Y-77384819D01*
X91005952Y-77384819D02*
X91196428Y-77384819D01*
X91196428Y-77384819D02*
X91291666Y-77432438D01*
X91291666Y-77432438D02*
X91339285Y-77480057D01*
X91339285Y-77480057D02*
X91386904Y-77575295D01*
X91386904Y-77575295D02*
X91386904Y-77622914D01*
X91386904Y-77622914D02*
X91339285Y-77718152D01*
X91339285Y-77718152D02*
X91291666Y-77765771D01*
X91291666Y-77765771D02*
X91196428Y-77813390D01*
X91196428Y-77813390D02*
X91005952Y-77813390D01*
X91005952Y-77813390D02*
X90910714Y-77861009D01*
X90910714Y-77861009D02*
X90863095Y-77908628D01*
X90863095Y-77908628D02*
X90815476Y-78003866D01*
X90815476Y-78003866D02*
X90815476Y-78194342D01*
X90815476Y-78194342D02*
X90863095Y-78289580D01*
X90863095Y-78289580D02*
X90910714Y-78337200D01*
X90910714Y-78337200D02*
X91005952Y-78384819D01*
X91005952Y-78384819D02*
X91196428Y-78384819D01*
X91196428Y-78384819D02*
X91291666Y-78337200D01*
X91291666Y-78337200D02*
X91339285Y-78289580D01*
X91339285Y-78289580D02*
X91386904Y-78194342D01*
X91386904Y-78194342D02*
X91386904Y-78003866D01*
X91386904Y-78003866D02*
X91339285Y-77908628D01*
X91339285Y-77908628D02*
X91291666Y-77861009D01*
X91291666Y-77861009D02*
X91196428Y-77813390D01*
X87333333Y-101204819D02*
X87000000Y-100728628D01*
X86761905Y-101204819D02*
X86761905Y-100204819D01*
X86761905Y-100204819D02*
X87142857Y-100204819D01*
X87142857Y-100204819D02*
X87238095Y-100252438D01*
X87238095Y-100252438D02*
X87285714Y-100300057D01*
X87285714Y-100300057D02*
X87333333Y-100395295D01*
X87333333Y-100395295D02*
X87333333Y-100538152D01*
X87333333Y-100538152D02*
X87285714Y-100633390D01*
X87285714Y-100633390D02*
X87238095Y-100681009D01*
X87238095Y-100681009D02*
X87142857Y-100728628D01*
X87142857Y-100728628D02*
X86761905Y-100728628D01*
X88285714Y-101204819D02*
X87714286Y-101204819D01*
X88000000Y-101204819D02*
X88000000Y-100204819D01*
X88000000Y-100204819D02*
X87904762Y-100347676D01*
X87904762Y-100347676D02*
X87809524Y-100442914D01*
X87809524Y-100442914D02*
X87714286Y-100490533D01*
X126444642Y-86994819D02*
X126111309Y-86518628D01*
X125873214Y-86994819D02*
X125873214Y-85994819D01*
X125873214Y-85994819D02*
X126254166Y-85994819D01*
X126254166Y-85994819D02*
X126349404Y-86042438D01*
X126349404Y-86042438D02*
X126397023Y-86090057D01*
X126397023Y-86090057D02*
X126444642Y-86185295D01*
X126444642Y-86185295D02*
X126444642Y-86328152D01*
X126444642Y-86328152D02*
X126397023Y-86423390D01*
X126397023Y-86423390D02*
X126349404Y-86471009D01*
X126349404Y-86471009D02*
X126254166Y-86518628D01*
X126254166Y-86518628D02*
X125873214Y-86518628D01*
X127397023Y-86994819D02*
X126825595Y-86994819D01*
X127111309Y-86994819D02*
X127111309Y-85994819D01*
X127111309Y-85994819D02*
X127016071Y-86137676D01*
X127016071Y-86137676D02*
X126920833Y-86232914D01*
X126920833Y-86232914D02*
X126825595Y-86280533D01*
X128016071Y-85994819D02*
X128111309Y-85994819D01*
X128111309Y-85994819D02*
X128206547Y-86042438D01*
X128206547Y-86042438D02*
X128254166Y-86090057D01*
X128254166Y-86090057D02*
X128301785Y-86185295D01*
X128301785Y-86185295D02*
X128349404Y-86375771D01*
X128349404Y-86375771D02*
X128349404Y-86613866D01*
X128349404Y-86613866D02*
X128301785Y-86804342D01*
X128301785Y-86804342D02*
X128254166Y-86899580D01*
X128254166Y-86899580D02*
X128206547Y-86947200D01*
X128206547Y-86947200D02*
X128111309Y-86994819D01*
X128111309Y-86994819D02*
X128016071Y-86994819D01*
X128016071Y-86994819D02*
X127920833Y-86947200D01*
X127920833Y-86947200D02*
X127873214Y-86899580D01*
X127873214Y-86899580D02*
X127825595Y-86804342D01*
X127825595Y-86804342D02*
X127777976Y-86613866D01*
X127777976Y-86613866D02*
X127777976Y-86375771D01*
X127777976Y-86375771D02*
X127825595Y-86185295D01*
X127825595Y-86185295D02*
X127873214Y-86090057D01*
X127873214Y-86090057D02*
X127920833Y-86042438D01*
X127920833Y-86042438D02*
X128016071Y-85994819D01*
X126357142Y-90784819D02*
X126023809Y-90308628D01*
X125785714Y-90784819D02*
X125785714Y-89784819D01*
X125785714Y-89784819D02*
X126166666Y-89784819D01*
X126166666Y-89784819D02*
X126261904Y-89832438D01*
X126261904Y-89832438D02*
X126309523Y-89880057D01*
X126309523Y-89880057D02*
X126357142Y-89975295D01*
X126357142Y-89975295D02*
X126357142Y-90118152D01*
X126357142Y-90118152D02*
X126309523Y-90213390D01*
X126309523Y-90213390D02*
X126261904Y-90261009D01*
X126261904Y-90261009D02*
X126166666Y-90308628D01*
X126166666Y-90308628D02*
X125785714Y-90308628D01*
X127309523Y-90784819D02*
X126738095Y-90784819D01*
X127023809Y-90784819D02*
X127023809Y-89784819D01*
X127023809Y-89784819D02*
X126928571Y-89927676D01*
X126928571Y-89927676D02*
X126833333Y-90022914D01*
X126833333Y-90022914D02*
X126738095Y-90070533D01*
X127690476Y-89880057D02*
X127738095Y-89832438D01*
X127738095Y-89832438D02*
X127833333Y-89784819D01*
X127833333Y-89784819D02*
X128071428Y-89784819D01*
X128071428Y-89784819D02*
X128166666Y-89832438D01*
X128166666Y-89832438D02*
X128214285Y-89880057D01*
X128214285Y-89880057D02*
X128261904Y-89975295D01*
X128261904Y-89975295D02*
X128261904Y-90070533D01*
X128261904Y-90070533D02*
X128214285Y-90213390D01*
X128214285Y-90213390D02*
X127642857Y-90784819D01*
X127642857Y-90784819D02*
X128261904Y-90784819D01*
X94451905Y-95084819D02*
X94451905Y-94084819D01*
X94451905Y-94084819D02*
X94690000Y-94084819D01*
X94690000Y-94084819D02*
X94832857Y-94132438D01*
X94832857Y-94132438D02*
X94928095Y-94227676D01*
X94928095Y-94227676D02*
X94975714Y-94322914D01*
X94975714Y-94322914D02*
X95023333Y-94513390D01*
X95023333Y-94513390D02*
X95023333Y-94656247D01*
X95023333Y-94656247D02*
X94975714Y-94846723D01*
X94975714Y-94846723D02*
X94928095Y-94941961D01*
X94928095Y-94941961D02*
X94832857Y-95037200D01*
X94832857Y-95037200D02*
X94690000Y-95084819D01*
X94690000Y-95084819D02*
X94451905Y-95084819D01*
X95404286Y-94180057D02*
X95451905Y-94132438D01*
X95451905Y-94132438D02*
X95547143Y-94084819D01*
X95547143Y-94084819D02*
X95785238Y-94084819D01*
X95785238Y-94084819D02*
X95880476Y-94132438D01*
X95880476Y-94132438D02*
X95928095Y-94180057D01*
X95928095Y-94180057D02*
X95975714Y-94275295D01*
X95975714Y-94275295D02*
X95975714Y-94370533D01*
X95975714Y-94370533D02*
X95928095Y-94513390D01*
X95928095Y-94513390D02*
X95356667Y-95084819D01*
X95356667Y-95084819D02*
X95975714Y-95084819D01*
X91118095Y-95404819D02*
X91118095Y-94404819D01*
X91689523Y-95404819D02*
X91260952Y-94833390D01*
X91689523Y-94404819D02*
X91118095Y-94976247D01*
X105282142Y-78384819D02*
X104948809Y-77908628D01*
X104710714Y-78384819D02*
X104710714Y-77384819D01*
X104710714Y-77384819D02*
X105091666Y-77384819D01*
X105091666Y-77384819D02*
X105186904Y-77432438D01*
X105186904Y-77432438D02*
X105234523Y-77480057D01*
X105234523Y-77480057D02*
X105282142Y-77575295D01*
X105282142Y-77575295D02*
X105282142Y-77718152D01*
X105282142Y-77718152D02*
X105234523Y-77813390D01*
X105234523Y-77813390D02*
X105186904Y-77861009D01*
X105186904Y-77861009D02*
X105091666Y-77908628D01*
X105091666Y-77908628D02*
X104710714Y-77908628D01*
X106234523Y-78384819D02*
X105663095Y-78384819D01*
X105948809Y-78384819D02*
X105948809Y-77384819D01*
X105948809Y-77384819D02*
X105853571Y-77527676D01*
X105853571Y-77527676D02*
X105758333Y-77622914D01*
X105758333Y-77622914D02*
X105663095Y-77670533D01*
X107091666Y-77384819D02*
X106901190Y-77384819D01*
X106901190Y-77384819D02*
X106805952Y-77432438D01*
X106805952Y-77432438D02*
X106758333Y-77480057D01*
X106758333Y-77480057D02*
X106663095Y-77622914D01*
X106663095Y-77622914D02*
X106615476Y-77813390D01*
X106615476Y-77813390D02*
X106615476Y-78194342D01*
X106615476Y-78194342D02*
X106663095Y-78289580D01*
X106663095Y-78289580D02*
X106710714Y-78337200D01*
X106710714Y-78337200D02*
X106805952Y-78384819D01*
X106805952Y-78384819D02*
X106996428Y-78384819D01*
X106996428Y-78384819D02*
X107091666Y-78337200D01*
X107091666Y-78337200D02*
X107139285Y-78289580D01*
X107139285Y-78289580D02*
X107186904Y-78194342D01*
X107186904Y-78194342D02*
X107186904Y-77956247D01*
X107186904Y-77956247D02*
X107139285Y-77861009D01*
X107139285Y-77861009D02*
X107091666Y-77813390D01*
X107091666Y-77813390D02*
X106996428Y-77765771D01*
X106996428Y-77765771D02*
X106805952Y-77765771D01*
X106805952Y-77765771D02*
X106710714Y-77813390D01*
X106710714Y-77813390D02*
X106663095Y-77861009D01*
X106663095Y-77861009D02*
X106615476Y-77956247D01*
X92633333Y-101429580D02*
X92585714Y-101477200D01*
X92585714Y-101477200D02*
X92442857Y-101524819D01*
X92442857Y-101524819D02*
X92347619Y-101524819D01*
X92347619Y-101524819D02*
X92204762Y-101477200D01*
X92204762Y-101477200D02*
X92109524Y-101381961D01*
X92109524Y-101381961D02*
X92061905Y-101286723D01*
X92061905Y-101286723D02*
X92014286Y-101096247D01*
X92014286Y-101096247D02*
X92014286Y-100953390D01*
X92014286Y-100953390D02*
X92061905Y-100762914D01*
X92061905Y-100762914D02*
X92109524Y-100667676D01*
X92109524Y-100667676D02*
X92204762Y-100572438D01*
X92204762Y-100572438D02*
X92347619Y-100524819D01*
X92347619Y-100524819D02*
X92442857Y-100524819D01*
X92442857Y-100524819D02*
X92585714Y-100572438D01*
X92585714Y-100572438D02*
X92633333Y-100620057D01*
X93490476Y-100858152D02*
X93490476Y-101524819D01*
X93252381Y-100477200D02*
X93014286Y-101191485D01*
X93014286Y-101191485D02*
X93633333Y-101191485D01*
X124083333Y-108759580D02*
X124035714Y-108807200D01*
X124035714Y-108807200D02*
X123892857Y-108854819D01*
X123892857Y-108854819D02*
X123797619Y-108854819D01*
X123797619Y-108854819D02*
X123654762Y-108807200D01*
X123654762Y-108807200D02*
X123559524Y-108711961D01*
X123559524Y-108711961D02*
X123511905Y-108616723D01*
X123511905Y-108616723D02*
X123464286Y-108426247D01*
X123464286Y-108426247D02*
X123464286Y-108283390D01*
X123464286Y-108283390D02*
X123511905Y-108092914D01*
X123511905Y-108092914D02*
X123559524Y-107997676D01*
X123559524Y-107997676D02*
X123654762Y-107902438D01*
X123654762Y-107902438D02*
X123797619Y-107854819D01*
X123797619Y-107854819D02*
X123892857Y-107854819D01*
X123892857Y-107854819D02*
X124035714Y-107902438D01*
X124035714Y-107902438D02*
X124083333Y-107950057D01*
X124988095Y-107854819D02*
X124511905Y-107854819D01*
X124511905Y-107854819D02*
X124464286Y-108331009D01*
X124464286Y-108331009D02*
X124511905Y-108283390D01*
X124511905Y-108283390D02*
X124607143Y-108235771D01*
X124607143Y-108235771D02*
X124845238Y-108235771D01*
X124845238Y-108235771D02*
X124940476Y-108283390D01*
X124940476Y-108283390D02*
X124988095Y-108331009D01*
X124988095Y-108331009D02*
X125035714Y-108426247D01*
X125035714Y-108426247D02*
X125035714Y-108664342D01*
X125035714Y-108664342D02*
X124988095Y-108759580D01*
X124988095Y-108759580D02*
X124940476Y-108807200D01*
X124940476Y-108807200D02*
X124845238Y-108854819D01*
X124845238Y-108854819D02*
X124607143Y-108854819D01*
X124607143Y-108854819D02*
X124511905Y-108807200D01*
X124511905Y-108807200D02*
X124464286Y-108759580D01*
X111319642Y-78454819D02*
X110986309Y-77978628D01*
X110748214Y-78454819D02*
X110748214Y-77454819D01*
X110748214Y-77454819D02*
X111129166Y-77454819D01*
X111129166Y-77454819D02*
X111224404Y-77502438D01*
X111224404Y-77502438D02*
X111272023Y-77550057D01*
X111272023Y-77550057D02*
X111319642Y-77645295D01*
X111319642Y-77645295D02*
X111319642Y-77788152D01*
X111319642Y-77788152D02*
X111272023Y-77883390D01*
X111272023Y-77883390D02*
X111224404Y-77931009D01*
X111224404Y-77931009D02*
X111129166Y-77978628D01*
X111129166Y-77978628D02*
X110748214Y-77978628D01*
X112272023Y-78454819D02*
X111700595Y-78454819D01*
X111986309Y-78454819D02*
X111986309Y-77454819D01*
X111986309Y-77454819D02*
X111891071Y-77597676D01*
X111891071Y-77597676D02*
X111795833Y-77692914D01*
X111795833Y-77692914D02*
X111700595Y-77740533D01*
X113129166Y-77788152D02*
X113129166Y-78454819D01*
X112891071Y-77407200D02*
X112652976Y-78121485D01*
X112652976Y-78121485D02*
X113272023Y-78121485D01*
X115683333Y-109204819D02*
X115350000Y-108728628D01*
X115111905Y-109204819D02*
X115111905Y-108204819D01*
X115111905Y-108204819D02*
X115492857Y-108204819D01*
X115492857Y-108204819D02*
X115588095Y-108252438D01*
X115588095Y-108252438D02*
X115635714Y-108300057D01*
X115635714Y-108300057D02*
X115683333Y-108395295D01*
X115683333Y-108395295D02*
X115683333Y-108538152D01*
X115683333Y-108538152D02*
X115635714Y-108633390D01*
X115635714Y-108633390D02*
X115588095Y-108681009D01*
X115588095Y-108681009D02*
X115492857Y-108728628D01*
X115492857Y-108728628D02*
X115111905Y-108728628D01*
X116540476Y-108538152D02*
X116540476Y-109204819D01*
X116302381Y-108157200D02*
X116064286Y-108871485D01*
X116064286Y-108871485D02*
X116683333Y-108871485D01*
X86333333Y-95204819D02*
X86000000Y-94728628D01*
X85761905Y-95204819D02*
X85761905Y-94204819D01*
X85761905Y-94204819D02*
X86142857Y-94204819D01*
X86142857Y-94204819D02*
X86238095Y-94252438D01*
X86238095Y-94252438D02*
X86285714Y-94300057D01*
X86285714Y-94300057D02*
X86333333Y-94395295D01*
X86333333Y-94395295D02*
X86333333Y-94538152D01*
X86333333Y-94538152D02*
X86285714Y-94633390D01*
X86285714Y-94633390D02*
X86238095Y-94681009D01*
X86238095Y-94681009D02*
X86142857Y-94728628D01*
X86142857Y-94728628D02*
X85761905Y-94728628D01*
X86904762Y-94633390D02*
X86809524Y-94585771D01*
X86809524Y-94585771D02*
X86761905Y-94538152D01*
X86761905Y-94538152D02*
X86714286Y-94442914D01*
X86714286Y-94442914D02*
X86714286Y-94395295D01*
X86714286Y-94395295D02*
X86761905Y-94300057D01*
X86761905Y-94300057D02*
X86809524Y-94252438D01*
X86809524Y-94252438D02*
X86904762Y-94204819D01*
X86904762Y-94204819D02*
X87095238Y-94204819D01*
X87095238Y-94204819D02*
X87190476Y-94252438D01*
X87190476Y-94252438D02*
X87238095Y-94300057D01*
X87238095Y-94300057D02*
X87285714Y-94395295D01*
X87285714Y-94395295D02*
X87285714Y-94442914D01*
X87285714Y-94442914D02*
X87238095Y-94538152D01*
X87238095Y-94538152D02*
X87190476Y-94585771D01*
X87190476Y-94585771D02*
X87095238Y-94633390D01*
X87095238Y-94633390D02*
X86904762Y-94633390D01*
X86904762Y-94633390D02*
X86809524Y-94681009D01*
X86809524Y-94681009D02*
X86761905Y-94728628D01*
X86761905Y-94728628D02*
X86714286Y-94823866D01*
X86714286Y-94823866D02*
X86714286Y-95014342D01*
X86714286Y-95014342D02*
X86761905Y-95109580D01*
X86761905Y-95109580D02*
X86809524Y-95157200D01*
X86809524Y-95157200D02*
X86904762Y-95204819D01*
X86904762Y-95204819D02*
X87095238Y-95204819D01*
X87095238Y-95204819D02*
X87190476Y-95157200D01*
X87190476Y-95157200D02*
X87238095Y-95109580D01*
X87238095Y-95109580D02*
X87285714Y-95014342D01*
X87285714Y-95014342D02*
X87285714Y-94823866D01*
X87285714Y-94823866D02*
X87238095Y-94728628D01*
X87238095Y-94728628D02*
X87190476Y-94681009D01*
X87190476Y-94681009D02*
X87095238Y-94633390D01*
X106451905Y-94834819D02*
X106451905Y-93834819D01*
X106451905Y-93834819D02*
X106690000Y-93834819D01*
X106690000Y-93834819D02*
X106832857Y-93882438D01*
X106832857Y-93882438D02*
X106928095Y-93977676D01*
X106928095Y-93977676D02*
X106975714Y-94072914D01*
X106975714Y-94072914D02*
X107023333Y-94263390D01*
X107023333Y-94263390D02*
X107023333Y-94406247D01*
X107023333Y-94406247D02*
X106975714Y-94596723D01*
X106975714Y-94596723D02*
X106928095Y-94691961D01*
X106928095Y-94691961D02*
X106832857Y-94787200D01*
X106832857Y-94787200D02*
X106690000Y-94834819D01*
X106690000Y-94834819D02*
X106451905Y-94834819D01*
X107975714Y-94834819D02*
X107404286Y-94834819D01*
X107690000Y-94834819D02*
X107690000Y-93834819D01*
X107690000Y-93834819D02*
X107594762Y-93977676D01*
X107594762Y-93977676D02*
X107499524Y-94072914D01*
X107499524Y-94072914D02*
X107404286Y-94120533D01*
X103118095Y-95154819D02*
X103118095Y-94154819D01*
X103689523Y-95154819D02*
X103260952Y-94583390D01*
X103689523Y-94154819D02*
X103118095Y-94726247D01*
X81364819Y-88631904D02*
X82174342Y-88631904D01*
X82174342Y-88631904D02*
X82269580Y-88584285D01*
X82269580Y-88584285D02*
X82317200Y-88536666D01*
X82317200Y-88536666D02*
X82364819Y-88441428D01*
X82364819Y-88441428D02*
X82364819Y-88250952D01*
X82364819Y-88250952D02*
X82317200Y-88155714D01*
X82317200Y-88155714D02*
X82269580Y-88108095D01*
X82269580Y-88108095D02*
X82174342Y-88060476D01*
X82174342Y-88060476D02*
X81364819Y-88060476D01*
X82364819Y-87060476D02*
X82364819Y-87631904D01*
X82364819Y-87346190D02*
X81364819Y-87346190D01*
X81364819Y-87346190D02*
X81507676Y-87441428D01*
X81507676Y-87441428D02*
X81602914Y-87536666D01*
X81602914Y-87536666D02*
X81650533Y-87631904D01*
X80896666Y-101044819D02*
X80896666Y-101759104D01*
X80896666Y-101759104D02*
X80849047Y-101901961D01*
X80849047Y-101901961D02*
X80753809Y-101997200D01*
X80753809Y-101997200D02*
X80610952Y-102044819D01*
X80610952Y-102044819D02*
X80515714Y-102044819D01*
X81325238Y-101140057D02*
X81372857Y-101092438D01*
X81372857Y-101092438D02*
X81468095Y-101044819D01*
X81468095Y-101044819D02*
X81706190Y-101044819D01*
X81706190Y-101044819D02*
X81801428Y-101092438D01*
X81801428Y-101092438D02*
X81849047Y-101140057D01*
X81849047Y-101140057D02*
X81896666Y-101235295D01*
X81896666Y-101235295D02*
X81896666Y-101330533D01*
X81896666Y-101330533D02*
X81849047Y-101473390D01*
X81849047Y-101473390D02*
X81277619Y-102044819D01*
X81277619Y-102044819D02*
X81896666Y-102044819D01*
X126920833Y-79994819D02*
X126587500Y-79518628D01*
X126349405Y-79994819D02*
X126349405Y-78994819D01*
X126349405Y-78994819D02*
X126730357Y-78994819D01*
X126730357Y-78994819D02*
X126825595Y-79042438D01*
X126825595Y-79042438D02*
X126873214Y-79090057D01*
X126873214Y-79090057D02*
X126920833Y-79185295D01*
X126920833Y-79185295D02*
X126920833Y-79328152D01*
X126920833Y-79328152D02*
X126873214Y-79423390D01*
X126873214Y-79423390D02*
X126825595Y-79471009D01*
X126825595Y-79471009D02*
X126730357Y-79518628D01*
X126730357Y-79518628D02*
X126349405Y-79518628D01*
X127397024Y-79994819D02*
X127587500Y-79994819D01*
X127587500Y-79994819D02*
X127682738Y-79947200D01*
X127682738Y-79947200D02*
X127730357Y-79899580D01*
X127730357Y-79899580D02*
X127825595Y-79756723D01*
X127825595Y-79756723D02*
X127873214Y-79566247D01*
X127873214Y-79566247D02*
X127873214Y-79185295D01*
X127873214Y-79185295D02*
X127825595Y-79090057D01*
X127825595Y-79090057D02*
X127777976Y-79042438D01*
X127777976Y-79042438D02*
X127682738Y-78994819D01*
X127682738Y-78994819D02*
X127492262Y-78994819D01*
X127492262Y-78994819D02*
X127397024Y-79042438D01*
X127397024Y-79042438D02*
X127349405Y-79090057D01*
X127349405Y-79090057D02*
X127301786Y-79185295D01*
X127301786Y-79185295D02*
X127301786Y-79423390D01*
X127301786Y-79423390D02*
X127349405Y-79518628D01*
X127349405Y-79518628D02*
X127397024Y-79566247D01*
X127397024Y-79566247D02*
X127492262Y-79613866D01*
X127492262Y-79613866D02*
X127682738Y-79613866D01*
X127682738Y-79613866D02*
X127777976Y-79566247D01*
X127777976Y-79566247D02*
X127825595Y-79518628D01*
X127825595Y-79518628D02*
X127873214Y-79423390D01*
X80358333Y-95359580D02*
X80310714Y-95407200D01*
X80310714Y-95407200D02*
X80167857Y-95454819D01*
X80167857Y-95454819D02*
X80072619Y-95454819D01*
X80072619Y-95454819D02*
X79929762Y-95407200D01*
X79929762Y-95407200D02*
X79834524Y-95311961D01*
X79834524Y-95311961D02*
X79786905Y-95216723D01*
X79786905Y-95216723D02*
X79739286Y-95026247D01*
X79739286Y-95026247D02*
X79739286Y-94883390D01*
X79739286Y-94883390D02*
X79786905Y-94692914D01*
X79786905Y-94692914D02*
X79834524Y-94597676D01*
X79834524Y-94597676D02*
X79929762Y-94502438D01*
X79929762Y-94502438D02*
X80072619Y-94454819D01*
X80072619Y-94454819D02*
X80167857Y-94454819D01*
X80167857Y-94454819D02*
X80310714Y-94502438D01*
X80310714Y-94502438D02*
X80358333Y-94550057D01*
X80739286Y-94550057D02*
X80786905Y-94502438D01*
X80786905Y-94502438D02*
X80882143Y-94454819D01*
X80882143Y-94454819D02*
X81120238Y-94454819D01*
X81120238Y-94454819D02*
X81215476Y-94502438D01*
X81215476Y-94502438D02*
X81263095Y-94550057D01*
X81263095Y-94550057D02*
X81310714Y-94645295D01*
X81310714Y-94645295D02*
X81310714Y-94740533D01*
X81310714Y-94740533D02*
X81263095Y-94883390D01*
X81263095Y-94883390D02*
X80691667Y-95454819D01*
X80691667Y-95454819D02*
X81310714Y-95454819D01*
X99194642Y-78204819D02*
X98861309Y-77728628D01*
X98623214Y-78204819D02*
X98623214Y-77204819D01*
X98623214Y-77204819D02*
X99004166Y-77204819D01*
X99004166Y-77204819D02*
X99099404Y-77252438D01*
X99099404Y-77252438D02*
X99147023Y-77300057D01*
X99147023Y-77300057D02*
X99194642Y-77395295D01*
X99194642Y-77395295D02*
X99194642Y-77538152D01*
X99194642Y-77538152D02*
X99147023Y-77633390D01*
X99147023Y-77633390D02*
X99099404Y-77681009D01*
X99099404Y-77681009D02*
X99004166Y-77728628D01*
X99004166Y-77728628D02*
X98623214Y-77728628D01*
X100147023Y-78204819D02*
X99575595Y-78204819D01*
X99861309Y-78204819D02*
X99861309Y-77204819D01*
X99861309Y-77204819D02*
X99766071Y-77347676D01*
X99766071Y-77347676D02*
X99670833Y-77442914D01*
X99670833Y-77442914D02*
X99575595Y-77490533D01*
X100480357Y-77204819D02*
X101147023Y-77204819D01*
X101147023Y-77204819D02*
X100718452Y-78204819D01*
X126607142Y-83494819D02*
X126273809Y-83018628D01*
X126035714Y-83494819D02*
X126035714Y-82494819D01*
X126035714Y-82494819D02*
X126416666Y-82494819D01*
X126416666Y-82494819D02*
X126511904Y-82542438D01*
X126511904Y-82542438D02*
X126559523Y-82590057D01*
X126559523Y-82590057D02*
X126607142Y-82685295D01*
X126607142Y-82685295D02*
X126607142Y-82828152D01*
X126607142Y-82828152D02*
X126559523Y-82923390D01*
X126559523Y-82923390D02*
X126511904Y-82971009D01*
X126511904Y-82971009D02*
X126416666Y-83018628D01*
X126416666Y-83018628D02*
X126035714Y-83018628D01*
X127559523Y-83494819D02*
X126988095Y-83494819D01*
X127273809Y-83494819D02*
X127273809Y-82494819D01*
X127273809Y-82494819D02*
X127178571Y-82637676D01*
X127178571Y-82637676D02*
X127083333Y-82732914D01*
X127083333Y-82732914D02*
X126988095Y-82780533D01*
X128511904Y-83494819D02*
X127940476Y-83494819D01*
X128226190Y-83494819D02*
X128226190Y-82494819D01*
X128226190Y-82494819D02*
X128130952Y-82637676D01*
X128130952Y-82637676D02*
X128035714Y-82732914D01*
X128035714Y-82732914D02*
X127940476Y-82780533D01*
X129420833Y-109304819D02*
X129087500Y-108828628D01*
X128849405Y-109304819D02*
X128849405Y-108304819D01*
X128849405Y-108304819D02*
X129230357Y-108304819D01*
X129230357Y-108304819D02*
X129325595Y-108352438D01*
X129325595Y-108352438D02*
X129373214Y-108400057D01*
X129373214Y-108400057D02*
X129420833Y-108495295D01*
X129420833Y-108495295D02*
X129420833Y-108638152D01*
X129420833Y-108638152D02*
X129373214Y-108733390D01*
X129373214Y-108733390D02*
X129325595Y-108781009D01*
X129325595Y-108781009D02*
X129230357Y-108828628D01*
X129230357Y-108828628D02*
X128849405Y-108828628D01*
X129754167Y-108304819D02*
X130420833Y-108304819D01*
X130420833Y-108304819D02*
X129992262Y-109304819D01*
X127058333Y-98009580D02*
X127010714Y-98057200D01*
X127010714Y-98057200D02*
X126867857Y-98104819D01*
X126867857Y-98104819D02*
X126772619Y-98104819D01*
X126772619Y-98104819D02*
X126629762Y-98057200D01*
X126629762Y-98057200D02*
X126534524Y-97961961D01*
X126534524Y-97961961D02*
X126486905Y-97866723D01*
X126486905Y-97866723D02*
X126439286Y-97676247D01*
X126439286Y-97676247D02*
X126439286Y-97533390D01*
X126439286Y-97533390D02*
X126486905Y-97342914D01*
X126486905Y-97342914D02*
X126534524Y-97247676D01*
X126534524Y-97247676D02*
X126629762Y-97152438D01*
X126629762Y-97152438D02*
X126772619Y-97104819D01*
X126772619Y-97104819D02*
X126867857Y-97104819D01*
X126867857Y-97104819D02*
X127010714Y-97152438D01*
X127010714Y-97152438D02*
X127058333Y-97200057D01*
X128010714Y-98104819D02*
X127439286Y-98104819D01*
X127725000Y-98104819D02*
X127725000Y-97104819D01*
X127725000Y-97104819D02*
X127629762Y-97247676D01*
X127629762Y-97247676D02*
X127534524Y-97342914D01*
X127534524Y-97342914D02*
X127439286Y-97390533D01*
X119333333Y-109524819D02*
X119000000Y-109048628D01*
X118761905Y-109524819D02*
X118761905Y-108524819D01*
X118761905Y-108524819D02*
X119142857Y-108524819D01*
X119142857Y-108524819D02*
X119238095Y-108572438D01*
X119238095Y-108572438D02*
X119285714Y-108620057D01*
X119285714Y-108620057D02*
X119333333Y-108715295D01*
X119333333Y-108715295D02*
X119333333Y-108858152D01*
X119333333Y-108858152D02*
X119285714Y-108953390D01*
X119285714Y-108953390D02*
X119238095Y-109001009D01*
X119238095Y-109001009D02*
X119142857Y-109048628D01*
X119142857Y-109048628D02*
X118761905Y-109048628D01*
X120238095Y-108524819D02*
X119761905Y-108524819D01*
X119761905Y-108524819D02*
X119714286Y-109001009D01*
X119714286Y-109001009D02*
X119761905Y-108953390D01*
X119761905Y-108953390D02*
X119857143Y-108905771D01*
X119857143Y-108905771D02*
X120095238Y-108905771D01*
X120095238Y-108905771D02*
X120190476Y-108953390D01*
X120190476Y-108953390D02*
X120238095Y-109001009D01*
X120238095Y-109001009D02*
X120285714Y-109096247D01*
X120285714Y-109096247D02*
X120285714Y-109334342D01*
X120285714Y-109334342D02*
X120238095Y-109429580D01*
X120238095Y-109429580D02*
X120190476Y-109477200D01*
X120190476Y-109477200D02*
X120095238Y-109524819D01*
X120095238Y-109524819D02*
X119857143Y-109524819D01*
X119857143Y-109524819D02*
X119761905Y-109477200D01*
X119761905Y-109477200D02*
X119714286Y-109429580D01*
X134170833Y-109304819D02*
X133837500Y-108828628D01*
X133599405Y-109304819D02*
X133599405Y-108304819D01*
X133599405Y-108304819D02*
X133980357Y-108304819D01*
X133980357Y-108304819D02*
X134075595Y-108352438D01*
X134075595Y-108352438D02*
X134123214Y-108400057D01*
X134123214Y-108400057D02*
X134170833Y-108495295D01*
X134170833Y-108495295D02*
X134170833Y-108638152D01*
X134170833Y-108638152D02*
X134123214Y-108733390D01*
X134123214Y-108733390D02*
X134075595Y-108781009D01*
X134075595Y-108781009D02*
X133980357Y-108828628D01*
X133980357Y-108828628D02*
X133599405Y-108828628D01*
X135027976Y-108304819D02*
X134837500Y-108304819D01*
X134837500Y-108304819D02*
X134742262Y-108352438D01*
X134742262Y-108352438D02*
X134694643Y-108400057D01*
X134694643Y-108400057D02*
X134599405Y-108542914D01*
X134599405Y-108542914D02*
X134551786Y-108733390D01*
X134551786Y-108733390D02*
X134551786Y-109114342D01*
X134551786Y-109114342D02*
X134599405Y-109209580D01*
X134599405Y-109209580D02*
X134647024Y-109257200D01*
X134647024Y-109257200D02*
X134742262Y-109304819D01*
X134742262Y-109304819D02*
X134932738Y-109304819D01*
X134932738Y-109304819D02*
X135027976Y-109257200D01*
X135027976Y-109257200D02*
X135075595Y-109209580D01*
X135075595Y-109209580D02*
X135123214Y-109114342D01*
X135123214Y-109114342D02*
X135123214Y-108876247D01*
X135123214Y-108876247D02*
X135075595Y-108781009D01*
X135075595Y-108781009D02*
X135027976Y-108733390D01*
X135027976Y-108733390D02*
X134932738Y-108685771D01*
X134932738Y-108685771D02*
X134742262Y-108685771D01*
X134742262Y-108685771D02*
X134647024Y-108733390D01*
X134647024Y-108733390D02*
X134599405Y-108781009D01*
X134599405Y-108781009D02*
X134551786Y-108876247D01*
X87620833Y-105884819D02*
X87287500Y-105408628D01*
X87049405Y-105884819D02*
X87049405Y-104884819D01*
X87049405Y-104884819D02*
X87430357Y-104884819D01*
X87430357Y-104884819D02*
X87525595Y-104932438D01*
X87525595Y-104932438D02*
X87573214Y-104980057D01*
X87573214Y-104980057D02*
X87620833Y-105075295D01*
X87620833Y-105075295D02*
X87620833Y-105218152D01*
X87620833Y-105218152D02*
X87573214Y-105313390D01*
X87573214Y-105313390D02*
X87525595Y-105361009D01*
X87525595Y-105361009D02*
X87430357Y-105408628D01*
X87430357Y-105408628D02*
X87049405Y-105408628D01*
X88001786Y-104980057D02*
X88049405Y-104932438D01*
X88049405Y-104932438D02*
X88144643Y-104884819D01*
X88144643Y-104884819D02*
X88382738Y-104884819D01*
X88382738Y-104884819D02*
X88477976Y-104932438D01*
X88477976Y-104932438D02*
X88525595Y-104980057D01*
X88525595Y-104980057D02*
X88573214Y-105075295D01*
X88573214Y-105075295D02*
X88573214Y-105170533D01*
X88573214Y-105170533D02*
X88525595Y-105313390D01*
X88525595Y-105313390D02*
X87954167Y-105884819D01*
X87954167Y-105884819D02*
X88573214Y-105884819D01*
X80194642Y-78204819D02*
X79861309Y-77728628D01*
X79623214Y-78204819D02*
X79623214Y-77204819D01*
X79623214Y-77204819D02*
X80004166Y-77204819D01*
X80004166Y-77204819D02*
X80099404Y-77252438D01*
X80099404Y-77252438D02*
X80147023Y-77300057D01*
X80147023Y-77300057D02*
X80194642Y-77395295D01*
X80194642Y-77395295D02*
X80194642Y-77538152D01*
X80194642Y-77538152D02*
X80147023Y-77633390D01*
X80147023Y-77633390D02*
X80099404Y-77681009D01*
X80099404Y-77681009D02*
X80004166Y-77728628D01*
X80004166Y-77728628D02*
X79623214Y-77728628D01*
X81147023Y-78204819D02*
X80575595Y-78204819D01*
X80861309Y-78204819D02*
X80861309Y-77204819D01*
X80861309Y-77204819D02*
X80766071Y-77347676D01*
X80766071Y-77347676D02*
X80670833Y-77442914D01*
X80670833Y-77442914D02*
X80575595Y-77490533D01*
X82051785Y-77204819D02*
X81575595Y-77204819D01*
X81575595Y-77204819D02*
X81527976Y-77681009D01*
X81527976Y-77681009D02*
X81575595Y-77633390D01*
X81575595Y-77633390D02*
X81670833Y-77585771D01*
X81670833Y-77585771D02*
X81908928Y-77585771D01*
X81908928Y-77585771D02*
X82004166Y-77633390D01*
X82004166Y-77633390D02*
X82051785Y-77681009D01*
X82051785Y-77681009D02*
X82099404Y-77776247D01*
X82099404Y-77776247D02*
X82099404Y-78014342D01*
X82099404Y-78014342D02*
X82051785Y-78109580D01*
X82051785Y-78109580D02*
X82004166Y-78157200D01*
X82004166Y-78157200D02*
X81908928Y-78204819D01*
X81908928Y-78204819D02*
X81670833Y-78204819D01*
X81670833Y-78204819D02*
X81575595Y-78157200D01*
X81575595Y-78157200D02*
X81527976Y-78109580D01*
X133666666Y-96069819D02*
X133666666Y-96784104D01*
X133666666Y-96784104D02*
X133619047Y-96926961D01*
X133619047Y-96926961D02*
X133523809Y-97022200D01*
X133523809Y-97022200D02*
X133380952Y-97069819D01*
X133380952Y-97069819D02*
X133285714Y-97069819D01*
X134666666Y-97069819D02*
X134095238Y-97069819D01*
X134380952Y-97069819D02*
X134380952Y-96069819D01*
X134380952Y-96069819D02*
X134285714Y-96212676D01*
X134285714Y-96212676D02*
X134190476Y-96307914D01*
X134190476Y-96307914D02*
X134095238Y-96355533D01*
D12*
%TO.C,J3*%
X132420000Y-82075000D02*
X132420000Y-92295000D01*
X132420000Y-82075000D02*
X132990000Y-82075000D01*
X132420000Y-92295000D02*
X133442470Y-92295000D01*
X133750000Y-80680000D02*
X135080000Y-80680000D01*
X134057530Y-92295000D02*
X135080000Y-92295000D01*
X134510000Y-82075000D02*
X135080000Y-82075000D01*
X135080000Y-80680000D02*
X135080000Y-81440000D01*
X135080000Y-82075000D02*
X135080000Y-92295000D01*
%TO.C,R13*%
X126860436Y-94955000D02*
X127314564Y-94955000D01*
X126860436Y-96425000D02*
X127314564Y-96425000D01*
D13*
%TO.C,IC1*%
X116850000Y-89920000D02*
X116850000Y-83580000D01*
X121650000Y-83580000D02*
X121650000Y-89920000D01*
X117573600Y-88655000D02*
G75*
G02*
X117065600Y-88655000I-254000J0D01*
G01*
X117065600Y-88655000D02*
G75*
G02*
X117573600Y-88655000I254000J0D01*
G01*
D12*
%TO.C,C6*%
X96073752Y-78590000D02*
X94651248Y-78590000D01*
X96073752Y-80410000D02*
X94651248Y-80410000D01*
%TO.C,C3*%
X126563748Y-103090000D02*
X127986252Y-103090000D01*
X126563748Y-104910000D02*
X127986252Y-104910000D01*
%TO.C,U2*%
X102985000Y-101620000D02*
X102985000Y-111900000D01*
X102985000Y-111900000D02*
X107485000Y-111900000D01*
X104235000Y-101620000D02*
X102985000Y-101620000D01*
X107485000Y-101620000D02*
X106235000Y-101620000D01*
X107485000Y-111900000D02*
X107485000Y-101620000D01*
X106235000Y-101620000D02*
G75*
G02*
X104235000Y-101620000I-1000000J0D01*
G01*
%TO.C,R19*%
X84947936Y-79015000D02*
X85402064Y-79015000D01*
X84947936Y-80485000D02*
X85402064Y-80485000D01*
%TO.C,U3*%
X116360000Y-94620000D02*
X116360000Y-104900000D01*
X116360000Y-104900000D02*
X121660000Y-104900000D01*
X118010000Y-94620000D02*
X116360000Y-94620000D01*
X121660000Y-94620000D02*
X120010000Y-94620000D01*
X121660000Y-104900000D02*
X121660000Y-94620000D01*
X120010000Y-94620000D02*
G75*
G02*
X118010000Y-94620000I-1000000J0D01*
G01*
%TO.C,R18*%
X89397936Y-78840000D02*
X90852064Y-78840000D01*
X89397936Y-80660000D02*
X90852064Y-80660000D01*
%TO.C,R1*%
X88514564Y-101590000D02*
X87060436Y-101590000D01*
X88514564Y-103410000D02*
X87060436Y-103410000D01*
%TO.C,R10*%
X126860436Y-87455000D02*
X127314564Y-87455000D01*
X126860436Y-88925000D02*
X127314564Y-88925000D01*
%TO.C,R12*%
X126772936Y-91205000D02*
X127227064Y-91205000D01*
X126772936Y-92675000D02*
X127227064Y-92675000D01*
%TO.C,D2*%
X92420000Y-96750000D02*
X93070000Y-96750000D01*
X93070000Y-95630000D02*
X93070000Y-97870000D01*
X93070000Y-97870000D02*
X97310000Y-97870000D01*
X93670000Y-95630000D02*
X93670000Y-97870000D01*
X93790000Y-95630000D02*
X93790000Y-97870000D01*
X93910000Y-95630000D02*
X93910000Y-97870000D01*
X97310000Y-95630000D02*
X93070000Y-95630000D01*
X97310000Y-97870000D02*
X97310000Y-95630000D01*
X97960000Y-96750000D02*
X97310000Y-96750000D01*
%TO.C,R16*%
X105197936Y-78840000D02*
X106652064Y-78840000D01*
X105197936Y-80660000D02*
X106652064Y-80660000D01*
%TO.C,C4*%
X92538748Y-102015000D02*
X93061252Y-102015000D01*
X92538748Y-103485000D02*
X93061252Y-103485000D01*
%TO.C,C5*%
X123538748Y-109340000D02*
X124961252Y-109340000D01*
X123538748Y-111160000D02*
X124961252Y-111160000D01*
%TO.C,R14*%
X112977064Y-78840000D02*
X111522936Y-78840000D01*
X112977064Y-80660000D02*
X111522936Y-80660000D01*
%TO.C,R4*%
X116162258Y-109977500D02*
X115687742Y-109977500D01*
X116162258Y-111022500D02*
X115687742Y-111022500D01*
%TO.C,R8*%
X87227064Y-95840000D02*
X85772936Y-95840000D01*
X87227064Y-97660000D02*
X85772936Y-97660000D01*
%TO.C,D1*%
X104420000Y-96500000D02*
X105070000Y-96500000D01*
X105070000Y-95380000D02*
X105070000Y-97620000D01*
X105070000Y-97620000D02*
X109310000Y-97620000D01*
X105670000Y-95380000D02*
X105670000Y-97620000D01*
X105790000Y-95380000D02*
X105790000Y-97620000D01*
X105910000Y-95380000D02*
X105910000Y-97620000D01*
X109310000Y-95380000D02*
X105070000Y-95380000D01*
X109310000Y-97620000D02*
X109310000Y-95380000D01*
X109960000Y-96500000D02*
X109310000Y-96500000D01*
%TO.C,U1*%
X78790000Y-82670000D02*
X78790000Y-92950000D01*
X78790000Y-92950000D02*
X114590000Y-92950000D01*
X78850000Y-85160000D02*
X78850000Y-86810000D01*
X78850000Y-88810000D02*
X78850000Y-90460000D01*
X78850000Y-90460000D02*
X114530000Y-90460000D01*
X114530000Y-85160000D02*
X78850000Y-85160000D01*
X114530000Y-90460000D02*
X114530000Y-85160000D01*
X114590000Y-82670000D02*
X78790000Y-82670000D01*
X114590000Y-92950000D02*
X114590000Y-82670000D01*
X78850000Y-86810000D02*
G75*
G02*
X78850000Y-88810000I0J-1000000D01*
G01*
%TO.C,J2*%
X78160000Y-108410000D02*
X78160000Y-109150000D01*
X78160000Y-109150000D02*
X78660000Y-109150000D01*
X78400000Y-102590000D02*
X78400000Y-108910000D01*
X78400000Y-102590000D02*
X84060000Y-102590000D01*
X78400000Y-103050000D02*
X84060000Y-103050000D01*
X78400000Y-108350000D02*
X79170000Y-108350000D01*
X78400000Y-108910000D02*
X79170000Y-108910000D01*
X80750000Y-108350000D02*
X81710000Y-108350000D01*
X80750000Y-108910000D02*
X81710000Y-108910000D01*
X83290000Y-108350000D02*
X84060000Y-108350000D01*
X83290000Y-108910000D02*
X84060000Y-108910000D01*
X84060000Y-102590000D02*
X84060000Y-108910000D01*
%TO.C,R9*%
X126860436Y-80455000D02*
X127314564Y-80455000D01*
X126860436Y-81925000D02*
X127314564Y-81925000D01*
%TO.C,C2*%
X81236252Y-96090000D02*
X79813748Y-96090000D01*
X81236252Y-97910000D02*
X79813748Y-97910000D01*
%TO.C,R17*%
X100152064Y-78765000D02*
X99697936Y-78765000D01*
X100152064Y-80235000D02*
X99697936Y-80235000D01*
%TO.C,R11*%
X127022936Y-83955000D02*
X127477064Y-83955000D01*
X127022936Y-85425000D02*
X127477064Y-85425000D01*
%TO.C,R7*%
X129360436Y-109765000D02*
X129814564Y-109765000D01*
X129360436Y-111235000D02*
X129814564Y-111235000D01*
%TO.C,C1*%
X126513748Y-98590000D02*
X127936252Y-98590000D01*
X126513748Y-100410000D02*
X127936252Y-100410000D01*
%TO.C,R5*%
X119262742Y-109977500D02*
X119737258Y-109977500D01*
X119262742Y-111022500D02*
X119737258Y-111022500D01*
%TO.C,R6*%
X134110436Y-109765000D02*
X134564564Y-109765000D01*
X134110436Y-111235000D02*
X134564564Y-111235000D01*
%TO.C,R2*%
X87060436Y-106340000D02*
X88514564Y-106340000D01*
X87060436Y-108160000D02*
X88514564Y-108160000D01*
%TO.C,R15*%
X80610436Y-79015000D02*
X81064564Y-79015000D01*
X80610436Y-80485000D02*
X81064564Y-80485000D01*
%TO.C,J1*%
X132670000Y-99385000D02*
X132670000Y-100715000D01*
X132670000Y-99385000D02*
X133240000Y-99385000D01*
X132670000Y-100715000D02*
X133692470Y-100715000D01*
X134000000Y-97990000D02*
X135330000Y-97990000D01*
X134307530Y-100715000D02*
X135330000Y-100715000D01*
X134760000Y-99385000D02*
X135330000Y-99385000D01*
X135330000Y-97990000D02*
X135330000Y-98750000D01*
X135330000Y-99385000D02*
X135330000Y-100715000D01*
%TD*%
M02*
