M48
; DRILL file {KiCad 8.0.7} date 2025-04-03T15:21:50+0530
; FORMAT={-:-/ absolute / metric / decimal}
; #@! TF.CreationDate,2025-04-03T15:21:50+05:30
; #@! TF.GenerationSoftware,Kicad,Pcbnew,8.0.7
; #@! TF.FileFunction,Plated,1,2,PTH
FMAT,2
METRIC
; #@! TA.AperFunction,Plated,PTH,ViaDrill
T1C0.300
; #@! TA.AperFunction,Plated,PTH,ComponentDrill
T2C0.700
; #@! TA.AperFunction,Plated,PTH,ComponentDrill
T3C0.800
; #@! TA.AperFunction,Plated,PTH,ComponentDrill
T4C1.100
%
G90
G05
T1
X84.75Y-82.0
X85.25Y-113.0
X87.875Y-81.875
X92.0Y-111.0
X92.75Y-88.5
X96.5Y-111.0
X102.5Y-80.5
X109.5Y-78.75
X112.5Y-81.75
X116.75Y-78.25
X117.25Y-93.25
X118.5Y-92.5
X118.75Y-79.0
X122.5Y-86.0
X122.5Y-87.25
X122.5Y-106.25
X124.5Y-88.0
X125.25Y-78.5
X125.5Y-101.75
X129.0Y-106.75
X131.0Y-78.5
X132.5Y-103.75
X132.5Y-106.75
X132.5Y-113.0
X134.0Y-95.0
X137.5Y-95.0
X137.5Y-103.75
X137.5Y-106.5
T2
X133.75Y-81.44
X133.75Y-82.71
X133.75Y-83.98
X133.75Y-85.25
X133.75Y-86.52
X133.75Y-87.79
X133.75Y-89.06
X133.75Y-90.33
X133.75Y-91.6
X134.0Y-98.75
X134.0Y-100.02
T3
X80.18Y-84.0
X80.18Y-91.62
X82.72Y-84.0
X82.72Y-91.62
X85.26Y-84.0
X85.26Y-91.62
X87.8Y-84.0
X87.8Y-91.62
X90.34Y-84.0
X90.34Y-91.62
X91.38Y-96.75
X92.88Y-84.0
X92.88Y-91.62
X95.42Y-84.0
X95.42Y-91.62
X97.96Y-84.0
X97.96Y-91.62
X99.0Y-96.75
X100.5Y-84.0
X100.5Y-91.62
X101.425Y-102.95
X101.425Y-105.49
X101.425Y-108.03
X101.425Y-110.57
X103.04Y-84.0
X103.04Y-91.62
X103.38Y-96.5
X105.58Y-84.0
X105.58Y-91.62
X108.12Y-84.0
X108.12Y-91.62
X109.045Y-102.95
X109.045Y-105.49
X109.045Y-108.03
X109.045Y-110.57
X110.66Y-84.0
X110.66Y-91.62
X111.0Y-96.5
X113.2Y-84.0
X113.2Y-91.62
X115.2Y-95.95
X115.2Y-98.49
X115.2Y-101.03
X115.2Y-103.57
X122.82Y-95.95
X122.82Y-98.49
X122.82Y-101.03
X122.82Y-103.57
T4
X79.96Y-105.75
X82.5Y-105.75
M30
